<svg width="51" height="51" viewBox="0 0 51 51" fill="none" xmlns="http://www.w3.org/2000/svg">
<path d="M38.9134 46.1653C38.368 46.7133 34.9684 42.0856 34.6068 41.9064C33.1203 42.7376 31.5371 43.3671 29.8857 43.7834C30.2444 52.469 30.7941 49.2608 22.4691 50.0862C21.3219 50.3518 21.9518 44.4865 21.7211 44.0316C20.0531 43.7175 18.4387 43.1834 16.905 42.435C16.4234 42.6844 13.4456 47.7359 12.6708 46.8514C6.46861 41.2261 5.01374 44.14 10.4908 37.3826C9.41377 36.0717 8.52172 34.621 7.8289 33.0662C7.29966 32.9454 1.77542 34.9098 1.74854 33.7362C0.640158 25.4812 -2.37748 26.7389 6.17163 25.0791C6.19339 23.381 6.44271 21.6918 6.91229 20.0559C-0.811348 16.0293 1.7279 18.0756 5.16193 10.4991C5.50133 9.37041 10.2766 12.8466 10.7932 12.8731C11.9045 11.5783 13.1814 10.4495 14.5952 9.49814C11.305 1.47291 11.8244 4.67839 19.4056 1.04313C20.3921 0.394204 21.8079 6.12535 22.1891 6.47897C23.8701 6.19985 25.5763 6.1509 27.2704 6.32206C29.9021 -1.97891 28.3343 0.880455 36.391 2.92778C37.5585 3.06814 34.9536 8.36883 35.0238 8.87923C36.4885 9.74618 37.8296 10.803 39.0114 12.0226C46.3692 7.36645 43.3076 8.4926 48.1712 15.2794C48.979 16.1425 43.5667 18.5346 43.2907 18.9673C43.8574 20.5805 44.2021 22.2405 44.3192 23.9331C52.9481 25.0822 49.881 23.9827 49.2359 32.3138C49.2971 33.4903 43.6194 31.8552 43.1252 32.0103C42.524 33.6075 41.7099 35.1072 40.7201 36.478C46.3679 42.7957 45.2978 39.9582 38.9205 46.1624L38.9134 46.1653ZM34.5158 40.6341C35.064 40.0932 38.3851 44.6279 38.7496 44.8142L43.1254 40.9212C37.5653 34.991 39.6717 37.7643 42.1971 31.1785C42.244 30.2323 47.7146 31.7012 48.1715 31.5775L49.0231 25.7897C40.9362 24.8143 44.3462 25.5869 42.0413 18.934C41.4666 18.177 46.6055 15.786 46.877 15.4047L43.8019 10.4245C43.3064 10.5138 38.9173 13.9979 38.4773 13.1625C33.5488 8.13235 32.7153 11.5031 35.4711 3.84839L29.9113 2.00914C27.5372 9.8102 28.8885 6.57315 21.9253 7.69357C21.0782 8.12972 19.626 2.66154 19.2876 2.33228L13.843 4.49697C13.8417 4.9944 16.5134 9.91977 15.6066 10.2058C9.69617 14.2037 13.0759 15.6095 5.8976 11.5566L3.11848 16.7112C10.3908 20.3955 7.44033 18.5043 7.3211 25.5497C7.59917 26.4577 1.96012 26.944 1.57009 27.215L2.75398 32.9473C3.24467 33.0337 8.57663 31.2534 8.69289 32.1927C11.5953 38.6164 13.5253 35.729 8.32438 41.9707L12.9175 45.5938C17.9089 39.0131 15.3599 41.658 22.3652 42.9805C23.313 42.8604 22.8068 48.4944 23.0018 48.922L28.8561 48.7477C28.4176 40.4665 28.2888 44.1699 34.5014 40.6398L34.5158 40.6341ZM28.5736 33.597C18.549 37.8476 11.288 22.5895 20.9127 17.4792C31.1858 11.8296 39.8115 27.3485 29.6226 33.1054C29.2815 33.2907 28.9246 33.4574 28.5736 33.597ZM22.3853 18.0531C12.3553 22.2065 19.5024 37.2615 29.07 32.0912C37.4521 27.6323 31.1174 14.3495 22.3853 18.0531Z" fill="url(#paint0_linear_803_4712)"/>
<defs>
<linearGradient id="paint0_linear_803_4712" x1="-7.125" y1="11.4727" x2="53.1913" y2="2.60871" gradientUnits="userSpaceOnUse">
<stop stop-color="#5ECAFB"/>
<stop offset="0.365" stop-color="#3B79FF"/>
<stop offset="0.77" stop-color="#9747FF"/>
</linearGradient>
</defs>
</svg>
