<svg width="201" height="198" viewBox="0 0 201 198" fill="none" xmlns="http://www.w3.org/2000/svg">
<path d="M152.396 183.35C150.14 185.463 137.211 166.494 135.791 165.727C129.735 168.838 123.321 171.129 116.664 172.56C116.872 207.312 119.521 194.572 86.1434 196.694C81.5227 197.593 84.867 174.249 84.0098 172.399C77.39 170.909 71.0152 168.547 64.9932 165.34C63.034 166.269 50.424 186.03 47.4534 182.387C23.4679 159.037 17.2441 170.474 40.0802 144.249C35.9621 138.86 32.6029 132.938 30.0543 126.629C27.9569 126.071 5.60886 133.14 5.66709 128.447C2.40391 95.3099 -9.82985 99.9089 24.5603 94.4841C24.887 87.7028 26.1215 80.9892 28.2285 74.5194C-2.06123 57.3421 7.79492 65.8762 22.5841 36.0907C24.0994 31.629 42.6874 46.1913 44.7476 46.3701C49.3703 41.3537 54.6311 37.0241 60.4138 33.4228C48.4011 0.895567 50.0241 13.7756 80.826 0.321782C84.8588 -2.13163 89.7063 20.9656 91.1793 22.4322C97.935 21.5543 104.759 21.5996 111.503 22.5225C123.189 -10.2706 116.521 0.931997 148.421 10.2487C153.066 10.9743 141.91 31.7843 142.119 33.8334C147.848 37.5038 153.057 41.9155 157.607 46.9549C187.66 29.3906 175.269 33.4578 193.743 61.2594C196.848 64.8218 174.887 73.6146 173.723 75.3044C175.76 81.8296 176.903 88.5106 177.132 95.2894C211.444 101.098 199.345 96.2727 195.592 129.466C195.671 134.175 173.218 126.842 171.221 127.392C168.594 133.688 165.13 139.565 160.982 144.902C182.655 170.94 178.78 159.452 152.425 183.339L152.396 183.35ZM135.607 160.631C137.874 158.547 150.503 177.133 151.932 177.929L169.965 162.993C148.587 138.516 156.612 149.893 167.631 123.937C167.952 120.163 189.601 126.804 191.444 126.375L195.663 103.371C163.491 98.3328 177.006 101.901 168.736 74.9951C166.547 71.8896 187.416 63.0623 188.555 61.5774L176.971 41.2459C174.979 41.5328 156.952 54.8335 155.312 51.4336C136.331 30.6412 132.525 43.9905 144.616 13.7969L122.663 5.66398C112.077 36.4962 117.932 23.7541 89.9541 27.2477C86.5083 28.8706 81.4779 6.81884 80.1727 5.45561L58.1144 13.3357C58.0388 15.3229 68.0179 35.3781 64.3548 36.3927C40.1767 51.5313 53.4811 57.6248 25.3741 40.4192L13.5432 60.6211C42.0779 76.3671 30.5571 68.395 29.0864 96.5262C30.0692 100.194 7.47107 101.34 5.87453 102.368L9.79546 125.437C11.7437 125.852 33.2976 119.491 33.6295 123.26C44.3187 149.335 52.437 138.071 30.7771 162.274L48.6166 177.398C69.4874 151.81 58.9299 162.018 86.7313 168.29C90.535 167.944 87.7176 190.382 88.4361 192.118L111.85 192.248C111.267 159.1 110.23 173.878 135.549 160.652L135.607 160.631ZM112.86 131.677C72.2091 147.244 45.3528 85.2594 84.5274 66.201C126.369 45.0791 158.64 108.299 117.12 129.861C115.731 130.553 114.282 131.169 112.86 131.677ZM90.33 68.7018C49.6711 83.8801 76.1008 145.037 115.056 125.731C149.174 109.1 125.74 55.1373 90.33 68.7018Z" fill="url(#paint0_linear_669_4031)"/>
<defs>
<linearGradient id="paint0_linear_669_4031" x1="-26.6428" y1="38.2461" x2="215.588" y2="11.345" gradientUnits="userSpaceOnUse">
<stop stop-color="#5ECAFB"/>
<stop offset="0.365" stop-color="#3B79FF"/>
<stop offset="0.77" stop-color="#9747FF"/>
</linearGradient>
</defs>
</svg>
