<svg width="111" height="109" viewBox="0 0 111 109" fill="none" xmlns="http://www.w3.org/2000/svg">
<path d="M85.6552 100.182C84.4568 101.386 76.9866 91.2176 76.1919 90.8238C72.9256 92.6502 69.4466 94.0333 65.8179 94.9483C66.6061 114.034 67.8139 106.984 49.5207 108.798C47 109.382 48.384 96.4931 47.8773 95.4936C44.212 94.8035 40.6645 93.6298 37.2943 91.9853C36.2361 92.5334 29.6927 103.633 27.9902 101.69C14.3617 89.3289 11.1648 95.7317 23.2 80.8833C20.8333 78.0027 18.8731 74.8149 17.3508 71.3985C16.1878 71.1329 4.04895 75.4495 3.98987 72.8707C1.55434 54.7313 -5.07656 57.495 13.7091 53.8478C13.7569 50.1164 14.3048 46.4046 15.3366 42.8097C-1.63517 33.9619 3.94452 38.4585 11.4904 21.81C12.2362 19.3297 22.7294 26.9683 23.8645 27.0265C26.3065 24.1812 29.1123 21.7009 32.2189 19.6104C24.989 1.97594 26.1305 9.0196 42.7892 1.03155C44.9569 -0.394393 48.0678 12.1991 48.9055 12.9762C52.5994 12.3628 56.3485 12.2553 60.0712 12.6314C65.8539 -5.60903 62.4088 0.674085 80.1126 5.17283C82.6781 5.48128 76.9541 17.1289 77.1083 18.2504C80.3268 20.1555 83.2737 22.4778 85.8706 25.1577C102.038 14.9263 95.3109 17.4009 105.998 32.3141C107.773 34.2107 95.8802 39.4669 95.2738 40.4177C96.5191 43.9625 97.2766 47.6103 97.5339 51.3295C116.495 53.8545 109.755 51.4386 108.338 69.7451C108.472 72.3303 95.9961 68.7375 94.9101 69.0783C93.5892 72.5879 91.8002 75.8833 89.6251 78.8954C102.036 92.7778 99.6842 86.5427 85.6709 100.176L85.6552 100.182ZM75.9919 88.0281C77.1965 86.8394 84.4943 96.8038 85.2952 97.2133L94.9107 88.6589C82.6929 75.628 87.3216 81.722 92.8708 67.2504C92.9739 65.1712 104.995 68.399 105.999 68.1272L107.87 55.4091C90.1001 53.266 97.5933 54.9637 92.5284 40.3445C91.2655 38.6811 102.558 33.4272 103.154 32.5895L96.397 21.6459C95.3083 21.8422 85.6638 29.4982 84.697 27.6625C73.8671 16.6093 72.0356 24.016 78.0912 7.19576L65.8742 3.15424C60.6575 20.2961 63.6268 13.1831 48.3259 15.6451C46.4646 16.6035 43.2734 4.58781 42.53 3.8643L30.566 8.62094C30.5631 9.71399 36.4339 20.5369 34.4414 21.1653C21.4538 29.9503 28.8803 33.0393 13.1069 24.1335L7.00015 35.4602C22.9801 43.556 16.4969 39.4004 16.2349 54.8817C16.8459 56.8771 4.45481 57.9457 3.59776 58.5412L6.19921 71.137C7.27744 71.3271 18.9938 67.415 19.2493 69.479C25.6269 83.5943 29.8679 77.2496 18.4395 90.965L28.5324 98.9264C39.5004 84.4659 33.8991 90.2779 49.2925 93.1839C51.3752 92.92 50.263 105.3 50.6913 106.24L63.5555 105.857C62.592 87.6597 62.3089 95.7975 75.9604 88.0406L75.9919 88.0281ZM62.9347 72.5648C40.9069 81.905 24.9516 48.3771 46.1008 37.1479C68.6747 24.7335 87.6288 58.8344 65.2398 71.4846C64.4902 71.8918 63.7061 72.2581 62.9347 72.5648ZM49.3368 38.409C27.2969 47.5356 43.0018 80.6172 64.0255 69.2559C82.4441 59.4581 68.5245 30.2708 49.3368 38.409Z" fill="url(#paint0_linear_666_3594)"/>
<defs>
<linearGradient id="paint0_linear_666_3594" x1="-15.5087" y1="23.9492" x2="117.029" y2="4.47171" gradientUnits="userSpaceOnUse">
<stop stop-color="#5ECAFB"/>
<stop offset="0.365" stop-color="#3B79FF"/>
<stop offset="0.77" stop-color="#9747FF"/>
</linearGradient>
</defs>
</svg>
