<svg width="68" height="67" viewBox="0 0 68 67" fill="none" xmlns="http://www.w3.org/2000/svg">
<path d="M51.7266 61.9367C50.971 62.6442 46.641 56.2915 46.1656 56.0347C44.1373 57.0765 41.9891 57.8439 39.7599 58.323C39.8292 69.9616 40.7164 65.6949 29.5383 66.4058C27.9908 66.7069 29.1108 58.8887 28.8237 58.2691C26.6067 57.7701 24.4718 56.9791 22.455 55.9052C21.7988 56.2162 17.5757 62.8344 16.5808 61.6143C8.54795 53.7943 6.46355 57.6244 14.1115 48.8418C12.7323 47.0368 11.6073 45.0535 10.7538 42.9404C10.0513 42.7537 2.56686 45.1211 2.58636 43.5495C1.49351 32.4517 -2.60363 33.9919 8.9138 32.1751C9.02319 29.904 9.43663 27.6556 10.1423 25.4888C-0.00188613 19.7361 3.29898 22.5942 8.25195 12.6189C8.75943 11.1247 14.9846 16.0016 15.6746 16.0615C17.2228 14.3815 18.9846 12.9315 20.9213 11.7254C16.8982 0.831896 17.4417 5.14549 27.7574 0.639732C29.108 -0.181928 30.7315 7.55344 31.2248 8.04462C33.4873 7.75061 35.7726 7.76576 38.0313 8.07486C41.9449 -2.90772 39.7119 0.844097 50.3953 3.9643C51.9509 4.2073 48.2149 11.1767 48.2847 11.8629C50.2035 13.0921 51.948 14.5697 53.4716 16.2574C63.5367 10.375 59.3869 11.7371 65.5738 21.048C66.6139 22.2411 59.2589 25.1858 58.8692 25.7518C59.5512 27.9371 59.934 30.1746 60.0107 32.4448C71.502 34.3902 67.4501 32.7741 66.1932 43.8908C66.2195 45.4679 58.6998 43.0118 58.0312 43.196C57.1514 45.3047 55.9911 47.2728 54.6019 49.0602C61.8603 57.7804 60.5626 53.9331 51.7363 61.9332L51.7266 61.9367ZM46.1039 54.328C46.863 53.6301 51.0924 59.8546 51.5713 60.1212L57.6104 55.1191C50.451 46.9215 53.1384 50.7318 56.8288 42.0391C56.9363 40.7753 64.1867 42.9993 64.8039 42.8554L66.2168 35.1513C55.4424 33.4641 59.9687 34.659 57.199 25.6482C56.4658 24.6081 63.4549 21.6518 63.8362 21.1545L59.9569 14.3454C59.2898 14.4415 53.2524 18.8959 52.7031 17.7573C46.3463 10.7938 45.0717 15.2646 49.1209 5.15262L41.7687 2.42886C38.2234 12.7547 40.1845 8.48731 30.8145 9.65733C29.6605 10.2009 27.9758 2.81563 27.5386 2.35908L20.1512 4.99815C20.1259 5.66366 23.4679 12.3803 22.2412 12.72C14.1438 17.79 18.5995 19.8308 9.18632 14.0685L5.22412 20.8342C14.7805 26.1076 10.9221 23.4378 10.4296 32.859C10.7587 34.0872 3.19052 34.4713 2.65583 34.8155L3.96897 42.5414C4.62144 42.6803 11.8399 40.5502 11.9511 41.8125C15.531 50.5448 18.2498 46.7726 10.9958 54.8784L16.9703 59.9433C23.9601 51.374 20.4243 54.7925 29.7351 56.8932C31.009 56.7773 30.0655 64.2918 30.3061 64.8732L38.1476 64.9167C37.9523 53.8154 37.6049 58.7646 46.0845 54.3349L46.1039 54.328ZM38.4857 44.6312C24.8716 49.8448 15.8773 29.0857 28.997 22.703C43.0098 15.6292 53.8178 36.8016 39.9126 44.023C39.4473 44.2549 38.962 44.4611 38.4857 44.6312ZM30.9404 23.5405C17.3235 28.6238 26.1749 49.1057 39.2211 42.6398C50.6474 37.0699 42.7993 18.9977 30.9404 23.5405Z" fill="url(#paint0_linear_851_4488)"/>
<defs>
<linearGradient id="paint0_linear_851_4488" x1="-8.23438" y1="13.3408" x2="72.8897" y2="4.33148" gradientUnits="userSpaceOnUse">
<stop stop-color="#5ECAFB"/>
<stop offset="0.365" stop-color="#3B79FF"/>
<stop offset="0.77" stop-color="#9747FF"/>
</linearGradient>
</defs>
</svg>
