<svg width="29" height="28" viewBox="0 0 29 28" fill="none" xmlns="http://www.w3.org/2000/svg">
<path d="M22.2912 25.7142C21.9832 26.0237 20.0634 23.4101 19.8592 23.3089C19.0197 23.7782 18.1255 24.1337 17.1929 24.3688C17.3951 29.274 17.7057 27.4622 13.004 27.928C12.3562 28.078 12.7121 24.7655 12.5819 24.5086C11.6399 24.3312 10.7281 24.0295 9.86196 23.6068C9.58997 23.7476 7.90807 26.6003 7.47054 26.1008C3.96802 22.9237 3.14626 24.5692 6.23972 20.7532C5.63149 20.0128 5.12775 19.1935 4.73654 18.3154C4.43765 18.2471 1.31773 19.3563 1.30259 18.6935C0.676916 14.0314 -1.02736 14.7416 3.80086 13.8045C3.81321 12.8455 3.95408 11.8916 4.21934 10.9677C-0.142496 8.69336 1.29149 9.84914 3.23115 5.57038C3.42286 4.93293 6.11962 6.8963 6.41138 6.91128C7.03904 6.18005 7.7602 5.54261 8.55868 5.00539C6.70078 0.472979 6.99404 2.28331 11.2757 0.230544C11.8328 -0.135907 12.6322 3.10084 12.8475 3.30056C13.7969 3.14299 14.7604 3.11541 15.7172 3.21213C17.2037 -1.4758 16.3182 0.138987 20.8682 1.29551C21.5276 1.37482 20.0563 4.36833 20.0959 4.65658C20.923 5.14625 21.6804 5.74316 22.3478 6.43198C26.5033 3.80263 24.7742 4.43852 27.5208 8.27159C27.9769 8.75907 24.9202 10.1098 24.7643 10.3541C25.0843 11.2652 25.2789 12.2028 25.345 13.1587C30.2181 13.8079 28.486 13.1869 28.1214 17.8919C28.1559 18.5563 24.9495 17.6327 24.6704 17.7203C24.3308 18.6223 23.871 19.4692 23.3119 20.2433C26.5013 23.8115 25.8971 22.209 22.2953 25.7126L22.2912 25.7142ZM19.8078 22.5903C20.1174 22.2849 21.9929 24.846 22.1987 24.9512L24.6702 22.7528C21.5303 19.4035 22.7198 20.9698 24.1463 17.2505C24.1728 16.7161 27.2623 17.5459 27.5203 17.476L28.0014 14.2073C23.4344 13.6562 25.3602 14.0927 24.0587 10.3353C23.7341 9.90776 26.6365 8.55762 26.7898 8.34232L25.0533 5.52957C24.7735 5.58 22.2946 7.54754 22.0461 7.07572C19.2629 4.23472 18.792 6.13833 20.3487 1.8154L17.2088 0.776476C15.8678 5.18209 16.631 3.35399 12.6984 3.98651C12.2201 4.2328 11.4001 1.14456 11.209 0.958594L8.13405 2.18092C8.13327 2.46185 9.64197 5.24358 9.12986 5.40505C5.79175 7.6627 7.70041 8.45675 3.64658 6.16759L2.07687 9.0786C6.18381 11.1596 4.5176 10.0914 4.45001 14.0703C4.60702 14.5832 1.42232 14.8576 1.20204 15.0107L1.87045 18.248C2.14756 18.2969 5.15888 17.2916 5.22451 17.8221C6.86343 21.45 7.9535 19.8194 5.01604 23.3442L7.60992 25.3906C10.4291 21.6742 8.98939 23.1679 12.9456 23.915C13.4809 23.8472 13.1949 27.029 13.3049 27.2706L16.6112 27.1723C16.3639 22.4954 16.291 24.587 19.7997 22.5936L19.8078 22.5903ZM16.4522 18.6159C10.7906 21.0161 6.69043 12.3987 12.1262 9.51298C17.9282 6.32268 22.7991 15.0874 17.0447 18.3383C16.852 18.4429 16.6505 18.5371 16.4522 18.6159ZM12.9579 9.83715C7.29322 12.1825 11.329 20.6851 16.7326 17.7654C21.4666 15.2476 17.8895 7.74583 12.9579 9.83715Z" fill="url(#paint0_linear_851_4487)"/>
<defs>
<linearGradient id="paint0_linear_851_4487" x1="-3.70801" y1="6.11975" x2="30.3563" y2="1.11591" gradientUnits="userSpaceOnUse">
<stop stop-color="#5ECAFB"/>
<stop offset="0.365" stop-color="#3B79FF"/>
<stop offset="0.77" stop-color="#9747FF"/>
</linearGradient>
</defs>
</svg>
