<svg width="39" height="39" viewBox="0 0 39 39" fill="none" xmlns="http://www.w3.org/2000/svg">
<path d="M29.7291 35.5406C29.3106 35.9612 26.7018 32.4096 26.4243 32.2721C25.2836 32.9099 24.0685 33.3929 22.8012 33.7123C23.076 40.3779 23.498 37.9158 17.1092 38.5489C16.2288 38.7526 16.7125 34.2515 16.5355 33.9024C15.2555 33.6613 14.0165 33.2513 12.8395 32.6769C12.47 32.8683 10.1845 36.7447 9.58994 36.0659C4.83051 31.7486 3.71387 33.9847 7.91744 28.7993C7.09094 27.7932 6.40643 26.6798 5.87482 25.4866C5.46868 25.3939 1.22916 26.9012 1.20858 26.0005C0.358385 19.6654 -1.95748 20.6304 4.60338 19.3571C4.62016 18.0539 4.81158 16.7576 5.17202 15.5021C-0.755079 12.4117 1.1935 13.9822 3.82922 8.16801C4.08973 7.30182 7.75424 9.96976 8.1507 9.99011C9.00359 8.99648 9.98355 8.13029 11.0686 7.40028C8.54395 1.24138 8.94245 3.70137 14.7606 0.911949C15.5177 0.413995 16.6039 4.81227 16.8964 5.08367C18.1865 4.86954 19.4959 4.83206 20.796 4.9635C22.816 -1.40673 21.6126 0.787537 27.7955 2.35908C28.6915 2.46686 26.6921 6.5346 26.746 6.9263C27.87 7.59168 28.8991 8.40281 29.806 9.33881C35.4527 5.7659 33.1031 6.62999 36.8353 11.8386C37.4552 12.501 33.3015 14.3364 33.0897 14.6685C33.5245 15.9065 33.789 17.1805 33.8788 18.4794C40.5007 19.3617 38.147 18.5178 37.6515 24.9112C37.6984 25.814 33.3413 24.559 32.962 24.678C32.5006 25.9037 31.8758 27.0545 31.1161 28.1065C35.45 32.9551 34.629 30.7775 29.7346 35.5384L29.7291 35.5406ZM26.3545 31.2957C26.7753 30.8806 29.3238 34.3608 29.6035 34.5038L32.9618 31.5164C28.6951 26.9652 30.3115 29.0936 32.2499 24.0396C32.2859 23.3135 36.4841 24.441 36.8347 24.3461L37.4885 19.9044C31.2825 19.1556 33.8994 19.7486 32.1309 14.6429C31.6898 14.0619 35.6337 12.2273 35.8421 11.9347L33.4824 8.11257C33.1021 8.18109 29.7337 10.8547 29.3961 10.2136C25.614 6.35305 24.9742 8.93979 27.0895 3.06554L22.8229 1.65379C21.0006 7.64038 22.0377 5.15627 16.6939 6.01577C16.0438 6.35044 14.9296 2.15396 14.67 1.90126L10.4916 3.56223C10.4905 3.94397 12.5406 7.72394 11.8447 7.94336C7.30871 11.0112 9.9023 12.0902 4.39373 8.97954L2.26072 12.9352C7.84146 15.7629 5.57732 14.3115 5.48548 19.7182C5.69884 20.4151 1.37129 20.788 1.07195 20.996L1.98022 25.3951C2.35678 25.4615 6.44874 24.0955 6.53791 24.8163C8.76497 29.7461 10.2462 27.5304 6.25464 32.3201L9.77934 35.1009C13.6102 30.0509 11.6538 32.0805 17.0298 33.0958C17.7572 33.0036 17.3685 37.3273 17.5181 37.6555L22.0108 37.5219C21.6747 31.1668 21.5757 34.0088 26.3435 31.3001L26.3545 31.2957ZM21.7947 25.895C14.1014 29.1565 8.52989 17.4467 15.9164 13.5254C23.8004 9.19029 30.4193 21.1002 22.5998 25.5178C22.338 25.66 22.0641 25.7879 21.7947 25.895ZM17.0465 13.966C9.34899 17.1529 14.8331 28.7068 22.1758 24.7394C28.6086 21.3179 23.7479 11.1241 17.0465 13.966Z" fill="url(#paint0_linear_803_4713)"/>
<defs>
<linearGradient id="paint0_linear_803_4713" x1="-5.6001" y1="8.91454" x2="40.6884" y2="2.11503" gradientUnits="userSpaceOnUse">
<stop stop-color="#5ECAFB"/>
<stop offset="0.365" stop-color="#3B79FF"/>
<stop offset="0.77" stop-color="#9747FF"/>
</linearGradient>
</defs>
</svg>
