<svg width="38" height="37" viewBox="0 0 38 37" fill="none" xmlns="http://www.w3.org/2000/svg">
<path d="M29.2757 33.6213C28.8744 34.0246 26.3726 30.6191 26.1065 30.4872C25.0126 31.0988 23.8474 31.5621 22.6322 31.8685C22.8961 38.2603 23.3006 35.8994 17.1742 36.5068C16.3299 36.7023 16.7935 32.3859 16.6237 32.0511C15.3962 31.82 14.2081 31.4269 13.0795 30.8762C12.7251 31.0597 10.5337 34.7771 9.96349 34.1262C5.39922 29.9865 4.32856 32.1309 8.35922 27.1581C7.5666 26.1933 6.91013 25.1257 6.40028 23.9815C6.0108 23.8926 1.94544 25.3383 1.92566 24.4746C1.10999 18.3996 -1.11073 19.3252 5.18067 18.1037C5.19669 16.8541 5.38016 15.611 5.72573 14.4071C0.0418059 11.4439 1.91047 12.9498 4.43762 7.37414C4.68739 6.54349 8.2016 9.10167 8.58178 9.12116C9.39959 8.16828 10.3393 7.33759 11.3797 6.63749C8.95836 0.731625 9.34064 3.09058 14.9197 0.415344C15.6457 -0.0622114 16.6876 4.15541 16.9681 4.41565C18.2052 4.21024 19.4608 4.17422 20.7076 4.30018C22.6442 -1.80862 21.4904 0.295627 27.4195 1.80228C28.2787 1.90558 26.3617 5.80642 26.4134 6.18203C27.4913 6.82003 28.4782 7.59779 29.3479 8.4953C34.7626 5.06875 32.5095 5.8975 36.0887 10.892C36.6832 11.5272 32.7002 13.2875 32.4971 13.6059C32.9141 14.7931 33.1678 16.0148 33.254 17.2604C39.604 18.106 37.3469 17.2969 36.8722 23.4278C36.9172 24.2936 32.739 23.0904 32.3753 23.2045C31.9329 24.3799 31.3337 25.4835 30.6053 26.4923C34.7616 31.1416 33.9741 29.0534 29.281 33.6192L29.2757 33.6213ZM26.0395 29.5509C26.4429 29.1528 28.887 32.4899 29.1552 32.6271L32.3754 29.7622C28.2837 25.3981 29.8338 27.4389 31.6923 22.5923C31.7268 21.896 35.7527 22.977 36.0889 22.886L36.7156 18.6266C30.7644 17.9089 33.2739 18.4775 31.5776 13.5814C31.1547 13.0244 34.9365 11.2648 35.1363 10.9842L32.8732 7.31919C32.5086 7.38492 29.2786 9.94895 28.9548 9.33416C25.3279 5.63239 24.7145 8.11295 26.7425 2.47976L22.651 1.12624C20.9039 6.86714 21.8983 4.48496 16.774 5.30949C16.1506 5.63046 15.0819 1.60635 14.8329 1.36404L10.8261 2.95707C10.8251 3.32313 12.7913 6.94778 12.124 7.15823C7.77442 10.1004 10.2616 11.1349 4.97901 8.15231L2.93382 11.9457C8.28559 14.657 6.11432 13.2652 6.02658 18.45C6.23121 19.1183 2.08137 19.4761 1.79434 19.6756L2.66558 23.894C3.02668 23.9576 6.95054 22.6475 7.0361 23.3387C9.17201 28.066 10.5923 25.9411 6.76491 30.5345L10.1451 33.2008C13.8183 28.3579 11.9424 30.3043 17.0977 31.2776C17.7952 31.1892 17.4227 35.3353 17.5662 35.6501L21.8745 35.5217C21.5518 29.4275 21.457 32.1529 26.0289 29.5551L26.0395 29.5509ZM21.6666 24.3722C14.2893 27.5002 8.94584 16.2716 16.0288 12.5109C23.5889 8.35324 29.9367 19.7738 22.4385 24.0104C22.1875 24.1468 21.9249 24.2695 21.6666 24.3722ZM17.1125 12.9332C9.7313 15.9898 14.9909 27.0689 22.0319 23.264C28.2003 19.9827 23.5386 10.2077 17.1125 12.9332Z" fill="url(#paint0_linear_851_4486)"/>
<defs>
<linearGradient id="paint0_linear_851_4486" x1="-4.60449" y1="8.09058" x2="39.783" y2="1.56747" gradientUnits="userSpaceOnUse">
<stop stop-color="#5ECAFB"/>
<stop offset="0.365" stop-color="#3B79FF"/>
<stop offset="0.77" stop-color="#9747FF"/>
</linearGradient>
</defs>
</svg>
