<svg width="85" height="85" viewBox="0 0 85 85" fill="none" xmlns="http://www.w3.org/2000/svg">
<path d="M65.6317 77.5867C64.712 78.5109 58.9797 70.7068 58.3699 70.4045C55.8631 71.806 53.1932 72.8673 50.4084 73.5693C51.0123 88.216 51.9396 82.806 37.9009 84.197C35.9664 84.6448 37.0292 74.754 36.6403 73.9869C33.8276 73.4571 31.1052 72.5562 28.5189 71.294C27.7068 71.7146 22.6847 80.2326 21.3783 78.741C10.92 69.2543 8.46633 74.1679 17.7032 62.7734C15.887 60.5627 14.3829 58.1162 13.2148 55.4943C12.3223 55.2904 3.00647 58.6025 2.96126 56.6235C1.09305 42.7028 -3.99578 44.8234 10.4209 42.0253C10.4578 39.1618 10.8784 36.3133 11.6705 33.5546C-1.35365 26.7637 2.92811 30.2148 8.7198 17.4387C9.29225 15.5353 17.3446 21.3978 18.2157 21.4425C20.0899 19.2592 22.2432 17.3558 24.6274 15.7517C19.0799 2.21826 19.9555 7.62378 32.7402 1.49437C34.4038 0.400177 36.7906 10.0649 37.4334 10.6612C40.2682 10.1907 43.1454 10.1084 46.0022 10.3972C50.4409 -3.60064 47.7968 1.22099 61.3828 4.67428C63.3516 4.91111 58.9583 13.8495 59.0766 14.7102C61.5465 16.1723 63.8079 17.9546 65.8006 20.0114C78.2087 12.1603 73.0457 14.0591 81.2467 25.5043C82.6088 26.9599 73.4816 30.993 73.0162 31.7227C73.9717 34.4431 74.5528 37.2425 74.7501 40.0968C89.3009 42.0354 84.1289 40.1811 83.0402 54.2298C83.1433 56.2137 73.5691 53.456 72.7357 53.7175C71.7218 56.4108 70.3487 58.9396 68.6794 61.2511C78.2028 71.9053 76.3986 67.1203 65.6438 77.5819L65.6317 77.5867ZM58.2165 68.259C59.141 67.3469 64.741 74.9941 65.3556 75.3084L72.7352 68.7441C63.3596 58.7433 66.9115 63.4202 71.1708 52.3146C71.25 50.719 80.475 53.1966 81.2455 52.9881L82.682 43.228C69.0451 41.5825 74.7955 42.8857 70.9093 31.6664C69.9402 30.3898 78.6063 26.3584 79.0643 25.7155L73.879 17.3169C73.0435 17.4674 65.6418 23.3424 64.8999 21.9335C56.5893 13.4505 55.1834 19.1346 59.8314 6.22662L50.4561 3.12448C46.4518 16.2793 48.7308 10.8208 36.9884 12.7094C35.56 13.4448 33.1116 4.22355 32.5411 3.66827L23.3595 7.31806C23.3572 8.15688 27.862 16.4629 26.3329 16.9451C16.3656 23.6862 22.0647 26.0572 9.96025 19.2219L5.27322 27.914C17.5362 34.1276 12.5611 30.9382 12.3592 42.8189C12.8281 44.3503 3.31878 45.1697 2.66103 45.6267L4.65684 55.2931C5.48429 55.439 14.4759 52.4374 14.6718 54.0213C19.5655 64.8541 22.8204 59.9852 14.0494 70.5101L21.7945 76.6204C30.2123 65.5236 25.9135 69.9836 37.7265 72.2145C39.3248 72.012 38.4707 81.5126 38.7994 82.2339L48.6716 81.9405C47.9331 67.9757 47.7155 74.2208 58.1924 68.2686L58.2165 68.259ZM48.1969 56.3916C31.2918 63.5584 19.049 37.8275 35.2798 29.211C52.6042 19.685 67.1483 45.8557 49.9659 55.5627C49.3906 55.8752 48.7888 56.1563 48.1969 56.3916ZM37.7631 30.179C20.8488 37.1819 32.8995 62.5702 49.0342 53.8523C63.1695 46.3341 52.4887 23.9344 37.7631 30.179Z" fill="url(#paint0_linear_669_4032)"/>
<defs>
<linearGradient id="paint0_linear_669_4032" x1="-12" y1="19.0791" x2="89.7134" y2="4.138" gradientUnits="userSpaceOnUse">
<stop stop-color="#5ECAFB"/>
<stop offset="0.365" stop-color="#3B79FF"/>
<stop offset="0.77" stop-color="#9747FF"/>
</linearGradient>
</defs>
</svg>
