<svg width="92" height="91" viewBox="0 0 92 91" fill="none" xmlns="http://www.w3.org/2000/svg">
<path d="M69.4784 84.3308C68.4516 85.2923 62.5677 76.6599 61.9217 76.3109C59.1656 77.7266 56.2465 78.7694 53.2173 79.4204C53.3115 95.2355 54.5171 89.4377 39.3276 90.4037C37.2248 90.813 38.7467 80.1891 38.3566 79.3472C35.344 78.669 32.4429 77.5942 29.7024 76.135C28.8108 76.5575 23.0721 85.5508 21.7202 83.8928C10.8048 73.2666 7.97237 78.4711 18.3648 66.5368C16.4907 64.0841 14.962 61.3891 13.8021 58.5177C12.8477 58.264 2.67733 61.4809 2.70383 59.3454C1.2188 44.265 -4.34863 46.358 11.3019 43.8892C11.4505 40.8031 12.0124 37.7479 12.9712 34.8035C-0.81323 26.9864 3.67218 30.8701 10.4026 17.3151C11.0921 15.2847 19.5513 21.9118 20.4889 21.9931C22.5926 19.7102 24.9867 17.7399 27.6184 16.101C22.1515 1.29825 22.8901 7.1598 36.9077 1.03713C38.7429 -0.0793869 40.949 10.4319 41.6193 11.0993C44.6938 10.6998 47.7991 10.7204 50.8684 11.1404C56.1864 -3.78334 53.1521 1.31483 67.6694 5.55474C69.7831 5.88495 64.7064 15.3553 64.8013 16.2878C67.4087 17.9582 69.7792 19.9659 71.8496 22.2593C85.5265 14.266 79.8876 16.1169 88.2948 28.7691C89.708 30.3903 79.7137 34.3918 79.1841 35.1608C80.1109 38.1303 80.6311 41.1707 80.7352 44.2557C96.3503 46.8992 90.8444 44.7032 89.1363 59.8092C89.1721 61.9522 78.954 58.6148 78.0454 58.865C76.8498 61.7304 75.2733 64.4048 73.3855 66.8335C83.2486 78.6831 81.4852 73.4552 69.4916 84.3261L69.4784 84.3308ZM61.8379 73.9917C62.8694 73.0434 68.6166 81.5016 69.2673 81.8639L77.4735 75.0668C67.745 63.9274 71.3968 69.105 76.4115 57.2929C76.5576 55.5756 86.4098 58.5977 87.2485 58.4021L89.1684 47.9334C74.5276 45.6407 80.6781 47.2645 76.9146 35.02C75.9182 33.6067 85.4154 29.5895 85.9336 28.9138L80.6622 19.6612C79.7556 19.7917 71.5516 25.8447 70.8053 24.2975C62.1673 14.8351 60.4354 20.9102 65.9376 7.1695L55.947 3.4683C51.1294 17.4996 53.7942 11.7009 41.0618 13.2908C39.4936 14.0294 37.2044 3.99386 36.6104 3.37347L26.5719 6.95959C26.5375 7.86393 31.0789 16.9908 29.4119 17.4525C18.4087 24.3419 24.4634 27.115 11.6722 19.285L6.28815 28.4786C19.2739 35.6444 14.0309 32.0164 13.3616 44.8186C13.8089 46.4875 3.5248 47.0094 2.79823 47.4771L4.5826 57.9755C5.46921 58.1642 15.2781 55.2697 15.4291 56.985C20.2937 68.851 23.9882 63.725 14.1311 74.7396L22.2496 81.6222C31.7476 69.9777 26.943 74.623 39.5951 77.4775C41.3261 77.32 40.044 87.5311 40.3709 88.3212L51.0264 88.3802C50.7611 73.2953 50.289 80.0205 61.8115 74.0012L61.8379 73.9917ZM51.4859 60.8152C32.9862 67.8998 20.7643 39.6912 38.5921 31.0179C57.6335 21.4056 72.32 50.176 53.4248 59.9888C52.7926 60.3038 52.1331 60.584 51.4859 60.8152ZM41.2328 32.156C22.7295 39.0634 34.7573 66.8954 52.4852 58.1092C68.0118 50.5405 57.3474 25.983 41.2328 32.156Z" fill="url(#paint0_linear_803_4714)"/>
<defs>
<linearGradient id="paint0_linear_803_4714" x1="-12" y1="18.296" x2="98.2359" y2="6.05368" gradientUnits="userSpaceOnUse">
<stop stop-color="#5ECAFB"/>
<stop offset="0.365" stop-color="#3B79FF"/>
<stop offset="0.77" stop-color="#9747FF"/>
</linearGradient>
</defs>
</svg>
