<svg width="540" height="498" viewBox="0 0 540 498" fill="none" xmlns="http://www.w3.org/2000/svg">
<g clip-path="url(#clip0_1442_9697)">
<rect width="540" height="498" rx="14" fill="#F7F7F7"/>
<path d="M76.3356 431.978C75.0731 432.528 72.4932 422.602 72.0129 422.066C69.0076 422.464 65.9749 422.464 62.9696 422.066C57.851 436.721 60.87 431.758 46.5572 427.634C44.485 427.317 49.384 417.996 49.3017 417.089C46.7493 415.467 44.4301 413.514 42.3854 411.26C41.4248 411.356 33.1774 417.776 32.4776 415.797C25.9181 402.365 21.5954 406.242 35.0986 398.639C34.1792 395.752 33.6577 392.755 33.5342 389.717C32.7383 389.167 22.309 388.782 23.0363 386.816C26.6317 372.38 20.8132 372.476 36.0455 375.364C37.1982 372.559 38.7214 369.919 40.574 367.513C30.4466 355.731 33.301 360.804 43.9635 350.493C45.2672 348.844 50.8798 357.766 51.7169 358.151C54.4066 356.735 57.2609 355.704 60.225 355.058C60.0604 339.564 58.8116 345.228 73.742 344.197C75.8004 343.771 74.3732 354.219 74.7712 355.058C77.7353 355.704 80.5896 356.749 83.2793 358.151C93.0911 346.108 88.6174 349.82 100.597 358.536C102.436 359.54 94.6417 366.62 94.4222 367.513C96.2748 369.919 97.798 372.559 98.9507 375.364C114.183 372.49 108.378 372.339 111.96 386.816C112.728 388.782 102.203 389.18 101.462 389.717C101.338 392.769 100.817 395.752 99.8976 398.639C113.415 406.242 109.064 402.392 102.519 415.797C101.846 417.79 93.5302 411.328 92.6108 411.26C90.5661 413.514 88.2332 415.467 85.6945 417.089C90.8817 431.304 90.9778 425.888 76.3493 431.978H76.3356ZM72.699 419.893C73.9615 419.357 76.4728 429.077 76.9531 429.627L86.7512 426.053C81.4542 412.538 83.1146 418.532 91.6227 409.266C92.3226 407.726 100.405 413.776 101.242 413.872L106.457 404.826C93.7223 397.869 98.8547 401.402 99.4173 388.837C98.9644 387.201 109.037 386.623 109.737 386.17L107.925 375.872C107.047 375.694 97.4961 378.581 97.3177 376.903C92.4735 365.3 88.8782 370.346 98.4704 359.457L90.4837 352.734C81.4267 364.118 85.7906 359.636 73.5361 356.9C71.8482 357.065 73.0421 347.029 72.699 346.259H62.2697C61.9404 347.084 63.1205 357.024 61.4326 356.9C49.0272 359.636 53.693 364.2 44.485 352.734L36.4984 359.457C46.1043 370.373 42.4678 365.286 37.6373 376.903C37.5001 378.594 27.853 375.68 27.0296 375.872L25.2182 386.17C25.973 386.637 35.9632 387.201 35.5378 388.837C36.1141 401.416 41.2053 397.897 28.498 404.826L33.7126 413.872C46.2964 406.242 40.3407 408.95 51.0582 415.769C52.705 416.195 48.1627 425.214 48.2039 426.053L58.0019 429.627C62.7226 415.59 60.0741 421.653 72.6716 419.893H72.699ZM67.4981 404.289C48.1215 404.729 46.1455 374.607 65.426 372.477C86.1336 369.878 90.1956 401.334 69.5565 404.166C68.8704 404.248 68.1705 404.289 67.4981 404.289ZM67.4844 374.401C48.1627 374.676 50.0839 404.386 69.3095 402.117C86.1062 400.248 84.3634 374.016 67.4844 374.401Z" fill="url(#paint0_linear_1442_9697)"/>
<path d="M21.3356 56.978C20.0731 57.5279 17.4932 47.6018 17.0129 47.0656C14.0076 47.4643 10.9749 47.4643 7.96958 47.0656C2.85099 61.721 5.87001 56.758 -8.44285 52.6336C-10.515 52.3174 -5.61596 42.9962 -5.69829 42.0889C-8.25073 40.4666 -10.5699 38.5144 -12.6146 36.2597C-13.5752 36.3559 -21.8226 42.7763 -22.5224 40.7965C-29.0819 27.3647 -33.4046 31.2417 -19.9014 23.639C-20.8208 20.7519 -21.3423 17.7548 -21.4658 14.7165C-22.2617 14.1666 -32.691 13.7817 -31.9637 11.8157C-28.3683 -2.61974 -34.1868 -2.52351 -18.9545 0.363579C-17.8018 -2.44102 -16.2786 -5.08063 -14.426 -7.48653C-24.5534 -19.2686 -21.699 -14.1956 -11.0365 -24.5066C-9.73279 -26.1564 -4.12018 -17.2339 -3.28309 -16.8489C-0.593428 -18.265 2.26091 -19.2961 5.22503 -19.9422C5.06035 -35.4363 3.81158 -29.7721 18.742 -30.8032C20.8004 -31.2294 19.3732 -20.7809 19.7712 -19.9422C22.7353 -19.2961 25.5896 -18.2512 28.2793 -16.8489C38.0911 -28.8922 33.6174 -25.1802 45.5974 -16.464C47.4363 -15.4604 39.6417 -8.38016 39.4222 -7.48653C41.2748 -5.08063 42.798 -2.44102 43.9507 0.363579C59.183 -2.50976 53.3783 -2.66099 56.9599 11.8157C57.7284 13.7817 47.203 14.1804 46.462 14.7165C46.3385 17.7686 45.817 20.7519 44.8976 23.639C58.4145 31.2417 54.0644 27.3922 47.5186 40.7965C46.8462 42.79 38.5302 36.3284 37.6108 36.2597C35.5661 38.5144 33.2332 40.4666 30.6945 42.0889C35.8817 56.3043 35.9778 50.8876 21.3493 56.978H21.3356ZM17.699 44.8934C18.9615 44.3573 21.4728 54.0771 21.9531 54.6271L31.7512 51.0526C26.4542 37.5383 28.1146 43.5324 36.6227 34.2662C37.3226 32.7264 45.4053 38.7756 46.2424 38.8718L51.4571 29.8256C38.7223 22.8691 43.8547 26.4024 44.4173 13.8367C43.9644 12.2006 54.0369 11.6232 54.7368 11.1695L52.9254 0.872271C52.0471 0.693546 42.4961 3.58064 42.3177 1.90337C37.4735 -9.69996 33.8782 -4.65444 43.4704 -15.5429L35.4837 -22.2657C26.4267 -10.8823 30.7906 -15.3642 18.5361 -18.1C16.8482 -17.935 18.0421 -27.9711 17.699 -28.741H7.26973C6.94038 -27.9161 8.12054 -17.9763 6.43264 -18.1C-5.97275 -15.3642 -1.30702 -10.7998 -10.515 -22.2657L-18.5016 -15.5429C-8.8957 -4.62694 -12.5322 -9.71371 -17.3627 1.90337C-17.4999 3.59438 -27.147 0.679798 -27.9704 0.872271L-29.7818 11.1695C-29.027 11.637 -19.0368 12.2006 -19.4622 13.8367C-18.8859 26.4161 -13.7947 22.8966 -26.502 29.8256L-21.2874 38.8718C-8.70358 31.2417 -14.6593 33.95 -3.94178 40.769C-2.29505 41.1952 -6.83729 50.2139 -6.79612 51.0526L3.00194 54.6271C7.72258 40.5903 5.07408 46.6532 17.6716 44.8934H17.699ZM12.4981 29.2894C-6.87846 29.7294 -8.85453 -0.39255 10.426 -2.52349C31.1336 -5.12187 35.1956 26.3336 14.5565 29.1657C13.8704 29.2482 13.1705 29.2894 12.4981 29.2894ZM12.4844 -0.59878C-6.83728 -0.323818 -4.91609 29.3857 14.3095 27.1173C31.1062 25.2475 29.3634 -0.983725 12.4844 -0.59878Z" fill="url(#paint1_linear_1442_9697)"/>
<path d="M430.697 45.0937C430.264 45.6253 426.856 41.8194 426.521 41.6917C425.281 42.5542 423.938 43.2465 422.517 43.756C423.596 51.4132 423.8 48.5266 416.521 49.9677C415.532 50.3007 415.573 45.0555 415.329 44.6725C413.829 44.5369 412.356 44.202 410.936 43.6704C410.533 43.9323 408.347 48.6576 407.585 47.9408C401.615 43.4912 400.586 46.1945 404.829 39.746C403.763 38.6776 402.848 37.4696 402.1 36.1526C401.622 36.0908 396.916 38.3011 396.79 37.2646C395.086 30.0526 392.532 31.4234 399.935 29.2246C399.806 27.7197 399.877 26.2033 400.148 24.7152C392.975 21.8104 395.397 23.405 397.764 16.4057C397.965 15.3777 402.486 18.047 402.945 18.0263C403.812 16.7854 404.841 15.6773 406.006 14.7146C402.396 7.89216 403.136 10.685 409.511 6.82034C410.325 6.16177 412.078 11.1137 412.446 11.3941C413.906 11.0036 415.408 10.8146 416.919 10.8215C418.514 3.24959 417.381 5.91427 424.675 7.03873C425.718 7.06332 423.883 11.9774 423.99 12.4232C425.359 13.0655 426.636 13.8865 427.787 14.8651C433.875 10.1158 431.27 11.3739 436.161 16.9659C436.95 17.6609 432.381 20.2401 432.175 20.6466C432.817 22.0261 433.267 23.4661 433.519 24.9542C441.239 25.2348 438.435 24.5234 438.596 31.9524C438.754 32.9885 433.597 32.026 433.174 32.2054C432.783 33.6704 432.196 35.0673 431.442 36.3651C436.984 41.4749 435.79 39.0547 430.703 45.0905L430.697 45.0937ZM426.329 40.5733C426.765 40.0477 430.096 43.778 430.434 43.9118L433.956 40.0926C428.526 35.3182 430.63 37.5931 432.281 31.5483C432.24 30.7068 437.199 31.5401 437.592 31.3916L437.836 26.196C430.609 26.023 433.688 26.4157 431.069 20.7238C430.495 20.1028 434.823 17.5479 435.029 17.1873L431.876 13.0416C431.447 13.163 427.877 16.6215 427.415 15.9196C422.622 11.888 422.182 14.9426 423.943 7.93209L418.872 6.77869C417.461 13.8862 418.37 10.9057 412.32 12.4917C411.61 12.95 409.848 8.23402 409.52 7.97146L404.902 10.3522C404.945 10.7926 407.736 14.9241 406.961 15.2546C402.093 19.2977 405.201 20.2535 398.506 17.2789L396.505 22.0786C403.25 24.7189 400.478 23.2968 400.992 29.5429C401.317 30.323 396.38 31.2347 396.06 31.5078L397.608 36.4805C398.049 36.5151 402.601 34.4842 402.786 35.3057C405.913 40.7437 407.363 38.0233 403.319 43.9918L407.693 46.8067C411.523 40.5559 409.504 43.1146 415.806 43.6872C416.632 43.5 416.68 48.5299 416.889 48.8918L422.043 48.2378C420.929 40.9454 421.141 44.2344 426.317 40.5796L426.329 40.5733ZM420.464 34.8518C411.985 39.4697 404.235 26.5842 412.285 21.2396C420.86 15.3622 429.839 28.3619 421.347 34.3272C421.062 34.5203 420.762 34.6983 420.464 34.8518ZM413.635 21.6219C405.143 26.1542 412.776 38.8696 420.77 33.4766C427.78 28.8146 421.021 17.5984 413.635 21.6219Z" fill="url(#paint2_linear_1442_9697)"/>
<path d="M507.619 41.9184C507.389 42.2005 505.58 40.181 505.402 40.1132C504.745 40.5709 504.032 40.9382 503.278 41.2086C503.85 45.2717 503.959 43.74 500.096 44.5047C499.571 44.6814 499.593 41.8981 499.464 41.6949C498.668 41.623 497.886 41.4452 497.133 41.1632C496.919 41.3021 495.759 43.8095 495.355 43.4292C492.187 41.0681 491.641 42.5025 493.892 39.0808C493.327 38.5138 492.841 37.8729 492.444 37.174C492.19 37.1412 489.694 38.3141 489.626 37.7641C488.722 33.9372 487.367 34.6646 491.295 33.4978C491.227 32.6993 491.265 31.8946 491.409 31.105C487.602 29.5637 488.887 30.4098 490.143 26.6958C490.25 26.1503 492.649 27.5667 492.892 27.5557C493.353 26.8973 493.898 26.3093 494.517 25.7984C492.601 22.1783 492.994 23.6603 496.377 21.6095C496.809 21.2601 497.739 23.8877 497.934 24.0365C498.709 23.8293 499.506 23.729 500.308 23.7327C501.154 19.7148 500.552 21.1288 504.423 21.7254C504.976 21.7385 504.003 24.346 504.059 24.5826C504.786 24.9234 505.464 25.359 506.074 25.8783C509.305 23.3582 507.923 24.0258 510.518 26.9931C510.936 27.3618 508.512 28.7304 508.403 28.9461C508.743 29.6781 508.982 30.4422 509.116 31.2319C513.212 31.3807 511.724 31.0033 511.81 34.9453C511.893 35.4951 509.157 34.9843 508.933 35.0795C508.725 35.8569 508.414 36.5981 508.014 37.2868C510.954 39.9982 510.321 38.714 507.622 41.9167L507.619 41.9184ZM505.3 39.5198C505.532 39.2409 507.299 41.2202 507.479 41.2913L509.348 39.2647C506.466 36.7313 507.583 37.9384 508.459 34.7309C508.437 34.2844 511.069 34.7265 511.277 34.6477L511.406 31.8908C507.572 31.799 509.206 32.0074 507.816 28.9871C507.511 28.6576 509.808 27.3019 509.917 27.1105L508.244 24.9107C508.016 24.9751 506.122 26.8103 505.877 26.4379C503.334 24.2986 503.1 25.9194 504.035 22.1995L501.344 21.5874C500.595 25.3589 501.077 23.7773 497.867 24.6189C497.49 24.8621 496.555 22.3597 496.381 22.2204L493.931 23.4836C493.954 23.7173 495.435 25.9096 495.023 26.085C492.44 28.2304 494.089 28.7375 490.537 27.1591L489.475 29.706C493.054 31.107 491.584 30.3524 491.856 33.6668C492.029 34.0807 489.409 34.5644 489.239 34.7094L490.061 37.348C490.295 37.3664 492.71 36.2887 492.808 36.7246C494.467 39.6102 495.237 38.1667 493.091 41.3337L495.412 42.8274C497.444 39.5105 496.373 40.8682 499.717 41.1721C500.155 41.0727 500.18 43.7418 500.292 43.9338L503.027 43.5868C502.435 39.7172 502.548 41.4624 505.294 39.5231L505.3 39.5198ZM502.189 36.4838C497.69 38.9342 493.577 32.0968 497.848 29.2608C502.399 26.1421 507.163 33.0401 502.657 36.2054C502.506 36.3079 502.347 36.4023 502.189 36.4838ZM498.565 29.4636C494.059 31.8686 498.109 38.6157 502.351 35.7541C506.071 33.2803 502.484 27.3287 498.565 29.4636Z" fill="url(#paint3_linear_1442_9697)"/>
<path d="M131.548 469.166C131.086 469.732 127.455 465.678 127.099 465.542C125.778 466.461 124.348 467.198 122.833 467.741C123.983 475.897 124.2 472.823 116.447 474.358C115.393 474.712 115.437 469.125 115.177 468.717C113.579 468.573 112.01 468.216 110.498 467.65C110.068 467.929 107.74 472.962 106.928 472.199C100.568 467.459 99.4723 470.338 103.992 463.469C102.857 462.331 101.882 461.044 101.085 459.641C100.576 459.576 95.5633 461.93 95.4282 460.826C93.6138 453.144 90.893 454.604 98.7791 452.262C98.6408 450.658 98.7173 449.043 99.006 447.458C91.3647 444.364 93.9444 446.062 96.466 438.607C96.6797 437.511 101.496 440.355 101.985 440.333C102.909 439.011 104.004 437.831 105.245 436.805C101.4 429.538 102.188 432.513 108.979 428.396C109.847 427.694 111.714 432.969 112.106 433.268C113.661 432.852 115.261 432.651 116.871 432.658C118.57 424.592 117.362 427.431 125.132 428.629C126.243 428.655 124.289 433.889 124.403 434.364C125.861 435.048 127.222 435.923 128.447 436.965C134.933 431.906 132.158 433.247 137.367 439.203C138.208 439.944 133.341 442.691 133.122 443.124C133.806 444.594 134.285 446.127 134.553 447.713C142.777 448.011 139.789 447.254 139.962 455.167C140.129 456.271 134.636 455.246 134.186 455.437C133.77 456.997 133.144 458.485 132.341 459.868C138.244 465.311 136.972 462.733 131.554 469.162L131.548 469.166ZM126.894 464.351C127.359 463.791 130.907 467.764 131.267 467.907L135.019 463.838C129.235 458.753 131.475 461.176 133.235 454.737C133.191 453.84 138.474 454.728 138.892 454.57L139.151 449.035C131.454 448.851 134.734 449.269 131.943 443.206C131.332 442.545 135.942 439.823 136.162 439.439L132.804 435.023C132.346 435.152 128.543 438.836 128.051 438.089C122.945 433.794 122.477 437.048 124.353 429.58L118.951 428.352C117.448 435.923 118.416 432.748 111.971 434.437C111.215 434.925 109.338 429.902 108.989 429.622L104.07 432.158C104.115 432.627 107.089 437.028 106.263 437.38C101.077 441.687 104.388 442.705 97.2569 439.537L95.1248 444.649C102.31 447.462 99.3576 445.947 99.9043 452.601C100.251 453.432 94.9921 454.403 94.6506 454.694L96.3002 459.991C96.7698 460.028 101.619 457.864 101.816 458.739C105.146 464.532 106.692 461.634 102.383 467.992L107.043 470.991C111.122 464.332 108.972 467.058 115.685 467.668C116.565 467.468 116.616 472.826 116.839 473.212L122.329 472.515C121.142 464.747 121.368 468.25 126.881 464.357L126.894 464.351ZM120.647 458.256C111.615 463.175 103.359 449.449 111.934 443.756C121.068 437.495 130.633 451.343 121.588 457.697C121.284 457.903 120.964 458.092 120.647 458.256ZM113.373 444.163C104.327 448.991 112.457 462.536 120.973 456.791C128.44 451.825 121.24 439.877 113.373 444.163Z" fill="url(#paint4_linear_1442_9697)"/>
<g clip-path="url(#clip1_1442_9697)">
<path d="M407.901 405.536H399.837V408.312H407.901C414.017 408.312 419.006 413.316 419.006 419.451V513.427C419.006 519.562 414.017 524.566 407.901 524.566H399.837V527.342H407.901C415.555 527.342 421.774 521.104 421.774 513.427V419.451C421.774 411.774 415.555 405.536 407.901 405.536Z" fill="#424242"/>
<path d="M499.168 533.819H474.839L479.896 330.616H494.076L499.168 533.819Z" fill="url(#paint5_linear_1442_9697)"/>
<path d="M539.852 541.271L542.518 540.859L526.663 435.505H529.841V428.787H501.378V435.505H504.555L488.701 540.859L491.366 541.271L492.323 534.999H538.827L539.784 541.271H539.852ZM532.813 513.647L515.9 521.084L498.986 513.647H532.848H532.813ZM498.302 511.213L515.695 502.2L533.087 511.213H498.302ZM535.889 514.915L538.281 530.92L518.872 522.386L535.889 514.915ZM518.291 500.829L535.183 492.124L535.069 509.534L518.291 500.829ZM529.807 492.124L515.695 499.458L501.583 492.124H529.841H529.807ZM501.104 489.69L515.626 481.191L530.148 489.69H501.104ZM518.018 479.82L529.601 473.068L531.822 487.874L518.018 479.82ZM526.492 472.074L515.592 478.414L504.692 472.074H526.458H526.492ZM503.769 469.641L515.66 461.792L527.551 469.641H503.769ZM517.847 460.318L526.765 454.423L528.747 467.516L517.847 460.318ZM515.66 458.879L506.913 453.087H524.408L515.66 458.879ZM504.487 454.389L513.439 460.318L502.505 467.55L504.487 454.389ZM501.685 473.102L513.2 479.82L499.464 487.839L501.685 473.102ZM513.063 500.829L496.218 509.603L498.644 493.357L513.063 500.829ZM512.927 522.386L492.972 531.16L495.432 514.709L512.927 522.386ZM515.9 523.689L536.128 532.565H495.671L515.9 523.689ZM523.929 435.539L526.219 450.653H505.068L507.357 435.539H523.964H523.929Z" fill="url(#paint6_linear_1442_9697)"/>
<path d="M360.371 538V382.299C360.371 378.323 363.583 375.102 367.547 375.102C371.51 375.102 374.722 378.323 374.722 382.299V538H360.337H360.371Z" fill="url(#paint7_linear_1442_9697)"/>
<path d="M366.317 393.986V396.762C358.253 399.093 352.341 406.564 352.341 415.406V529.089H349.676V415.406C349.676 405.056 356.749 396.385 366.351 393.952L366.317 393.986Z" fill="url(#paint8_linear_1442_9697)"/>
<path d="M352.341 474.082V481.965H349.676V474.082C349.676 463.731 356.749 455.06 366.351 452.627V455.403C358.287 457.734 352.376 465.205 352.376 474.048L352.341 474.082Z" fill="#424242"/>
<path d="M216.01 460.744V466.331H248.334V460.744H216.01Z" fill="url(#paint9_linear_1442_9697)"/>
<path d="M216.01 538.166V469.244H248.334V538.166H216.01Z" fill="url(#paint10_linear_1442_9697)"/>
<path d="M213.071 538.166V474.419L213.037 474.385C213.037 472.328 212.046 470.546 210.577 469.381V456.734C210.577 453.067 212.798 449.914 215.976 448.577V457.762H248.3V447.069C248.3 442.203 244.371 438.227 239.484 438.227H233.812V434.114C233.812 427.602 228.55 422.324 222.058 422.324H211.568C205.076 422.324 199.814 427.602 199.814 434.114V467.976H196.055C194.039 467.976 192.228 468.935 191.066 470.443C189.016 466.947 185.258 464.583 180.918 464.583H170.428C168.583 464.583 166.84 465.028 165.268 465.782C162.911 465.131 160.485 464.754 157.922 464.754C143.503 464.754 131.714 476.064 130.826 490.321H185.053C184.438 480.314 178.424 471.78 169.881 467.564H170.428H180.918C185.565 467.564 189.358 471.197 189.7 475.79V538.166H213.071Z" fill="url(#paint11_linear_1442_9697)"/>
<path d="M185.121 493.2V499.404H130.757V493.2H185.121Z" fill="url(#paint12_linear_1442_9697)"/>
<path d="M130.723 538.166V502.317H130.757H185.121V538.166H130.723Z" fill="url(#paint13_linear_1442_9697)"/>
<path d="M155.458 473.293C157.85 473.293 160.276 473.67 162.633 474.424C164.342 473.499 166.119 473.053 167.964 473.053H168.579L167.144 412.699H154.843L153.408 473.396C154.091 473.327 154.774 473.259 155.458 473.259V473.293Z" fill="url(#paint14_linear_1442_9697)"/>
<path d="M436.501 492.116H423.517L425.84 323.083H434.177L436.501 492.116Z" fill="url(#paint15_linear_1442_9697)"/>
<path d="M503.883 542.627V532.894H490.557V401.046C490.557 391.895 483.176 384.493 474.053 384.493H473.575C473.78 384.184 473.882 383.841 473.882 383.43V379.557C473.882 378.495 473.028 377.672 472.003 377.672H465.887C464.827 377.672 464.007 378.529 464.007 379.557V383.43C464.007 383.807 464.11 384.184 464.315 384.493H463.905C454.782 384.493 447.401 391.895 447.401 401.046V428.259C441.763 430.041 437.663 435.251 437.663 441.488V482.341H434.143V401.8C434.143 392.649 426.763 385.247 417.639 385.247H417.161C417.366 384.938 417.469 384.595 417.469 384.184V380.311C417.469 379.249 416.614 378.426 415.589 378.426H409.473C408.414 378.426 407.594 379.283 407.594 380.311V384.184C407.594 384.561 407.696 384.938 407.901 385.247H407.491C399.564 385.247 392.935 390.867 391.329 398.339H388.835C381.181 398.339 374.962 404.576 374.962 412.253V443.51L366.009 434.531L355.075 445.498L346.772 437.17V406.667C346.772 398.99 340.553 392.752 332.899 392.752H330.678L328.901 308.339H308.058L305.837 439.946L300.404 434.496L295.415 439.535L293.639 343.125H272.795L270.369 464.794L248.33 487.071V532.894H229.776V542.627H503.986H503.883ZM443.13 441.454C443.13 438.369 444.838 435.696 447.333 434.257V482.307H443.13V441.454ZM380.395 412.219C380.395 407.627 384.119 403.857 388.732 403.857H390.851V421.747H388.732C385.589 421.747 382.718 422.844 380.395 424.592V412.219ZM380.395 435.662C380.395 431.069 384.119 427.299 388.732 427.299H390.851V458.693H390.031L380.395 449.028V435.662ZM344.722 491.972H376.739V498.792H344.722V491.972ZM332.763 398.27C337.341 398.27 341.1 402.006 341.1 406.633V437.375L333.07 445.43L331.635 443.99L330.678 398.27H332.763ZM300.472 491.972H332.489V498.792H300.472V491.972ZM256.223 491.972H288.24V498.792H256.223V491.972Z" fill="url(#paint16_linear_1442_9697)"/>
<path d="M546.222 411.298C545.841 411.766 542.849 408.421 542.554 408.308C541.466 409.067 540.287 409.675 539.039 410.123C539.986 416.853 540.165 414.316 533.774 415.582C532.905 415.875 532.942 411.265 532.728 410.928C531.41 410.809 530.117 410.515 528.871 410.048C528.517 410.278 526.597 414.431 525.928 413.801C520.686 409.89 519.783 412.266 523.508 406.598C522.572 405.659 521.769 404.598 521.112 403.44C520.692 403.386 516.561 405.328 516.449 404.417C514.954 398.079 512.711 399.284 519.211 397.351C519.097 396.028 519.16 394.696 519.398 393.388C513.1 390.835 515.226 392.236 517.305 386.085C517.481 385.181 521.451 387.527 521.854 387.509C522.615 386.418 523.518 385.444 524.541 384.598C521.372 378.602 522.022 381.057 527.619 377.66C528.334 377.081 529.873 381.433 530.196 381.68C531.478 381.337 532.797 381.171 534.124 381.177C535.524 374.522 534.529 376.864 540.933 377.852C541.849 377.874 540.238 382.193 540.332 382.584C541.534 383.149 542.656 383.87 543.666 384.731C549.012 380.556 546.725 381.662 551.019 386.577C551.712 387.188 547.7 389.455 547.519 389.812C548.083 391.024 548.478 392.29 548.699 393.598C555.478 393.844 553.015 393.219 553.157 399.749C553.295 400.659 548.767 399.813 548.396 399.971C548.053 401.259 547.537 402.486 546.876 403.627C551.741 408.118 550.693 405.991 546.227 411.296L546.222 411.298ZM542.386 407.325C542.769 406.864 545.693 410.142 545.99 410.26L549.083 406.903C544.315 402.707 546.162 404.706 547.612 399.393C547.576 398.654 551.93 399.386 552.275 399.256L552.489 394.689C546.144 394.537 548.848 394.882 546.548 389.88C546.044 389.334 549.844 387.088 550.025 386.772L547.257 383.128C546.88 383.235 543.745 386.274 543.34 385.657C539.131 382.114 538.744 384.799 540.291 378.637L535.839 377.623C534.599 383.87 535.398 381.251 530.085 382.645C529.462 383.047 527.915 378.902 527.627 378.672L523.573 380.764C523.61 381.151 526.061 384.782 525.38 385.073C521.106 388.626 523.834 389.466 517.957 386.852L516.199 391.07C522.121 393.391 519.688 392.141 520.139 397.631C520.424 398.316 516.09 399.118 515.808 399.358L517.168 403.728C517.555 403.759 521.552 401.974 521.714 402.696C524.46 407.475 525.733 405.084 522.182 410.33L526.023 412.804C529.385 407.31 527.613 409.559 533.146 410.062C533.872 409.898 533.913 414.319 534.098 414.637L538.623 414.062C537.645 407.653 537.83 410.543 542.375 407.331L542.386 407.325ZM537.236 402.297C529.792 406.356 522.986 395.03 530.054 390.333C537.584 385.167 545.468 396.593 538.012 401.836C537.762 402.006 537.498 402.162 537.236 402.297ZM531.24 390.669C523.784 394.653 530.486 405.828 537.505 401.088C543.66 396.991 537.725 387.133 531.24 390.669Z" fill="url(#paint17_linear_1442_9697)"/>
</g>
</g>
<defs>
<linearGradient id="paint0_linear_1442_9697" x1="23" y1="344" x2="128.636" y2="368.923" gradientUnits="userSpaceOnUse">
<stop stop-color="#5ECAFB"/>
<stop offset="0.365" stop-color="#3B79FF"/>
<stop offset="0.77" stop-color="#9747FF"/>
</linearGradient>
<linearGradient id="paint1_linear_1442_9697" x1="-32" y1="-31" x2="73.6364" y2="-6.07707" gradientUnits="userSpaceOnUse">
<stop stop-color="#5ECAFB"/>
<stop offset="0.365" stop-color="#3B79FF"/>
<stop offset="0.77" stop-color="#9747FF"/>
</linearGradient>
<linearGradient id="paint2_linear_1442_9697" x1="387" y1="18.3162" x2="439.46" y2="5.23707" gradientUnits="userSpaceOnUse">
<stop stop-color="#5ECAFB"/>
<stop offset="0.365" stop-color="#3B79FF"/>
<stop offset="0.77" stop-color="#9747FF"/>
</linearGradient>
<linearGradient id="paint3_linear_1442_9697" x1="484.432" y1="27.7095" x2="512.268" y2="20.7694" gradientUnits="userSpaceOnUse">
<stop stop-color="#5ECAFB"/>
<stop offset="0.365" stop-color="#3B79FF"/>
<stop offset="0.77" stop-color="#9747FF"/>
</linearGradient>
<linearGradient id="paint4_linear_1442_9697" x1="85" y1="440.642" x2="140.882" y2="426.709" gradientUnits="userSpaceOnUse">
<stop stop-color="#5ECAFB"/>
<stop offset="0.365" stop-color="#3B79FF"/>
<stop offset="0.77" stop-color="#9747FF"/>
</linearGradient>
<linearGradient id="paint5_linear_1442_9697" x1="474.839" y1="330.616" x2="505.299" y2="331.466" gradientUnits="userSpaceOnUse">
<stop stop-color="#5ECAFB"/>
<stop offset="0.365" stop-color="#3B79FF"/>
<stop offset="0.77" stop-color="#9747FF"/>
</linearGradient>
<linearGradient id="paint6_linear_1442_9697" x1="488.701" y1="428.787" x2="555.303" y2="436.221" gradientUnits="userSpaceOnUse">
<stop stop-color="#5ECAFB"/>
<stop offset="0.365" stop-color="#3B79FF"/>
<stop offset="0.77" stop-color="#9747FF"/>
</linearGradient>
<linearGradient id="paint7_linear_1442_9697" x1="360.337" y1="375.102" x2="378.354" y2="375.473" gradientUnits="userSpaceOnUse">
<stop stop-color="#5ECAFB"/>
<stop offset="0.365" stop-color="#3B79FF"/>
<stop offset="0.77" stop-color="#9747FF"/>
</linearGradient>
<linearGradient id="paint8_linear_1442_9697" x1="349.676" y1="393.952" x2="370.552" y2="394.553" gradientUnits="userSpaceOnUse">
<stop stop-color="#5ECAFB"/>
<stop offset="0.365" stop-color="#3B79FF"/>
<stop offset="0.77" stop-color="#9747FF"/>
</linearGradient>
<linearGradient id="paint9_linear_1442_9697" x1="130.723" y1="422.324" x2="270.262" y2="455.373" gradientUnits="userSpaceOnUse">
<stop stop-color="#5ECAFB"/>
<stop offset="0.426151" stop-color="#3B79FF"/>
<stop offset="0.874198" stop-color="#3841FF"/>
</linearGradient>
<linearGradient id="paint10_linear_1442_9697" x1="130.723" y1="422.324" x2="270.262" y2="455.373" gradientUnits="userSpaceOnUse">
<stop stop-color="#5ECAFB"/>
<stop offset="0.426151" stop-color="#3B79FF"/>
<stop offset="0.874198" stop-color="#3841FF"/>
</linearGradient>
<linearGradient id="paint11_linear_1442_9697" x1="130.723" y1="422.324" x2="270.262" y2="455.373" gradientUnits="userSpaceOnUse">
<stop stop-color="#5ECAFB"/>
<stop offset="0.426151" stop-color="#3B79FF"/>
<stop offset="0.874198" stop-color="#3841FF"/>
</linearGradient>
<linearGradient id="paint12_linear_1442_9697" x1="130.723" y1="422.324" x2="270.262" y2="455.373" gradientUnits="userSpaceOnUse">
<stop stop-color="#5ECAFB"/>
<stop offset="0.426151" stop-color="#3B79FF"/>
<stop offset="0.874198" stop-color="#3841FF"/>
</linearGradient>
<linearGradient id="paint13_linear_1442_9697" x1="130.723" y1="422.324" x2="270.262" y2="455.373" gradientUnits="userSpaceOnUse">
<stop stop-color="#5ECAFB"/>
<stop offset="0.426151" stop-color="#3B79FF"/>
<stop offset="0.874198" stop-color="#3841FF"/>
</linearGradient>
<linearGradient id="paint14_linear_1442_9697" x1="153.408" y1="412.699" x2="172.355" y2="413.785" gradientUnits="userSpaceOnUse">
<stop stop-color="#5ECAFB"/>
<stop offset="0.426151" stop-color="#3B79FF"/>
<stop offset="0.874198" stop-color="#3841FF"/>
</linearGradient>
<linearGradient id="paint15_linear_1442_9697" x1="423.517" y1="323.083" x2="439.781" y2="323.374" gradientUnits="userSpaceOnUse">
<stop stop-color="#5ECAFB"/>
<stop offset="0.365" stop-color="#3B79FF"/>
<stop offset="0.77" stop-color="#9747FF"/>
</linearGradient>
<linearGradient id="paint16_linear_1442_9697" x1="229.776" y1="308.339" x2="549.523" y2="395.639" gradientUnits="userSpaceOnUse">
<stop stop-color="#5ECAFB"/>
<stop offset="0.365" stop-color="#3B79FF"/>
<stop offset="0.77" stop-color="#9747FF"/>
</linearGradient>
<linearGradient id="paint17_linear_1442_9697" x1="507.854" y1="387.764" x2="553.921" y2="376.29" gradientUnits="userSpaceOnUse">
<stop stop-color="#5ECAFB"/>
<stop offset="0.365" stop-color="#3B79FF"/>
<stop offset="0.77" stop-color="#9747FF"/>
</linearGradient>
<clipPath id="clip0_1442_9697">
<rect width="540" height="498" rx="14" fill="white"/>
</clipPath>
<clipPath id="clip1_1442_9697">
<rect width="455" height="250" fill="white" transform="translate(85 294)"/>
</clipPath>
</defs>
</svg>
