<svg width="300" height="583" viewBox="0 0 300 583" fill="none" xmlns="http://www.w3.org/2000/svg">
<g clip-path="url(#clip0_1442_9763)">
<rect width="300" height="583" rx="14" fill="#F7F7F7"/>
<path d="M11.1479 39.9822C10.1265 40.4259 8.03944 32.4174 7.65089 31.9848C5.21965 32.3064 2.76619 32.3064 0.334942 31.9848C-3.80594 43.809 -1.36359 39.8047 -12.9425 36.4771C-14.6189 36.222 -10.6556 28.7015 -10.7222 27.9694C-12.7871 26.6605 -14.6633 25.0854 -16.3174 23.2663C-17.0945 23.344 -23.7666 28.524 -24.3328 26.9268C-29.6393 16.0897 -33.1363 19.2177 -22.2123 13.0837C-22.9562 10.7544 -23.378 8.33629 -23.4779 5.88493C-24.1218 5.44124 -32.559 5.13066 -31.9706 3.54448C-29.062 -8.10229 -33.7691 -8.02465 -21.4463 -5.69529C-20.5138 -7.9581 -19.2815 -10.0878 -17.7828 -12.0289C-25.9758 -21.5349 -23.6666 -17.4419 -15.0407 -25.761C-13.9861 -27.0921 -9.44554 -19.8932 -8.76834 -19.5827C-6.59244 -20.7252 -4.28331 -21.5571 -1.88537 -22.0784C-2.01859 -34.5793 -3.02883 -30.0093 9.04968 -30.8412C10.7149 -31.1851 9.56035 -22.755 9.8823 -22.0784C12.2802 -21.5571 14.5894 -20.7141 16.7653 -19.5827C24.7029 -29.2994 21.0838 -26.3045 30.7754 -19.2721C32.2631 -18.4624 25.9574 -12.7499 25.7797 -12.0289C27.2785 -10.0878 28.5107 -7.9581 29.4433 -5.69529C41.766 -8.01356 37.0701 -8.13557 39.9676 3.54448C40.5893 5.13066 32.0743 5.45233 31.4749 5.88493C31.3749 8.34739 30.9531 10.7544 30.2093 13.0837C41.1443 19.2177 37.6251 16.1119 32.3297 26.9268C31.7857 28.5351 25.0581 23.3218 24.3143 23.2663C22.6602 25.0854 20.7729 26.6605 18.7192 27.9694C22.9156 39.4387 22.9932 35.0684 11.159 39.9822H11.1479ZM8.20597 30.2322C9.22731 29.7996 11.2589 37.6418 11.6474 38.0855L19.574 35.2015C15.2888 24.2979 16.6321 29.1341 23.515 21.658C24.0812 20.4157 30.62 25.2962 31.2972 25.3739L35.5158 18.0752C25.2136 12.4626 29.3656 15.3133 29.8207 5.17503C29.4544 3.85506 37.6029 3.38918 38.1691 3.02314L36.7037 -5.28487C35.9932 -5.42907 28.2665 -3.09972 28.1222 -4.45296C24.2033 -13.8147 21.2947 -9.74392 29.0547 -18.5289L22.5936 -23.953C15.2666 -14.7687 18.7969 -18.3847 8.88316 -20.5921C7.51767 -20.459 8.48351 -28.5562 8.20597 -29.1774H-0.231234C-0.497671 -28.5119 0.457066 -20.4922 -0.90843 -20.5921C-10.9443 -18.3847 -7.16972 -14.7021 -14.6189 -23.953L-21.08 -18.5289C-13.3089 -9.72174 -16.2508 -13.8258 -20.1586 -4.45296C-20.2696 -3.08862 -28.074 -5.44016 -28.7401 -5.28487L-30.2055 3.02314C-29.5949 3.40028 -21.5129 3.85506 -21.8571 5.17503C-21.3908 15.3244 -17.2721 12.4848 -27.5522 18.0752L-23.3336 25.3739C-13.1535 19.2177 -17.9715 21.4029 -9.30122 26.9046C-7.96903 27.2484 -11.6436 34.5249 -11.6103 35.2015L-3.68382 38.0855C0.135117 26.7604 -2.00748 31.652 8.18376 30.2322H8.20597ZM3.99846 17.6426C-11.677 17.9976 -13.2756 -6.30535 2.32213 -8.02464C19.0744 -10.1211 22.3605 15.2578 5.6637 17.5428C5.10862 17.6093 4.54244 17.6426 3.99846 17.6426ZM3.98737 -6.47174C-11.6436 -6.2499 -10.0894 17.7203 5.46388 15.8901C19.0522 14.3815 17.6423 -6.78232 3.98737 -6.47174Z" fill="url(#paint0_linear_1442_9763)"/>
<path d="M131.548 469.166C131.086 469.732 127.455 465.678 127.099 465.542C125.778 466.461 124.348 467.198 122.833 467.741C123.983 475.897 124.2 472.823 116.447 474.358C115.393 474.712 115.437 469.125 115.177 468.717C113.579 468.573 112.01 468.216 110.498 467.65C110.068 467.929 107.74 472.962 106.928 472.199C100.568 467.459 99.4723 470.338 103.992 463.469C102.857 462.331 101.882 461.044 101.085 459.641C100.576 459.576 95.5633 461.93 95.4282 460.826C93.6138 453.144 90.893 454.604 98.7791 452.262C98.6408 450.658 98.7173 449.043 99.006 447.458C91.3647 444.364 93.9444 446.062 96.466 438.607C96.6797 437.511 101.496 440.355 101.985 440.333C102.909 439.011 104.004 437.831 105.245 436.805C101.4 429.538 102.188 432.513 108.979 428.396C109.847 427.694 111.714 432.969 112.106 433.268C113.661 432.852 115.261 432.651 116.871 432.658C118.57 424.592 117.362 427.431 125.132 428.629C126.243 428.655 124.289 433.889 124.403 434.364C125.861 435.048 127.222 435.923 128.447 436.965C134.933 431.906 132.158 433.247 137.367 439.203C138.208 439.944 133.341 442.691 133.122 443.124C133.806 444.594 134.285 446.127 134.553 447.713C142.777 448.011 139.789 447.254 139.962 455.167C140.129 456.271 134.636 455.246 134.186 455.437C133.77 456.997 133.144 458.485 132.341 459.868C138.244 465.311 136.972 462.733 131.554 469.162L131.548 469.166ZM126.894 464.351C127.359 463.791 130.907 467.764 131.267 467.907L135.019 463.838C129.235 458.753 131.475 461.176 133.235 454.737C133.191 453.84 138.474 454.728 138.892 454.57L139.151 449.035C131.454 448.851 134.734 449.269 131.943 443.206C131.332 442.545 135.942 439.823 136.162 439.439L132.804 435.023C132.346 435.152 128.543 438.836 128.051 438.089C122.945 433.794 122.477 437.048 124.353 429.58L118.951 428.352C117.448 435.923 118.416 432.748 111.971 434.437C111.215 434.925 109.338 429.902 108.989 429.622L104.07 432.158C104.115 432.627 107.089 437.028 106.263 437.38C101.077 441.687 104.388 442.705 97.2569 439.537L95.1248 444.649C102.31 447.462 99.3576 445.947 99.9043 452.601C100.251 453.432 94.9921 454.403 94.6506 454.694L96.3002 459.991C96.7698 460.028 101.619 457.864 101.816 458.739C105.146 464.532 106.692 461.634 102.383 467.992L107.043 470.991C111.122 464.332 108.972 467.058 115.685 467.668C116.565 467.468 116.616 472.826 116.839 473.212L122.329 472.515C121.142 464.747 121.368 468.25 126.881 464.357L126.894 464.351ZM120.647 458.256C111.615 463.175 103.359 449.449 111.934 443.756C121.068 437.495 130.633 451.343 121.588 457.697C121.284 457.903 120.964 458.092 120.647 458.256ZM113.373 444.163C104.327 448.991 112.457 462.536 120.973 456.791C128.44 451.825 121.24 439.877 113.373 444.163Z" fill="url(#paint1_linear_1442_9763)"/>
<g clip-path="url(#clip1_1442_9763)">
<path d="M216.193 492.614H210.894V494.446H216.193C220.212 494.446 223.49 497.749 223.49 501.798V563.822C223.49 567.871 220.212 571.173 216.193 571.173H210.894V573.006H216.193C221.222 573.006 225.309 568.889 225.309 563.822V501.798C225.309 496.731 221.222 492.614 216.193 492.614Z" fill="#424242"/>
<path d="M276.168 577.281H260.181L263.504 443.166H272.822L276.168 577.281Z" fill="url(#paint2_linear_1442_9763)"/>
<path d="M302.904 582.199L304.655 581.927L294.237 512.393H296.325V507.96H277.621V512.393H279.709L269.29 581.927L271.041 582.199L271.67 578.059H302.23L302.859 582.199H302.904ZM298.278 563.967L287.164 568.875L276.049 563.967H298.301H298.278ZM275.6 562.361L287.029 556.412L298.458 562.361H275.6ZM300.299 564.804L301.871 575.367L289.117 569.735L300.299 564.804ZM288.735 555.507L299.836 549.762L299.76 561.253L288.735 555.507ZM296.302 549.762L287.029 554.602L277.755 549.762H296.325H296.302ZM277.441 548.156L286.984 542.546L296.527 548.156H277.441ZM288.556 541.641L296.168 537.185L297.627 546.957L288.556 541.641ZM294.124 536.529L286.961 540.714L279.799 536.529H294.102H294.124ZM279.192 534.923L287.006 529.743L294.82 534.923H279.192ZM288.443 528.77L294.304 524.88L295.606 533.52L288.443 528.77ZM287.006 527.82L281.258 523.997H292.755L287.006 527.82ZM279.664 524.857L285.547 528.77L278.362 533.543L279.664 524.857ZM277.823 537.207L285.39 541.641L276.363 546.934L277.823 537.207ZM285.3 555.507L274.23 561.298L275.824 550.576L285.3 555.507ZM285.21 569.735L272.097 575.526L273.714 564.668L285.21 569.735ZM287.164 570.595L300.456 576.453H273.871L287.164 570.595ZM292.44 512.416L293.945 522.391H280.046L281.55 512.416H292.463H292.44Z" fill="url(#paint3_linear_1442_9763)"/>
<path d="M184.959 580.04V477.277C184.959 474.653 187.07 472.527 189.674 472.527C192.279 472.527 194.39 474.653 194.39 477.277V580.04H184.937H184.959Z" fill="url(#paint4_linear_1442_9763)"/>
<path d="M188.866 484.991V486.823C183.567 488.361 179.682 493.292 179.682 499.128V574.159H177.931V499.128C177.931 492.297 182.579 486.574 188.888 484.968L188.866 484.991Z" fill="url(#paint5_linear_1442_9763)"/>
<path d="M179.682 537.854V543.057H177.931V537.854C177.931 531.023 182.579 525.3 188.888 523.694V525.526C183.589 527.064 179.705 531.996 179.705 537.831L179.682 537.854Z" fill="#424242"/>
<path d="M146.517 576.466H4V583.094H146.517V576.466Z" fill="url(#paint6_linear_1442_9763)"/>
<path d="M90.0926 529.051V532.738H111.334V529.051H90.0926Z" fill="url(#paint7_linear_1442_9763)"/>
<path d="M90.0926 580.15V534.661H111.334V580.15H90.0926Z" fill="url(#paint8_linear_1442_9763)"/>
<path d="M88.1615 580.15V538.077L88.139 538.054C88.139 536.697 87.4879 535.52 86.5223 534.751V526.405C86.5223 523.984 87.9819 521.903 90.0701 521.021V527.083H111.312V520.026C111.312 516.814 108.73 514.19 105.519 514.19H101.791V511.475C101.791 507.178 98.3333 503.694 94.067 503.694H87.1735C82.9072 503.694 79.4493 507.178 79.4493 511.475V533.824H76.9793C75.6545 533.824 74.4644 534.457 73.701 535.453C72.3537 533.145 69.8838 531.585 67.0321 531.585H60.1387C58.9261 531.585 57.781 531.879 56.7481 532.376C55.1987 531.946 53.6045 531.698 51.9204 531.698C42.4447 531.698 34.698 539.162 34.1142 548.572H69.7491C69.3449 541.967 65.3929 536.335 59.7794 533.553H60.1387H67.0321C70.0859 533.553 72.5783 535.95 72.8028 538.981V580.15H88.1615Z" fill="url(#paint9_linear_1442_9763)"/>
<path d="M69.794 550.472V554.567H34.0693V550.472H69.794Z" fill="url(#paint10_linear_1442_9763)"/>
<path d="M34.0469 580.15V556.489H34.0693H69.794V580.15H34.0469Z" fill="url(#paint11_linear_1442_9763)"/>
<path d="M50.3014 537.333C51.8731 537.333 53.4674 537.582 55.0167 538.08C56.1394 537.469 57.3071 537.175 58.5196 537.175H58.9238L57.9807 497.341H49.8972L48.9541 537.401C49.4032 537.356 49.8523 537.311 50.3014 537.311V537.333Z" fill="url(#paint12_linear_1442_9763)"/>
<path d="M234.987 549.757H226.454L227.981 438.195H233.46L234.987 549.757Z" fill="url(#paint13_linear_1442_9763)"/>
<path d="M279.266 583.094V576.67H270.509V489.651C270.509 483.611 265.659 478.725 259.664 478.725H259.349C259.484 478.522 259.551 478.295 259.551 478.024V475.468C259.551 474.767 258.99 474.224 258.317 474.224H254.297C253.601 474.224 253.062 474.789 253.062 475.468V478.024C253.062 478.273 253.13 478.522 253.264 478.725H252.995C247 478.725 242.149 483.611 242.149 489.651V507.611C238.445 508.787 235.75 512.225 235.75 516.342V543.305H233.437V490.148C233.437 484.109 228.587 479.223 222.592 479.223H222.278C222.412 479.019 222.48 478.793 222.48 478.522V475.965C222.48 475.264 221.918 474.721 221.245 474.721H217.225C216.529 474.721 215.99 475.287 215.99 475.965V478.522C215.99 478.77 216.058 479.019 216.192 479.223H215.923C210.714 479.223 206.357 482.932 205.302 487.864H203.663C198.633 487.864 194.547 491.98 194.547 497.047V517.677L188.664 511.75L181.478 518.989L176.022 513.492V493.36C176.022 488.293 171.935 484.177 166.905 484.177H165.446L164.278 428.463H150.581L149.122 515.324L145.552 511.728L142.273 515.053L141.106 451.423H127.409L125.814 531.724L111.331 546.427V576.67H99.1387V583.094H279.334H279.266ZM239.343 516.32C239.343 514.284 240.465 512.519 242.105 511.569V543.283H239.343V516.32ZM198.117 497.025C198.117 493.994 200.564 491.505 203.596 491.505H204.988V503.313H203.596C201.53 503.313 199.644 504.037 198.117 505.191V497.025ZM198.117 512.497C198.117 509.466 200.564 506.978 203.596 506.978H204.988V527.697H204.449L198.117 521.319V512.497ZM174.675 549.662H195.714V554.163H174.675V549.662ZM166.816 487.818C169.825 487.818 172.294 490.284 172.294 493.338V513.628L167.018 518.944L166.075 517.993L165.446 487.818H166.816ZM145.596 549.662H166.636V554.163H145.596V549.662ZM116.518 549.662H137.558V554.163H116.518V549.662Z" fill="url(#paint14_linear_1442_9763)"/>
<path d="M307.088 496.417C306.838 496.725 304.872 494.518 304.678 494.444C303.963 494.944 303.188 495.345 302.368 495.641C302.991 500.083 303.108 498.408 298.909 499.244C298.338 499.437 298.361 496.395 298.221 496.173C297.355 496.094 296.506 495.9 295.686 495.591C295.454 495.743 294.192 498.484 293.753 498.069C290.308 495.487 289.714 497.056 292.162 493.315C291.547 492.695 291.019 491.994 290.588 491.23C290.312 491.195 287.597 492.477 287.524 491.876C286.541 487.692 285.067 488.487 289.339 487.212C289.264 486.339 289.305 485.459 289.462 484.596C285.323 482.911 286.72 483.836 288.086 479.776C288.202 479.18 290.811 480.728 291.075 480.716C291.576 479.996 292.169 479.353 292.841 478.795C290.758 474.837 291.185 476.457 294.864 474.216C295.334 473.834 296.345 476.706 296.557 476.869C297.4 476.642 298.266 476.533 299.138 476.537C300.059 472.144 299.405 473.69 303.613 474.342C304.215 474.357 303.156 477.207 303.218 477.466C304.008 477.838 304.745 478.314 305.409 478.882C308.922 476.127 307.419 476.857 310.241 480.101C310.696 480.504 308.06 482 307.941 482.236C308.311 483.036 308.571 483.871 308.716 484.735C313.171 484.897 311.553 484.485 311.646 488.794C311.737 489.395 308.761 488.837 308.517 488.941C308.292 489.791 307.953 490.601 307.518 491.354C310.716 494.318 310.027 492.914 307.092 496.415L307.088 496.417ZM304.568 493.795C304.819 493.49 306.741 495.654 306.936 495.731L308.969 493.516C305.835 490.747 307.049 492.066 308.002 488.56C307.978 488.072 310.84 488.555 311.066 488.469L311.207 485.455C307.037 485.355 308.814 485.582 307.303 482.281C306.971 481.92 309.469 480.438 309.588 480.229L307.769 477.824C307.521 477.895 305.461 479.901 305.195 479.494C302.429 477.155 302.175 478.927 303.191 474.861L300.265 474.191C299.451 478.314 299.975 476.585 296.484 477.505C296.075 477.771 295.058 475.036 294.869 474.883L292.205 476.264C292.229 476.52 293.84 478.916 293.392 479.108C290.584 481.453 292.377 482.008 288.514 480.282L287.359 483.066C291.251 484.598 289.652 483.773 289.948 487.396C290.136 487.849 287.287 488.378 287.102 488.536L287.996 491.421C288.25 491.441 290.877 490.263 290.984 490.739C292.788 493.894 293.625 492.316 291.291 495.778L293.815 497.411C296.024 493.785 294.86 495.269 298.496 495.601C298.973 495.493 299 498.41 299.121 498.62L302.095 498.241C301.452 494.011 301.574 495.919 304.561 493.798L304.568 493.795ZM301.184 490.476C296.292 493.155 291.819 485.68 296.464 482.58C301.412 479.17 306.593 486.711 301.693 490.172C301.529 490.284 301.355 490.387 301.184 490.476ZM297.244 482.802C292.344 485.431 296.748 492.807 301.36 489.678C305.405 486.974 301.505 480.468 297.244 482.802Z" fill="url(#paint15_linear_1442_9763)"/>
</g>
</g>
<defs>
<linearGradient id="paint0_linear_1442_9763" x1="-32" y1="-31" x2="53.4344" y2="-10.7891" gradientUnits="userSpaceOnUse">
<stop stop-color="#5ECAFB"/>
<stop offset="0.365" stop-color="#3B79FF"/>
<stop offset="0.77" stop-color="#9747FF"/>
</linearGradient>
<linearGradient id="paint1_linear_1442_9763" x1="85" y1="440.642" x2="140.882" y2="426.709" gradientUnits="userSpaceOnUse">
<stop stop-color="#5ECAFB"/>
<stop offset="0.365" stop-color="#3B79FF"/>
<stop offset="0.77" stop-color="#9747FF"/>
</linearGradient>
<linearGradient id="paint2_linear_1442_9763" x1="260.181" y1="443.166" x2="280.197" y2="443.723" gradientUnits="userSpaceOnUse">
<stop stop-color="#5ECAFB"/>
<stop offset="0.365" stop-color="#3B79FF"/>
<stop offset="0.77" stop-color="#9747FF"/>
</linearGradient>
<linearGradient id="paint3_linear_1442_9763" x1="269.29" y1="507.96" x2="313.062" y2="512.824" gradientUnits="userSpaceOnUse">
<stop stop-color="#5ECAFB"/>
<stop offset="0.365" stop-color="#3B79FF"/>
<stop offset="0.77" stop-color="#9747FF"/>
</linearGradient>
<linearGradient id="paint4_linear_1442_9763" x1="184.937" y1="472.527" x2="196.776" y2="472.77" gradientUnits="userSpaceOnUse">
<stop stop-color="#5ECAFB"/>
<stop offset="0.365" stop-color="#3B79FF"/>
<stop offset="0.77" stop-color="#9747FF"/>
</linearGradient>
<linearGradient id="paint5_linear_1442_9763" x1="177.931" y1="484.968" x2="191.649" y2="485.361" gradientUnits="userSpaceOnUse">
<stop stop-color="#5ECAFB"/>
<stop offset="0.365" stop-color="#3B79FF"/>
<stop offset="0.77" stop-color="#9747FF"/>
</linearGradient>
<linearGradient id="paint6_linear_1442_9763" x1="4" y1="576.466" x2="10.8253" y2="610.704" gradientUnits="userSpaceOnUse">
<stop stop-color="#5ECAFB"/>
<stop offset="0.426151" stop-color="#3B79FF"/>
<stop offset="0.874198" stop-color="#3841FF"/>
</linearGradient>
<linearGradient id="paint7_linear_1442_9763" x1="34.0469" y1="503.694" x2="125.786" y2="525.328" gradientUnits="userSpaceOnUse">
<stop stop-color="#5ECAFB"/>
<stop offset="0.426151" stop-color="#3B79FF"/>
<stop offset="0.874198" stop-color="#3841FF"/>
</linearGradient>
<linearGradient id="paint8_linear_1442_9763" x1="34.0469" y1="503.694" x2="125.786" y2="525.328" gradientUnits="userSpaceOnUse">
<stop stop-color="#5ECAFB"/>
<stop offset="0.426151" stop-color="#3B79FF"/>
<stop offset="0.874198" stop-color="#3841FF"/>
</linearGradient>
<linearGradient id="paint9_linear_1442_9763" x1="34.0469" y1="503.694" x2="125.786" y2="525.328" gradientUnits="userSpaceOnUse">
<stop stop-color="#5ECAFB"/>
<stop offset="0.426151" stop-color="#3B79FF"/>
<stop offset="0.874198" stop-color="#3841FF"/>
</linearGradient>
<linearGradient id="paint10_linear_1442_9763" x1="34.0469" y1="503.694" x2="125.786" y2="525.328" gradientUnits="userSpaceOnUse">
<stop stop-color="#5ECAFB"/>
<stop offset="0.426151" stop-color="#3B79FF"/>
<stop offset="0.874198" stop-color="#3841FF"/>
</linearGradient>
<linearGradient id="paint11_linear_1442_9763" x1="34.0469" y1="503.694" x2="125.786" y2="525.328" gradientUnits="userSpaceOnUse">
<stop stop-color="#5ECAFB"/>
<stop offset="0.426151" stop-color="#3B79FF"/>
<stop offset="0.874198" stop-color="#3841FF"/>
</linearGradient>
<linearGradient id="paint12_linear_1442_9763" x1="48.9541" y1="497.341" x2="61.4055" y2="498.052" gradientUnits="userSpaceOnUse">
<stop stop-color="#5ECAFB"/>
<stop offset="0.426151" stop-color="#3B79FF"/>
<stop offset="0.874198" stop-color="#3841FF"/>
</linearGradient>
<linearGradient id="paint13_linear_1442_9763" x1="226.454" y1="438.195" x2="237.142" y2="438.385" gradientUnits="userSpaceOnUse">
<stop stop-color="#5ECAFB"/>
<stop offset="0.365" stop-color="#3B79FF"/>
<stop offset="0.77" stop-color="#9747FF"/>
</linearGradient>
<linearGradient id="paint14_linear_1442_9763" x1="99.1387" y1="428.463" x2="309.385" y2="485.618" gradientUnits="userSpaceOnUse">
<stop stop-color="#5ECAFB"/>
<stop offset="0.365" stop-color="#3B79FF"/>
<stop offset="0.77" stop-color="#9747FF"/>
</linearGradient>
<linearGradient id="paint15_linear_1442_9763" x1="281.875" y1="480.884" x2="312.163" y2="473.373" gradientUnits="userSpaceOnUse">
<stop stop-color="#5ECAFB"/>
<stop offset="0.365" stop-color="#3B79FF"/>
<stop offset="0.77" stop-color="#9747FF"/>
</linearGradient>
<clipPath id="clip0_1442_9763">
<rect width="300" height="583" rx="14" fill="white"/>
</clipPath>
<clipPath id="clip1_1442_9763">
<rect width="299" height="165" fill="white" transform="translate(4 419)"/>
</clipPath>
</defs>
</svg>
