<svg width="960" height="435" viewBox="0 0 960 435" fill="none" xmlns="http://www.w3.org/2000/svg">
<g clip-path="url(#clip0_1442_9630)">
<rect width="960" height="435" rx="14" fill="#F7F7F7"/>
<path d="M183.336 487.978C182.073 488.528 179.493 478.602 179.013 478.066C176.008 478.464 172.975 478.464 169.97 478.066C164.851 492.721 167.87 487.758 153.557 483.634C151.485 483.317 156.384 473.996 156.302 473.089C153.749 471.467 151.43 469.514 149.385 467.26C148.425 467.356 140.177 473.776 139.478 471.797C132.918 458.365 128.595 462.242 142.099 454.639C141.179 451.752 140.658 448.755 140.534 445.717C139.738 445.167 129.309 444.782 130.036 442.816C133.632 428.38 127.813 428.476 143.046 431.364C144.198 428.559 145.721 425.919 147.574 423.513C137.447 411.731 140.301 416.804 150.964 406.493C152.267 404.844 157.88 413.766 158.717 414.151C161.407 412.735 164.261 411.704 167.225 411.058C167.06 395.564 165.812 401.228 180.742 400.197C182.8 399.771 181.373 410.219 181.771 411.058C184.735 411.704 187.59 412.749 190.279 414.151C200.091 402.108 195.617 405.82 207.597 414.536C209.436 415.54 201.642 422.62 201.422 423.513C203.275 425.919 204.798 428.559 205.951 431.364C221.183 428.49 215.378 428.339 218.96 442.816C219.728 444.782 209.203 445.18 208.462 445.717C208.338 448.769 207.817 451.752 206.898 454.639C220.415 462.242 216.064 458.392 209.519 471.797C208.846 473.79 200.53 467.328 199.611 467.26C197.566 469.514 195.233 471.467 192.695 473.089C197.882 487.304 197.978 481.888 183.349 487.978H183.336ZM179.699 475.893C180.962 475.357 183.473 485.077 183.953 485.627L193.751 482.053C188.454 468.538 190.115 474.532 198.623 465.266C199.323 463.726 207.405 469.776 208.242 469.872L213.457 460.826C200.722 453.869 205.855 457.402 206.417 444.837C205.964 443.201 216.037 442.623 216.737 442.17L214.925 431.872C214.047 431.694 204.496 434.581 204.318 432.903C199.474 421.3 195.878 426.346 205.47 415.457L197.484 408.734C188.427 420.118 192.791 415.636 180.536 412.9C178.848 413.065 180.042 403.029 179.699 402.259H169.27C168.94 403.084 170.121 413.024 168.433 412.9C156.027 415.636 160.693 420.2 151.485 408.734L143.498 415.457C153.104 426.373 149.468 421.286 144.637 432.903C144.5 434.594 134.853 431.68 134.03 431.872L132.218 442.17C132.973 442.637 142.963 443.201 142.538 444.837C143.114 457.416 148.205 453.897 135.498 460.826L140.713 469.872C153.296 462.242 147.341 464.95 158.058 471.769C159.705 472.195 155.163 481.214 155.204 482.053L165.002 485.627C169.723 471.59 167.074 477.653 179.672 475.893H179.699ZM174.498 460.289C155.122 460.729 153.145 430.607 172.426 428.477C193.134 425.878 197.196 457.334 176.557 460.166C175.87 460.248 175.171 460.289 174.498 460.289ZM174.484 430.401C155.163 430.676 157.084 460.386 176.31 458.117C193.106 456.248 191.363 430.016 174.484 430.401Z" fill="url(#paint0_linear_1442_9630)"/>
<path d="M21.3356 56.978C20.0731 57.5279 17.4932 47.6018 17.0129 47.0656C14.0076 47.4643 10.9749 47.4643 7.96958 47.0656C2.85099 61.721 5.87001 56.758 -8.44285 52.6336C-10.515 52.3174 -5.61596 42.9962 -5.69829 42.0889C-8.25073 40.4666 -10.5699 38.5144 -12.6146 36.2597C-13.5752 36.3559 -21.8226 42.7763 -22.5224 40.7965C-29.0819 27.3647 -33.4046 31.2417 -19.9014 23.639C-20.8208 20.7519 -21.3423 17.7548 -21.4658 14.7165C-22.2617 14.1666 -32.691 13.7817 -31.9637 11.8157C-28.3683 -2.61974 -34.1868 -2.52351 -18.9545 0.363579C-17.8018 -2.44102 -16.2786 -5.08063 -14.426 -7.48653C-24.5534 -19.2686 -21.699 -14.1956 -11.0365 -24.5066C-9.73279 -26.1564 -4.12018 -17.2339 -3.28309 -16.8489C-0.593428 -18.265 2.26091 -19.2961 5.22503 -19.9422C5.06035 -35.4363 3.81158 -29.7721 18.742 -30.8032C20.8004 -31.2294 19.3732 -20.7809 19.7712 -19.9422C22.7353 -19.2961 25.5896 -18.2512 28.2793 -16.8489C38.0911 -28.8922 33.6174 -25.1802 45.5974 -16.464C47.4363 -15.4604 39.6417 -8.38016 39.4222 -7.48653C41.2748 -5.08063 42.798 -2.44102 43.9507 0.363579C59.183 -2.50976 53.3783 -2.66099 56.9599 11.8157C57.7284 13.7817 47.203 14.1804 46.462 14.7165C46.3385 17.7686 45.817 20.7519 44.8976 23.639C58.4145 31.2417 54.0644 27.3922 47.5186 40.7965C46.8462 42.79 38.5302 36.3284 37.6108 36.2597C35.5661 38.5144 33.2332 40.4666 30.6945 42.0889C35.8817 56.3043 35.9778 50.8876 21.3493 56.978H21.3356ZM17.699 44.8934C18.9615 44.3573 21.4728 54.0771 21.9531 54.6271L31.7512 51.0526C26.4542 37.5383 28.1146 43.5324 36.6227 34.2662C37.3226 32.7264 45.4053 38.7756 46.2424 38.8718L51.4571 29.8256C38.7223 22.8691 43.8547 26.4024 44.4173 13.8367C43.9644 12.2006 54.0369 11.6232 54.7368 11.1695L52.9254 0.872271C52.0471 0.693546 42.4961 3.58064 42.3177 1.90337C37.4735 -9.69996 33.8782 -4.65444 43.4704 -15.5429L35.4837 -22.2657C26.4267 -10.8823 30.7906 -15.3642 18.5361 -18.1C16.8482 -17.935 18.0421 -27.9711 17.699 -28.741H7.26973C6.94038 -27.9161 8.12054 -17.9763 6.43264 -18.1C-5.97275 -15.3642 -1.30702 -10.7998 -10.515 -22.2657L-18.5016 -15.5429C-8.8957 -4.62694 -12.5322 -9.71371 -17.3627 1.90337C-17.4999 3.59438 -27.147 0.679798 -27.9704 0.872271L-29.7818 11.1695C-29.027 11.637 -19.0368 12.2006 -19.4622 13.8367C-18.8859 26.4161 -13.7947 22.8966 -26.502 29.8256L-21.2874 38.8718C-8.70358 31.2417 -14.6593 33.95 -3.94178 40.769C-2.29505 41.1952 -6.83729 50.2139 -6.79612 51.0526L3.00194 54.6271C7.72258 40.5903 5.07408 46.6532 17.6716 44.8934H17.699ZM12.4981 29.2894C-6.87846 29.7294 -8.85453 -0.39255 10.426 -2.52349C31.1336 -5.12187 35.1956 26.3336 14.5565 29.1657C13.8704 29.2482 13.1705 29.2894 12.4981 29.2894ZM12.4844 -0.59878C-6.83728 -0.323818 -4.91609 29.3857 14.3095 27.1173C31.1062 25.2475 29.3634 -0.983725 12.4844 -0.59878Z" fill="url(#paint1_linear_1442_9630)"/>
<path d="M790.722 55.5401C789.852 56.6074 783.01 48.9671 782.338 48.7106C779.849 50.4422 777.154 51.832 774.3 52.8548C776.466 68.2264 776.875 62.4317 762.263 65.3247C760.277 65.9932 760.36 55.4634 759.871 54.6946C756.859 54.4224 753.903 53.75 751.052 52.683C750.242 53.2087 745.854 62.6946 744.325 61.2557C732.339 52.3231 730.274 57.7499 738.792 44.8046C736.652 42.6598 734.815 40.2349 733.313 37.591C732.353 37.467 722.907 41.9041 722.653 39.8234C719.233 25.3453 714.106 28.0971 728.968 23.683C728.707 20.662 728.851 17.6178 729.395 14.6304C714.995 8.79921 719.856 12.0002 724.608 -2.05062C725.011 -4.11437 734.089 1.24413 735.009 1.20268C736.751 -1.28848 738.815 -3.51295 741.154 -5.44559C733.907 -19.1416 735.393 -13.5349 748.191 -21.2932C749.825 -22.6153 753.345 -12.6744 754.083 -12.1114C757.013 -12.8954 760.029 -13.2747 763.062 -13.2609C766.264 -28.4615 763.989 -23.1122 778.631 -20.8548C780.726 -20.8055 777.042 -10.9405 777.257 -10.0456C780.006 -8.75616 782.569 -7.10804 784.879 -5.14349C797.101 -14.6776 791.873 -12.152 801.69 -0.926115C803.274 0.469123 794.101 5.64678 793.688 6.46292C794.977 9.23226 795.881 12.1229 796.387 15.1103C811.885 15.6735 806.254 14.2455 806.579 29.1592C806.895 31.2392 796.542 29.3068 795.694 29.667C794.909 32.608 793.73 35.4123 792.217 38.0175C803.342 48.2755 800.945 43.417 790.734 55.5338L790.722 55.5401ZM781.952 46.4655C782.828 45.4104 789.515 52.8989 790.194 53.1675L797.264 45.5005C786.363 35.916 790.586 40.4828 793.902 28.348C793.818 26.6587 803.774 28.3314 804.563 28.0333L805.052 17.6032C790.545 17.2558 796.726 18.0444 791.468 6.61786C790.316 5.37125 799.004 0.242271 799.418 -0.481688L793.089 -8.80404C792.227 -8.56043 785.06 -1.61752 784.133 -3.02655C774.51 -11.12 773.627 -4.98785 777.163 -19.0614L766.984 -21.3768C764.15 -7.10865 765.975 -13.092 753.829 -9.90803C752.404 -8.98791 748.867 -18.4553 748.209 -18.9824L738.939 -14.2031C739.024 -13.319 744.628 -5.02508 743.071 -4.36157C733.299 3.75493 739.537 5.67373 726.099 -0.297784L722.081 9.33748C735.621 14.6378 730.058 11.7831 731.088 24.3221C731.741 25.888 721.831 27.7183 721.187 28.2667L724.296 38.2492C725.181 38.3188 734.319 34.2418 734.69 35.8908C740.967 46.8076 743.88 41.3464 735.76 53.3282L744.541 58.979C752.229 46.4306 748.176 51.5671 760.827 52.7166C762.486 52.3408 762.582 62.4383 763.003 63.1649L773.349 61.852C771.113 47.2126 771.537 53.8151 781.928 46.4781L781.952 46.4655ZM770.179 34.9797C753.158 44.2501 737.598 18.3826 753.759 7.65323C770.973 -4.14562 788.998 21.9513 771.952 33.9265C771.38 34.3142 770.776 34.6716 770.179 34.9797ZM756.47 8.42068C739.423 17.5193 754.745 43.0453 770.793 32.2189C784.866 22.8599 771.296 0.343671 756.47 8.42068Z" fill="url(#paint2_linear_1442_9630)"/>
<path d="M945.14 49.1657C944.679 49.7321 941.048 45.6779 940.691 45.5418C939.371 46.4606 937.941 47.1981 936.426 47.7408C937.576 55.8974 937.793 52.8226 930.04 54.3577C928.985 54.7124 929.029 49.125 928.77 48.7171C927.172 48.5727 925.603 48.2158 924.091 47.6497C923.661 47.9286 921.332 52.9621 920.521 52.1986C914.161 47.4587 913.065 50.3383 917.585 43.4692C916.449 42.3311 915.475 41.0444 914.678 39.6415C914.168 39.5757 909.156 41.9301 909.021 40.826C907.207 33.1436 904.486 34.6038 912.372 32.2615C912.234 30.6585 912.31 29.0432 912.599 27.458C904.957 24.3638 907.537 26.0623 910.059 18.6066C910.272 17.5115 915.089 20.3549 915.578 20.3329C916.502 19.011 917.597 17.8306 918.838 16.8051C914.993 9.53767 915.781 12.5127 922.572 8.39594C923.439 7.69441 925.307 12.9693 925.699 13.2681C927.254 12.852 928.854 12.6508 930.463 12.6581C932.163 4.59228 930.955 7.43077 938.725 8.62857C939.836 8.65477 937.882 13.8894 937.995 14.3642C939.454 15.0484 940.814 15.923 942.04 16.9654C948.525 11.9064 945.751 13.2465 950.96 19.2033C951.801 19.9436 946.934 22.691 946.714 23.1241C947.398 24.5936 947.878 26.1274 948.146 27.7126C956.37 28.0115 953.382 27.2537 953.554 35.1673C953.722 36.271 948.229 35.2456 947.778 35.4368C947.362 36.9974 946.737 38.4854 945.934 39.8678C951.837 45.3109 950.565 42.7329 945.147 49.1624L945.14 49.1657ZM940.487 44.3505C940.952 43.7907 944.5 47.7642 944.86 47.9068L948.612 43.8384C942.827 38.7527 945.068 41.1759 946.828 34.7369C946.783 33.8405 952.066 34.7281 952.485 34.5699L952.744 29.0354C945.047 28.8511 948.326 29.2695 945.536 23.2063C944.925 22.5448 949.535 19.8232 949.755 19.4391L946.396 15.023C945.939 15.1523 942.136 18.8364 941.644 18.0887C936.538 13.7941 936.069 17.048 937.946 9.58021L932.544 8.35157C931.041 15.9227 932.009 12.7477 925.564 14.4372C924.808 14.9255 922.931 9.90183 922.582 9.62214L917.663 12.1581C917.708 12.6273 920.682 17.0283 919.856 17.3803C914.67 21.6872 917.98 22.7053 910.85 19.5367L908.718 24.6494C915.902 27.4619 912.95 25.9471 913.497 32.6007C913.844 33.4316 908.585 34.4028 908.243 34.6937L909.893 39.9907C910.363 40.0277 915.211 37.8643 915.409 38.7393C918.739 44.532 920.285 41.6342 915.976 47.992L920.635 50.9905C924.715 44.332 922.565 47.0575 929.277 47.6675C930.158 47.4681 930.208 52.8261 930.432 53.2116L935.922 52.515C934.735 44.7469 934.96 48.2504 940.474 44.3572L940.487 44.3505ZM934.24 38.2558C925.208 43.175 916.951 29.449 925.527 23.7557C934.661 17.4949 944.226 31.3426 935.18 37.697C934.877 37.9027 934.557 38.0923 934.24 38.2558ZM926.965 24.1629C917.92 28.9909 926.05 42.5357 934.566 36.7909C942.033 31.8248 934.833 19.8771 926.965 24.1629Z" fill="url(#paint3_linear_1442_9630)"/>
<path d="M288.548 469.166C288.086 469.732 284.455 465.678 284.099 465.542C282.778 466.461 281.348 467.198 279.833 467.741C280.983 475.897 281.2 472.823 273.447 474.358C272.393 474.712 272.437 469.125 272.177 468.717C270.579 468.573 269.01 468.216 267.498 467.65C267.068 467.929 264.74 472.962 263.928 472.199C257.568 467.459 256.472 470.338 260.992 463.469C259.857 462.331 258.882 461.044 258.085 459.641C257.576 459.576 252.563 461.93 252.428 460.826C250.614 453.144 247.893 454.604 255.779 452.262C255.641 450.658 255.717 449.043 256.006 447.458C248.365 444.364 250.944 446.062 253.466 438.607C253.68 437.511 258.496 440.355 258.985 440.333C259.909 439.011 261.004 437.831 262.245 436.805C258.4 429.538 259.188 432.513 265.979 428.396C266.847 427.694 268.714 432.969 269.106 433.268C270.661 432.852 272.261 432.651 273.871 432.658C275.57 424.592 274.362 427.431 282.132 428.629C283.243 428.655 281.289 433.889 281.403 434.364C282.861 435.048 284.222 435.923 285.447 436.965C291.933 431.906 289.158 433.247 294.367 439.203C295.208 439.944 290.341 442.691 290.122 443.124C290.806 444.594 291.285 446.127 291.553 447.713C299.777 448.011 296.789 447.254 296.962 455.167C297.129 456.271 291.636 455.246 291.186 455.437C290.77 456.997 290.144 458.485 289.341 459.868C295.244 465.311 293.972 462.733 288.554 469.162L288.548 469.166ZM283.894 464.351C284.359 463.791 287.907 467.764 288.267 467.907L292.019 463.838C286.235 458.753 288.475 461.176 290.235 454.737C290.191 453.84 295.474 454.728 295.892 454.57L296.151 449.035C288.454 448.851 291.734 449.269 288.943 443.206C288.332 442.545 292.942 439.823 293.162 439.439L289.804 435.023C289.346 435.152 285.543 438.836 285.051 438.089C279.945 433.794 279.477 437.048 281.353 429.58L275.951 428.352C274.448 435.923 275.416 432.748 268.971 434.437C268.215 434.925 266.338 429.902 265.989 429.622L261.07 432.158C261.115 432.627 264.089 437.028 263.263 437.38C258.077 441.687 261.388 442.705 254.257 439.537L252.125 444.649C259.31 447.462 256.358 445.947 256.904 452.601C257.251 453.432 251.992 454.403 251.651 454.694L253.3 459.991C253.77 460.028 258.619 457.864 258.816 458.739C262.146 464.532 263.692 461.634 259.383 467.992L264.043 470.991C268.122 464.332 265.972 467.058 272.685 467.668C273.565 467.468 273.616 472.826 273.839 473.212L279.329 472.515C278.142 464.747 278.368 468.25 283.881 464.357L283.894 464.351ZM277.647 458.256C268.615 463.175 260.359 449.449 268.934 443.756C278.068 437.495 287.633 451.343 278.588 457.697C278.284 457.903 277.964 458.092 277.647 458.256ZM270.373 444.163C261.327 448.991 269.457 462.536 277.973 456.791C285.44 451.825 278.24 439.877 270.373 444.163Z" fill="url(#paint4_linear_1442_9630)"/>
<path d="M561.17 129.989C560.574 130.252 559.356 125.514 559.13 125.259C557.711 125.449 556.28 125.449 554.862 125.259C552.447 132.253 553.871 129.884 547.117 127.916C546.139 127.765 548.451 123.316 548.412 122.883C547.208 122.109 546.113 121.177 545.148 120.101C544.695 120.147 540.803 123.211 540.473 122.267C537.377 115.856 535.337 117.706 541.709 114.078C541.276 112.7 541.029 111.269 540.971 109.819C540.596 109.557 535.674 109.373 536.017 108.435C537.714 101.545 534.968 101.591 542.156 102.969C542.7 101.63 543.419 100.371 544.293 99.2223C539.514 93.5991 540.861 96.0203 545.893 91.0991C546.508 90.3117 549.157 94.5702 549.552 94.7539C550.821 94.0781 552.168 93.586 553.567 93.2776C553.489 85.8827 552.9 88.586 559.946 88.0939C560.917 87.8905 560.244 92.8773 560.431 93.2776C561.83 93.586 563.177 94.0846 564.446 94.7539C569.077 89.006 566.966 90.7776 572.619 94.9376C573.487 95.4166 569.808 98.7958 569.705 99.2223C570.579 100.371 571.298 101.63 571.842 102.969C579.03 101.598 576.291 101.525 577.981 108.435C578.344 109.373 573.377 109.563 573.027 109.819C572.969 111.276 572.723 112.7 572.289 114.078C578.668 117.706 576.615 115.869 573.526 122.267C573.208 123.218 569.284 120.134 568.85 120.101C567.885 121.177 566.784 122.109 565.586 122.883C568.034 129.668 568.079 127.083 561.176 129.989H561.17ZM559.453 124.222C560.049 123.966 561.234 128.605 561.461 128.867L566.085 127.161C563.585 120.711 564.369 123.572 568.384 119.15C568.714 118.415 572.528 121.302 572.923 121.348L575.384 117.03C569.375 113.71 571.797 115.397 572.062 109.399C571.848 108.618 576.602 108.343 576.932 108.126L576.077 103.212C575.663 103.126 571.155 104.504 571.071 103.704C568.785 98.1659 567.089 100.574 571.615 95.3773L567.846 92.1687C563.572 97.6016 565.632 95.4626 559.849 94.1568C559.052 94.2356 559.615 89.4456 559.453 89.0782H554.532C554.376 89.4719 554.933 94.2159 554.137 94.1568C548.283 95.4626 550.484 97.641 546.139 92.1687L542.37 95.3773C546.903 100.587 545.187 98.1594 542.908 103.704C542.843 104.511 538.29 103.12 537.902 103.212L537.047 108.126C537.403 108.349 542.117 108.618 541.917 109.399C542.189 115.403 544.591 113.723 538.595 117.03L541.055 121.348C546.994 117.706 544.183 118.999 549.241 122.253C550.018 122.457 547.875 126.761 547.894 127.161L552.518 128.867C554.745 122.168 553.496 125.062 559.441 124.222H559.453ZM556.999 116.775C547.855 116.984 546.923 102.608 556.021 101.591C565.793 100.351 567.71 115.364 557.97 116.715C557.647 116.755 557.316 116.775 556.999 116.775ZM556.993 102.51C547.875 102.641 548.781 116.82 557.854 115.738C565.78 114.845 564.958 102.326 556.993 102.51Z" fill="url(#paint5_linear_1442_9630)"/>
<g clip-path="url(#clip1_1442_9630)">
<path d="M793.74 283.182H783.957V286.547H793.74C801.16 286.547 807.212 292.611 807.212 300.047V413.946C807.212 421.381 801.16 427.446 793.74 427.446H783.957V430.81H793.74C803.025 430.81 810.57 423.25 810.57 413.946V300.047C810.57 290.742 803.025 283.182 793.74 283.182Z" fill="#424242"/>
<path d="M904.463 438.661H874.948L881.083 192.378H898.286L904.463 438.661Z" fill="url(#paint6_linear_1442_9630)"/>
<path d="M953.821 447.692L957.055 447.194L937.82 319.504H941.675V311.362H907.144V319.504H910.999L891.765 447.194L894.998 447.692L896.159 440.09H952.578L953.738 447.692H953.821ZM945.282 414.212L924.762 423.226L904.242 414.212H945.323H945.282ZM903.413 411.263L924.513 400.338L945.613 411.263H903.413ZM949.012 415.749L951.914 435.147L928.368 424.804L949.012 415.749ZM927.664 398.677L948.157 388.126L948.018 409.227L927.664 398.677ZM941.634 388.126L924.513 397.015L907.393 388.126H941.675H941.634ZM906.812 385.176L924.43 374.875L942.048 385.176H906.812ZM927.332 373.213L941.385 365.03L944.079 382.975L927.332 373.213ZM937.613 363.826L924.389 371.51L911.165 363.826H937.571H937.613ZM910.046 360.876L924.472 351.364L938.898 360.876H910.046ZM927.125 349.578L937.944 342.433L940.349 358.301L927.125 349.578ZM924.472 347.833L913.86 340.813H935.084L924.472 347.833ZM910.916 342.392L921.777 349.578L908.512 358.343L910.916 342.392ZM907.517 365.072L921.487 373.213L904.823 382.933L907.517 365.072ZM921.321 398.677L900.884 409.31L903.828 389.621L921.321 398.677ZM921.155 424.804L896.946 435.438L899.931 415.5L921.155 424.804ZM924.762 426.383L949.303 437.141H900.221L924.762 426.383ZM934.504 319.546L937.281 337.864H911.621L914.398 319.546H934.545H934.504Z" fill="url(#paint7_linear_1442_9630)"/>
<path d="M736.077 443.728V255.018C736.077 250.2 739.974 246.295 744.782 246.295C749.591 246.295 753.488 250.2 753.488 255.018V443.728H736.036H736.077Z" fill="url(#paint8_linear_1442_9630)"/>
<path d="M743.29 269.183V272.548C733.507 275.372 726.335 284.428 726.335 295.145V432.928H723.102V295.145C723.102 282.6 731.683 272.091 743.332 269.142L743.29 269.183Z" fill="url(#paint9_linear_1442_9630)"/>
<path d="M726.335 366.259V375.813H723.102V366.259C723.102 353.715 731.683 343.205 743.332 340.256V343.621C733.548 346.445 726.377 355.501 726.377 366.218L726.335 366.259Z" fill="#424242"/>
<path d="M560.94 350.094V356.865H600.155V350.094H560.94Z" fill="url(#paint10_linear_1442_9630)"/>
<path d="M560.94 443.929V360.395H600.155V443.929H560.94Z" fill="url(#paint11_linear_1442_9630)"/>
<path d="M557.375 443.929V366.668L557.333 366.626C557.333 364.134 556.131 361.974 554.348 360.562V345.234C554.348 340.789 557.043 336.968 560.898 335.348V346.48H600.114V333.52C600.114 327.621 595.346 322.803 589.419 322.803H582.537V317.818C582.537 309.926 576.153 303.529 568.277 303.529H555.551C547.674 303.529 541.291 309.926 541.291 317.818V358.858H536.731C534.285 358.858 532.088 360.022 530.678 361.849C528.191 357.612 523.631 354.746 518.367 354.746H505.64C503.402 354.746 501.287 355.286 499.381 356.2C496.52 355.411 493.577 354.954 490.468 354.954C472.974 354.954 458.673 368.662 457.595 385.942H523.382C522.636 373.812 515.34 363.469 504.977 358.36H505.64H518.367C524.004 358.36 528.606 362.763 529.02 368.329V443.929H557.375Z" fill="url(#paint12_linear_1442_9630)"/>
<path d="M523.465 389.431V396.949H457.512V389.431H523.465Z" fill="url(#paint13_linear_1442_9630)"/>
<path d="M457.471 443.929V400.48H457.512H523.465V443.929H457.471Z" fill="url(#paint14_linear_1442_9630)"/>
<path d="M487.479 365.303C490.381 365.303 493.324 365.76 496.184 366.674C498.257 365.552 500.413 365.012 502.651 365.012H503.397L501.656 291.863H486.733L484.992 365.428C485.821 365.345 486.65 365.262 487.479 365.262V365.303Z" fill="url(#paint15_linear_1442_9630)"/>
<path d="M828.437 388.117H812.684L815.503 183.248H825.618L828.437 388.117Z" fill="url(#paint16_linear_1442_9630)"/>
<path d="M910.183 449.336V437.539H894.016V277.74C894.016 266.649 885.062 257.677 873.994 257.677H873.414C873.663 257.303 873.787 256.888 873.787 256.389V251.695C873.787 250.408 872.751 249.411 871.507 249.411H864.087C862.802 249.411 861.807 250.449 861.807 251.695V256.389C861.807 256.846 861.931 257.303 862.18 257.677H861.682C850.614 257.677 841.66 266.649 841.66 277.74V310.722C834.82 312.882 829.846 319.196 829.846 326.756V376.27H825.576V278.654C825.576 267.563 816.622 258.591 805.554 258.591H804.973C805.222 258.217 805.346 257.802 805.346 257.303V252.609C805.346 251.322 804.31 250.325 803.066 250.325H795.646C794.361 250.325 793.366 251.363 793.366 252.609V257.303C793.366 257.76 793.491 258.217 793.739 258.591H793.242C783.625 258.591 775.583 265.403 773.634 274.459H770.608C761.322 274.459 753.778 282.019 753.778 291.323V329.206L742.917 318.323L729.652 331.616L719.578 321.522V284.552C719.578 275.248 712.034 267.688 702.748 267.688H700.054L697.898 165.378H672.611L669.917 324.886L663.325 318.282L657.273 324.388L655.118 207.54H629.831L626.887 355.002L600.15 382.002V437.539H577.64V449.336H910.308H910.183ZM836.478 326.714C836.478 322.976 838.551 319.736 841.577 317.991V376.228H836.478V326.714ZM760.369 291.282C760.369 285.715 764.887 281.146 770.484 281.146H773.054V302.829H770.484C766.67 302.829 763.188 304.159 760.369 306.277V291.282ZM760.369 319.694C760.369 314.128 764.887 309.559 770.484 309.559H773.054V347.608H772.059L760.369 335.894V319.694ZM717.091 387.942H755.933V396.208H717.091V387.942ZM702.582 274.375C708.137 274.375 712.697 278.903 712.697 284.511V321.771L702.955 331.533L701.214 329.788L700.054 274.375H702.582ZM663.408 387.942H702.251V396.208H663.408V387.942ZM609.725 387.942H648.568V396.208H609.725V387.942Z" fill="url(#paint17_linear_1442_9630)"/>
<path d="M961.548 290.166C961.086 290.732 957.455 286.678 957.099 286.542C955.778 287.461 954.348 288.198 952.833 288.741C953.983 296.897 954.2 293.823 946.447 295.358C945.393 295.712 945.437 290.125 945.177 289.717C943.579 289.573 942.01 289.216 940.498 288.65C940.068 288.929 937.74 293.962 936.928 293.199C930.568 288.459 929.472 291.338 933.992 284.469C932.857 283.331 931.882 282.044 931.085 280.641C930.576 280.576 925.563 282.93 925.428 281.826C923.614 274.144 920.893 275.604 928.779 273.262C928.641 271.658 928.717 270.043 929.006 268.458C921.365 265.364 923.944 267.062 926.466 259.607C926.68 258.511 931.496 261.355 931.985 261.333C932.909 260.011 934.004 258.831 935.245 257.805C931.4 250.538 932.188 253.513 938.979 249.396C939.847 248.694 941.714 253.969 942.106 254.268C943.661 253.852 945.261 253.651 946.871 253.658C948.57 245.592 947.362 248.431 955.132 249.629C956.243 249.655 954.289 254.889 954.403 255.364C955.861 256.048 957.222 256.923 958.447 257.965C964.933 252.906 962.158 254.247 967.367 260.203C968.208 260.944 963.341 263.691 963.122 264.124C963.806 265.594 964.285 267.127 964.553 268.713C972.777 269.011 969.789 268.254 969.962 276.167C970.129 277.271 964.636 276.246 964.186 276.437C963.77 277.997 963.144 279.485 962.341 280.868C968.244 286.311 966.972 283.733 961.554 290.162L961.548 290.166ZM956.894 285.351C957.359 284.791 960.907 288.764 961.267 288.907L965.019 284.838C959.235 279.753 961.475 282.176 963.235 275.737C963.191 274.84 968.474 275.728 968.892 275.57L969.151 270.035C961.454 269.851 964.734 270.269 961.943 264.206C961.332 263.545 965.942 260.823 966.162 260.439L962.804 256.023C962.346 256.152 958.543 259.836 958.051 259.089C952.945 254.794 952.477 258.048 954.353 250.58L948.951 249.352C947.448 256.923 948.416 253.748 941.971 255.437C941.215 255.925 939.338 250.902 938.989 250.622L934.07 253.158C934.115 253.627 937.089 258.028 936.263 258.38C931.077 262.687 934.388 263.705 927.257 260.537L925.125 265.649C932.31 268.462 929.358 266.947 929.904 273.601C930.251 274.432 924.992 275.403 924.651 275.694L926.3 280.991C926.77 281.028 931.619 278.864 931.816 279.739C935.146 285.532 936.692 282.634 932.383 288.992L937.043 291.991C941.122 285.332 938.972 288.058 945.685 288.668C946.565 288.468 946.616 293.826 946.839 294.212L952.329 293.515C951.142 285.747 951.368 289.25 956.881 285.357L956.894 285.351ZM950.647 279.256C941.615 284.175 933.359 270.449 941.934 264.756C951.068 258.495 960.633 272.343 951.588 278.697C951.284 278.903 950.964 279.092 950.647 279.256ZM943.373 265.163C934.327 269.991 942.457 283.536 950.973 277.791C958.44 272.825 951.24 260.877 943.373 265.163Z" fill="url(#paint18_linear_1442_9630)"/>
</g>
</g>
<defs>
<linearGradient id="paint0_linear_1442_9630" x1="130" y1="400" x2="235.636" y2="424.923" gradientUnits="userSpaceOnUse">
<stop stop-color="#5ECAFB"/>
<stop offset="0.365" stop-color="#3B79FF"/>
<stop offset="0.77" stop-color="#9747FF"/>
</linearGradient>
<linearGradient id="paint1_linear_1442_9630" x1="-32" y1="-31" x2="73.6364" y2="-6.07707" gradientUnits="userSpaceOnUse">
<stop stop-color="#5ECAFB"/>
<stop offset="0.365" stop-color="#3B79FF"/>
<stop offset="0.77" stop-color="#9747FF"/>
</linearGradient>
<linearGradient id="paint2_linear_1442_9630" x1="703" y1="1.78452" x2="808.313" y2="-24.4716" gradientUnits="userSpaceOnUse">
<stop stop-color="#5ECAFB"/>
<stop offset="0.365" stop-color="#3B79FF"/>
<stop offset="0.77" stop-color="#9747FF"/>
</linearGradient>
<linearGradient id="paint3_linear_1442_9630" x1="898.593" y1="20.6416" x2="954.475" y2="6.7094" gradientUnits="userSpaceOnUse">
<stop stop-color="#5ECAFB"/>
<stop offset="0.365" stop-color="#3B79FF"/>
<stop offset="0.77" stop-color="#9747FF"/>
</linearGradient>
<linearGradient id="paint4_linear_1442_9630" x1="242" y1="440.642" x2="297.882" y2="426.709" gradientUnits="userSpaceOnUse">
<stop stop-color="#5ECAFB"/>
<stop offset="0.365" stop-color="#3B79FF"/>
<stop offset="0.77" stop-color="#9747FF"/>
</linearGradient>
<linearGradient id="paint5_linear_1442_9630" x1="536" y1="88" x2="585.91" y2="99.6429" gradientUnits="userSpaceOnUse">
<stop stop-color="#5ECAFB"/>
<stop offset="0.365" stop-color="#3B79FF"/>
<stop offset="0.77" stop-color="#9747FF"/>
</linearGradient>
<linearGradient id="paint6_linear_1442_9630" x1="874.948" y1="192.378" x2="911.901" y2="193.411" gradientUnits="userSpaceOnUse">
<stop stop-color="#5ECAFB"/>
<stop offset="0.365" stop-color="#3B79FF"/>
<stop offset="0.77" stop-color="#9747FF"/>
</linearGradient>
<linearGradient id="paint7_linear_1442_9630" x1="891.765" y1="311.362" x2="972.564" y2="320.389" gradientUnits="userSpaceOnUse">
<stop stop-color="#5ECAFB"/>
<stop offset="0.365" stop-color="#3B79FF"/>
<stop offset="0.77" stop-color="#9747FF"/>
</linearGradient>
<linearGradient id="paint8_linear_1442_9630" x1="736.036" y1="246.295" x2="757.894" y2="246.746" gradientUnits="userSpaceOnUse">
<stop stop-color="#5ECAFB"/>
<stop offset="0.365" stop-color="#3B79FF"/>
<stop offset="0.77" stop-color="#9747FF"/>
</linearGradient>
<linearGradient id="paint9_linear_1442_9630" x1="723.102" y1="269.142" x2="748.428" y2="269.871" gradientUnits="userSpaceOnUse">
<stop stop-color="#5ECAFB"/>
<stop offset="0.365" stop-color="#3B79FF"/>
<stop offset="0.77" stop-color="#9747FF"/>
</linearGradient>
<linearGradient id="paint10_linear_1442_9630" x1="457.471" y1="303.529" x2="626.74" y2="343.659" gradientUnits="userSpaceOnUse">
<stop stop-color="#5ECAFB"/>
<stop offset="0.426151" stop-color="#3B79FF"/>
<stop offset="0.874198" stop-color="#3841FF"/>
</linearGradient>
<linearGradient id="paint11_linear_1442_9630" x1="457.471" y1="303.529" x2="626.74" y2="343.659" gradientUnits="userSpaceOnUse">
<stop stop-color="#5ECAFB"/>
<stop offset="0.426151" stop-color="#3B79FF"/>
<stop offset="0.874198" stop-color="#3841FF"/>
</linearGradient>
<linearGradient id="paint12_linear_1442_9630" x1="457.471" y1="303.529" x2="626.74" y2="343.659" gradientUnits="userSpaceOnUse">
<stop stop-color="#5ECAFB"/>
<stop offset="0.426151" stop-color="#3B79FF"/>
<stop offset="0.874198" stop-color="#3841FF"/>
</linearGradient>
<linearGradient id="paint13_linear_1442_9630" x1="457.471" y1="303.529" x2="626.74" y2="343.659" gradientUnits="userSpaceOnUse">
<stop stop-color="#5ECAFB"/>
<stop offset="0.426151" stop-color="#3B79FF"/>
<stop offset="0.874198" stop-color="#3841FF"/>
</linearGradient>
<linearGradient id="paint14_linear_1442_9630" x1="457.471" y1="303.529" x2="626.74" y2="343.659" gradientUnits="userSpaceOnUse">
<stop stop-color="#5ECAFB"/>
<stop offset="0.426151" stop-color="#3B79FF"/>
<stop offset="0.874198" stop-color="#3841FF"/>
</linearGradient>
<linearGradient id="paint15_linear_1442_9630" x1="484.992" y1="291.863" x2="507.978" y2="293.182" gradientUnits="userSpaceOnUse">
<stop stop-color="#5ECAFB"/>
<stop offset="0.426151" stop-color="#3B79FF"/>
<stop offset="0.874198" stop-color="#3841FF"/>
</linearGradient>
<linearGradient id="paint16_linear_1442_9630" x1="812.684" y1="183.248" x2="832.416" y2="183.602" gradientUnits="userSpaceOnUse">
<stop stop-color="#5ECAFB"/>
<stop offset="0.365" stop-color="#3B79FF"/>
<stop offset="0.77" stop-color="#9747FF"/>
</linearGradient>
<linearGradient id="paint17_linear_1442_9630" x1="577.64" y1="165.378" x2="965.501" y2="271.379" gradientUnits="userSpaceOnUse">
<stop stop-color="#5ECAFB"/>
<stop offset="0.365" stop-color="#3B79FF"/>
<stop offset="0.77" stop-color="#9747FF"/>
</linearGradient>
<linearGradient id="paint18_linear_1442_9630" x1="915" y1="261.642" x2="970.882" y2="247.709" gradientUnits="userSpaceOnUse">
<stop stop-color="#5ECAFB"/>
<stop offset="0.365" stop-color="#3B79FF"/>
<stop offset="0.77" stop-color="#9747FF"/>
</linearGradient>
<clipPath id="clip0_1442_9630">
<rect width="960" height="435" rx="14" fill="white"/>
</clipPath>
<clipPath id="clip1_1442_9630">
<rect width="552" height="303" fill="white" transform="translate(402 148)"/>
</clipPath>
</defs>
</svg>
