<svg width="1320" height="497" viewBox="0 0 1320 497" fill="none" xmlns="http://www.w3.org/2000/svg">
<g clip-path="url(#clip0_1415_9624)">
<rect width="1320" height="497" rx="14" fill="#F7F7F7"/>
<path d="M769.152 37.6594C768.785 36.4818 779.22 35.8032 779.708 35.4816C779.916 32.4018 780.534 29.381 781.551 26.4666C781.102 25.7553 771.498 21.3998 772.818 20.0343C781.575 7.68771 775.968 6.14454 789.051 14.2718C791.177 12.055 793.602 10.1348 796.265 8.56075C791.329 -6.01629 791.504 -0.206598 805.551 -5.94519C807.169 -6.95236 809.262 3.47469 809.831 4.02472C812.885 3.69511 815.977 3.7823 819.034 4.28358C824.631 -10.0598 821.036 -5.50438 835.473 -0.85424C837.353 -0.593746 832.258 8.74753 832.345 9.53354C834.907 11.2468 837.224 13.3067 839.235 15.6509C840.071 15.6235 848.663 9.47563 849.181 11.3039C855.49 25.0465 859.643 20.9768 846.054 28.2339C846.922 31.1992 847.375 34.2533 847.4 37.3435C862.454 40.3727 857.395 37.5415 855.311 52.6405C855.382 54.5382 845.295 51.1497 844.532 51.3654C843.296 54.1978 841.668 56.8263 839.718 59.2152C849.367 71.2248 847.117 65.8703 835.948 76.0138C834.775 77.5086 829.236 68.4212 828.507 68.111C825.737 69.4774 822.811 70.4527 819.769 71.0324C819.423 86.4126 821.233 80.8972 806.072 81.4767C804.207 81.8758 805.804 71.3362 805.453 70.6323C802.444 69.8932 799.566 68.7594 796.887 67.2575C786.741 78.8243 791.668 75.7554 779.692 66.4545C778.016 65.5664 786.012 58.516 786.194 57.7478C784.362 55.2545 782.886 52.5364 781.801 49.663C766.9 51.8197 772.195 53.3115 769.147 37.6832L769.152 37.6594ZM781.465 36.4605C781.805 37.6452 771.575 38.2913 771.076 38.6105L772.647 49.1663C787.118 46.7482 780.608 46.8914 788.096 57.2323C789.375 58.064 781.787 64.9995 781.586 65.6771L789.569 72.749C799.1 61.5891 794.203 65.9031 806.593 68.9946C808.106 68.8083 806.752 79.0014 807.042 79.643L817.714 79.9297C818.028 79.2383 817.239 69.1026 818.743 69.3233C831.273 66.8802 826.639 62.3392 835.533 73.9837L843.889 67.3538C834.537 56.0121 837.967 61.5955 843.162 49.9453C843.24 48.4125 853.038 51.5189 853.729 51.3505L855.867 40.8965C855.25 40.4605 845.114 39.4906 845.597 38.0404C845.381 25.2836 840.074 29.0555 853.112 22.3174L848.029 12.9392C835.237 20.1736 841.325 17.7883 830.758 10.6337C829.269 10.2797 834.027 1.19167 833.975 0.474851L824.048 -3.45107C823.517 -2.91532 820.789 6.90997 819.454 6.16617C806.84 4.16889 809.648 10.009 805.271 -3.97041L795.153 -0.600282C795.085 0.15411 799.309 9.43098 797.824 9.72214C786.876 16.305 792.775 18.9612 780.449 11.0753L774.86 20.1669C787.719 27.7527 782.299 23.5345 781.487 36.4154L781.465 36.4605ZM798.003 34.5394C801.427 15.6133 831.068 19.6556 829.3 38.8459C827.703 59.4965 796.364 57.2134 797.71 36.5737C797.766 35.8788 797.855 35.203 797.991 34.537L798.003 34.5394ZM827.238 40.5059C830.883 21.3522 801.189 17.2621 799.529 36.7101C797.979 53.6779 824.209 57.2577 827.238 40.5059Z" fill="url(#paint0_linear_1415_9624)"/>
<path d="M701.996 -0.817932C701.944 -2.56321 710.882 -0.0414332 711.633 -0.259591C712.597 -2.78849 713.857 -5.13281 715.459 -7.33279C715.205 -8.15285 708.161 -14.178 709.755 -15.1281C720.198 -23.1773 716.093 -26.3091 725.104 -15.9044C727.441 -17.2109 729.95 -18.2094 732.571 -18.8504C732.906 -19.6369 731.381 -28.7831 733.218 -28.4942C746.464 -27.9536 745.245 -32.9607 745.483 -19.2206C748.119 -18.7188 750.67 -17.8626 753.105 -16.6831C753.866 -17.0726 758.572 -25.0562 759.796 -23.6534C769.538 -14.7598 771.915 -19.3538 763.224 -8.6663C764.929 -6.58294 766.343 -4.28657 767.437 -1.82018C768.264 -1.62614 777.001 -4.72134 777.043 -2.86658C778.817 10.2707 783.528 8.19846 770.032 10.816C770.001 13.5108 769.604 16.1802 768.852 18.7648C780.997 25.1763 777.117 21.7931 771.608 33.8871C771.072 35.6608 763.525 30.1525 762.716 30.1109C760.959 32.1554 758.945 33.9489 756.705 35.4486C761.921 48.1747 761.024 43.1094 749.091 48.8095C747.532 49.8288 745.3 40.7487 744.705 40.2057C742.051 40.6418 739.358 40.7229 736.678 40.4352C732.482 53.5038 735.129 49.1014 722.254 45.7746C720.403 45.5571 724.537 37.1591 724.428 36.3564C722.108 34.9774 719.985 33.3041 718.124 31.3748C706.498 38.7237 711.334 36.9496 703.646 26.196C702.359 24.8548 710.929 21.0566 711.365 20.3776C710.474 17.8288 709.924 15.1886 709.74 12.5119C696.147 10.6365 700.929 12.5189 701.994 -0.806044L701.996 -0.817932ZM717.525 -7.19529C710.833 2.14145 716.618 2.63075 703.655 0.401034L702.301 9.56566C702.976 9.96378 711.845 10.2164 711.522 11.6744C712.333 22.9173 716.914 19.4184 705.677 26.0167L710.531 33.9107C721.331 26.9011 716.407 29.4128 725.964 35.1465C727.42 35.4813 723.618 43.5878 723.689 44.3333L732.483 47.2592C732.99 46.6567 734.78 37.9653 736.16 38.545C747.245 39.6596 744.836 34.7187 749.269 46.7891L757.883 43.3838C752.837 31.5227 754.48 36.815 761.79 28.3975C762.37 27.0168 769.692 32.1695 770.434 32.2346L774.838 24.0902C763.21 18.119 768.06 21.3659 768.195 10.1057C767.744 8.67531 776.672 7.91167 777.279 7.49053L775.418 -1.58803C762.855 1.31917 768.35 0.621612 761.336 -8.03645C760.078 -8.85134 766.423 -15.1613 766.619 -15.8771L759.359 -21.6365C751.458 -11.2337 755.485 -15.4158 744.431 -17.5277C742.942 -17.3366 743.75 -26.2536 743.431 -26.9382L734.172 -26.676C733.897 -25.9392 735.197 -17.1487 733.7 -17.2195C722.889 -14.4618 726.851 -10.6903 718.558 -20.4895L711.625 -14.3368C711.762 -13.9743 718.14 -7.5402 717.505 -7.16204L717.525 -7.19529ZM725.991 7.57082C726.142 6.83346 726.354 6.09636 726.638 5.37386C733.439 -12.0687 759.936 -1.55745 752.952 15.8105C746.952 31.4592 722.254 23.8435 725.991 7.57082ZM728.338 6.03114C722.426 20.8802 745.89 29.8666 751.381 14.8324C757.28 -0.0191126 733.84 -9.00064 728.338 6.03114Z" fill="url(#paint1_linear_1415_9624)"/>
<path d="M733.315 22.2273C733.427 21.6802 734.014 21.3542 734.541 21.5613C735.12 22.7327 808.119 48.689 807.042 51.046C806.859 51.5166 806.33 51.7428 805.859 51.5599C805.285 50.5503 732.578 24.2573 733.305 22.213L733.315 22.2273Z" fill="url(#paint2_linear_1415_9624)"/>
<path d="M743.626 -2.14223C743.736 -2.67742 744.299 -3.00828 744.817 -2.81558C745.403 -1.67982 822.113 22.2475 821.086 24.6642C820.927 25.1397 820.404 25.3922 819.929 25.233C819.338 24.2448 742.898 -0.0360719 743.624 -2.13033L743.626 -2.14223Z" fill="url(#paint3_linear_1415_9624)"/>
<path d="M272.336 487.978C271.073 488.528 268.493 478.602 268.013 478.066C265.008 478.464 261.975 478.464 258.97 478.066C253.851 492.721 256.87 487.758 242.557 483.634C240.485 483.317 245.384 473.996 245.302 473.089C242.749 471.467 240.43 469.514 238.385 467.26C237.425 467.356 229.177 473.776 228.478 471.797C221.918 458.365 217.595 462.242 231.099 454.639C230.179 451.752 229.658 448.755 229.534 445.717C228.738 445.167 218.309 444.782 219.036 442.816C222.632 428.38 216.813 428.476 232.046 431.364C233.198 428.559 234.721 425.919 236.574 423.513C226.447 411.731 229.301 416.804 239.964 406.493C241.267 404.844 246.88 413.766 247.717 414.151C250.407 412.735 253.261 411.704 256.225 411.058C256.06 395.564 254.812 401.228 269.742 400.197C271.8 399.771 270.373 410.219 270.771 411.058C273.735 411.704 276.59 412.749 279.279 414.151C289.091 402.108 284.617 405.82 296.597 414.536C298.436 415.54 290.642 422.62 290.422 423.513C292.275 425.919 293.798 428.559 294.951 431.364C310.183 428.49 304.378 428.339 307.96 442.816C308.728 444.782 298.203 445.18 297.462 445.717C297.338 448.769 296.817 451.752 295.898 454.639C309.415 462.242 305.064 458.392 298.519 471.797C297.846 473.79 289.53 467.328 288.611 467.26C286.566 469.514 284.233 471.467 281.695 473.089C286.882 487.304 286.978 481.888 272.349 487.978H272.336ZM268.699 475.893C269.962 475.357 272.473 485.077 272.953 485.627L282.751 482.053C277.454 468.538 279.115 474.532 287.623 465.266C288.323 463.726 296.405 469.776 297.242 469.872L302.457 460.826C289.722 453.869 294.855 457.402 295.417 444.837C294.964 443.201 305.037 442.623 305.737 442.17L303.925 431.872C303.047 431.694 293.496 434.581 293.318 432.903C288.474 421.3 284.878 426.346 294.47 415.457L286.484 408.734C277.427 420.118 281.791 415.636 269.536 412.9C267.848 413.065 269.042 403.029 268.699 402.259H258.27C257.94 403.084 259.121 413.024 257.433 412.9C245.027 415.636 249.693 420.2 240.485 408.734L232.498 415.457C242.104 426.373 238.468 421.286 233.637 432.903C233.5 434.594 223.853 431.68 223.03 431.872L221.218 442.17C221.973 442.637 231.963 443.201 231.538 444.837C232.114 457.416 237.205 453.897 224.498 460.826L229.713 469.872C242.296 462.242 236.341 464.95 247.058 471.769C248.705 472.195 244.163 481.214 244.204 482.053L254.002 485.627C258.723 471.59 256.074 477.653 268.672 475.893H268.699ZM263.498 460.289C244.122 460.729 242.145 430.607 261.426 428.477C282.134 425.878 286.196 457.334 265.557 460.166C264.87 460.248 264.171 460.289 263.498 460.289ZM263.484 430.401C244.163 430.676 246.084 460.386 265.31 458.117C282.106 456.248 280.363 430.016 263.484 430.401Z" fill="url(#paint4_linear_1415_9624)"/>
<path d="M21.3356 56.978C20.0731 57.5279 17.4932 47.6018 17.0129 47.0656C14.0076 47.4643 10.9749 47.4643 7.96958 47.0656C2.85099 61.721 5.87001 56.758 -8.44285 52.6336C-10.515 52.3174 -5.61596 42.9962 -5.69829 42.0889C-8.25073 40.4666 -10.5699 38.5144 -12.6146 36.2597C-13.5752 36.3559 -21.8226 42.7763 -22.5224 40.7965C-29.0819 27.3647 -33.4046 31.2417 -19.9014 23.639C-20.8208 20.7519 -21.3423 17.7548 -21.4658 14.7165C-22.2617 14.1666 -32.691 13.7817 -31.9637 11.8157C-28.3683 -2.61974 -34.1868 -2.52351 -18.9545 0.363579C-17.8018 -2.44102 -16.2786 -5.08063 -14.426 -7.48653C-24.5534 -19.2686 -21.699 -14.1956 -11.0365 -24.5066C-9.73279 -26.1564 -4.12018 -17.2339 -3.28309 -16.8489C-0.593428 -18.265 2.26091 -19.2961 5.22503 -19.9422C5.06035 -35.4363 3.81158 -29.7721 18.742 -30.8032C20.8004 -31.2294 19.3732 -20.7809 19.7712 -19.9422C22.7353 -19.2961 25.5896 -18.2512 28.2793 -16.8489C38.0911 -28.8922 33.6174 -25.1802 45.5974 -16.464C47.4363 -15.4604 39.6417 -8.38016 39.4222 -7.48653C41.2748 -5.08063 42.798 -2.44102 43.9507 0.363579C59.183 -2.50976 53.3783 -2.66099 56.9599 11.8157C57.7284 13.7817 47.203 14.1804 46.462 14.7165C46.3385 17.7686 45.817 20.7519 44.8976 23.639C58.4145 31.2417 54.0644 27.3922 47.5186 40.7965C46.8462 42.79 38.5302 36.3284 37.6108 36.2597C35.5661 38.5144 33.2332 40.4666 30.6945 42.0889C35.8817 56.3043 35.9778 50.8876 21.3493 56.978H21.3356ZM17.699 44.8934C18.9615 44.3573 21.4728 54.0771 21.9531 54.6271L31.7512 51.0526C26.4542 37.5383 28.1146 43.5324 36.6227 34.2662C37.3226 32.7264 45.4053 38.7756 46.2424 38.8718L51.4571 29.8256C38.7223 22.8691 43.8547 26.4024 44.4173 13.8367C43.9644 12.2006 54.0369 11.6232 54.7368 11.1695L52.9254 0.872271C52.0471 0.693546 42.4961 3.58064 42.3177 1.90337C37.4735 -9.69996 33.8782 -4.65444 43.4704 -15.5429L35.4837 -22.2657C26.4267 -10.8823 30.7906 -15.3642 18.5361 -18.1C16.8482 -17.935 18.0421 -27.9711 17.699 -28.741H7.26973C6.94038 -27.9161 8.12054 -17.9763 6.43264 -18.1C-5.97275 -15.3642 -1.30702 -10.7998 -10.515 -22.2657L-18.5016 -15.5429C-8.8957 -4.62694 -12.5322 -9.71371 -17.3627 1.90337C-17.4999 3.59438 -27.147 0.679798 -27.9704 0.872271L-29.7818 11.1695C-29.027 11.637 -19.0368 12.2006 -19.4622 13.8367C-18.8859 26.4161 -13.7947 22.8966 -26.502 29.8256L-21.2874 38.8718C-8.70358 31.2417 -14.6593 33.95 -3.94178 40.769C-2.29505 41.1952 -6.83729 50.2139 -6.79612 51.0526L3.00194 54.6271C7.72258 40.5903 5.07408 46.6532 17.6716 44.8934H17.699ZM12.4981 29.2894C-6.87846 29.7294 -8.85453 -0.39255 10.426 -2.52349C31.1336 -5.12187 35.1956 26.3336 14.5565 29.1657C13.8704 29.2482 13.1705 29.2894 12.4981 29.2894ZM12.4844 -0.59878C-6.83728 -0.323818 -4.91609 29.3857 14.3095 27.1173C31.1062 25.2475 29.3634 -0.983725 12.4844 -0.59878Z" fill="url(#paint5_linear_1415_9624)"/>
<path d="M1149.13 55.5401C1148.26 56.6074 1141.42 48.9671 1140.74 48.7107C1138.26 50.4422 1135.56 51.832 1132.71 52.8548C1134.87 68.2265 1135.28 62.4317 1120.67 65.3248C1118.68 65.9933 1118.77 55.4634 1118.28 54.6947C1115.27 54.4224 1112.31 53.75 1109.46 52.683C1108.65 53.2087 1104.26 62.6946 1102.73 61.2557C1090.75 52.3232 1088.68 57.7499 1097.2 44.8047C1095.06 42.6599 1093.22 40.235 1091.72 37.591C1090.76 37.467 1081.31 41.9041 1081.06 39.8234C1077.64 25.3453 1072.51 28.0972 1087.37 23.683C1087.11 20.662 1087.26 17.6178 1087.8 14.6305C1073.4 8.79924 1078.26 12.0002 1083.02 -2.05059C1083.42 -4.11434 1092.5 1.24416 1093.42 1.20271C1095.16 -1.28845 1097.22 -3.51292 1099.56 -5.44556C1092.31 -19.1415 1093.8 -13.5348 1106.6 -21.2932C1108.23 -22.6153 1111.75 -12.6744 1112.49 -12.1114C1115.42 -12.8954 1118.44 -13.2747 1121.47 -13.2608C1124.67 -28.4615 1122.4 -23.1121 1137.04 -20.8548C1139.13 -20.8054 1135.45 -10.9405 1135.66 -10.0456C1138.41 -8.75613 1140.98 -7.10801 1143.29 -5.14346C1155.51 -14.6776 1150.28 -12.152 1160.1 -0.926085C1161.68 0.469154 1152.51 5.64681 1152.1 6.46295C1153.38 9.23229 1154.29 12.1229 1154.79 15.1103C1170.29 15.6736 1164.66 14.2456 1164.99 29.1592C1165.3 31.2392 1154.95 29.3068 1154.1 29.6671C1153.32 32.6081 1152.14 35.4123 1150.62 38.0176C1161.75 48.2755 1159.35 43.417 1149.14 55.5338L1149.13 55.5401ZM1140.36 46.4656C1141.24 45.4105 1147.92 52.8989 1148.6 53.1676L1155.67 45.5005C1144.77 35.9161 1148.99 40.4829 1152.31 28.348C1152.23 26.6587 1162.18 28.3314 1162.97 28.0333L1163.46 17.6032C1148.95 17.2559 1155.13 18.0444 1149.88 6.61789C1148.72 5.37128 1157.41 0.242301 1157.83 -0.481657L1151.5 -8.80401C1150.63 -8.5604 1143.47 -1.61749 1142.54 -3.02652C1132.92 -11.12 1132.03 -4.98782 1135.57 -19.0614L1125.39 -21.3768C1122.56 -7.10862 1124.38 -13.0919 1112.24 -9.908C1110.81 -8.98788 1107.27 -18.4553 1106.62 -18.9823L1097.35 -14.2031C1097.43 -13.319 1103.04 -5.02505 1101.48 -4.36154C1091.71 3.75496 1097.94 5.67376 1084.51 -0.297754L1080.49 9.33751C1094.03 14.6379 1088.47 11.7831 1089.5 24.3222C1090.15 25.8881 1080.24 27.7183 1079.59 28.2667L1082.7 38.2492C1083.59 38.3188 1092.73 34.2418 1093.1 35.8909C1099.37 46.8076 1102.29 41.3464 1094.17 53.3282L1102.95 58.979C1110.64 46.4306 1106.58 51.5671 1119.23 52.7167C1120.89 52.3408 1120.99 62.4384 1121.41 63.1649L1131.76 61.852C1129.52 47.2126 1129.94 53.8151 1140.33 46.4781L1140.36 46.4656ZM1128.59 34.9797C1111.57 44.2501 1096.01 18.3826 1112.17 7.65326C1129.38 -4.14559 1147.41 21.9513 1130.36 33.9265C1129.79 34.3142 1129.18 34.6716 1128.59 34.9797ZM1114.88 8.42071C1097.83 17.5193 1113.15 43.0454 1129.2 32.219C1143.27 22.86 1129.7 0.343702 1114.88 8.42071Z" fill="url(#paint6_linear_1415_9624)"/>
<path d="M1339.95 290.166C1339.49 290.732 1335.86 286.678 1335.51 286.542C1334.19 287.461 1332.76 288.198 1331.24 288.741C1332.39 296.897 1332.61 293.823 1324.85 295.358C1323.8 295.712 1323.84 290.125 1323.58 289.717C1321.99 289.573 1320.42 289.216 1318.9 288.65C1318.48 288.929 1316.15 293.962 1315.34 293.199C1308.98 288.459 1307.88 291.338 1312.4 284.469C1311.26 283.331 1310.29 282.044 1309.49 280.641C1308.98 280.576 1303.97 282.93 1303.84 281.826C1302.02 274.144 1299.3 275.604 1307.19 273.262C1307.05 271.658 1307.12 270.043 1307.41 268.458C1299.77 265.364 1302.35 267.062 1304.87 259.607C1305.09 258.511 1309.9 261.355 1310.39 261.333C1311.32 260.011 1312.41 258.831 1313.65 257.805C1309.81 250.538 1310.6 253.513 1317.39 249.396C1318.25 248.694 1320.12 253.969 1320.51 254.268C1322.07 253.852 1323.67 253.651 1325.28 253.658C1326.98 245.592 1325.77 248.431 1333.54 249.629C1334.65 249.655 1332.7 254.889 1332.81 255.364C1334.27 256.048 1335.63 256.923 1336.85 257.965C1343.34 252.906 1340.57 254.247 1345.77 260.203C1346.62 260.944 1341.75 263.691 1341.53 264.124C1342.21 265.594 1342.69 267.127 1342.96 268.713C1351.18 269.011 1348.2 268.254 1348.37 276.167C1348.54 277.271 1343.04 276.246 1342.59 276.437C1342.18 277.997 1341.55 279.485 1340.75 280.868C1346.65 286.311 1345.38 283.733 1339.96 290.162L1339.95 290.166ZM1335.3 285.351C1335.77 284.791 1339.31 288.764 1339.67 288.907L1343.43 284.838C1337.64 279.753 1339.88 282.176 1341.64 275.737C1341.6 274.84 1346.88 275.728 1347.3 275.57L1347.56 270.035C1339.86 269.851 1343.14 270.269 1340.35 264.206C1339.74 263.545 1344.35 260.823 1344.57 260.439L1341.21 256.023C1340.75 256.152 1336.95 259.836 1336.46 259.089C1331.35 254.794 1330.88 258.048 1332.76 250.58L1327.36 249.352C1325.85 256.923 1326.82 253.748 1320.38 255.437C1319.62 255.925 1317.75 250.902 1317.4 250.622L1312.48 253.158C1312.52 253.627 1315.5 258.028 1314.67 258.38C1309.48 262.687 1312.79 263.705 1305.66 260.537L1303.53 265.649C1310.72 268.462 1307.76 266.947 1308.31 273.601C1308.66 274.432 1303.4 275.403 1303.06 275.694L1304.71 280.991C1305.18 281.028 1310.03 278.864 1310.22 279.739C1313.55 285.532 1315.1 282.634 1310.79 288.992L1315.45 291.991C1319.53 285.332 1317.38 288.058 1324.09 288.668C1324.97 288.468 1325.02 293.826 1325.25 294.212L1330.74 293.515C1329.55 285.747 1329.77 289.25 1335.29 285.357L1335.3 285.351ZM1329.05 279.256C1320.02 284.175 1311.77 270.449 1320.34 264.756C1329.48 258.495 1339.04 272.343 1329.99 278.697C1329.69 278.903 1329.37 279.092 1329.05 279.256ZM1321.78 265.163C1312.73 269.991 1320.86 283.536 1329.38 277.791C1336.85 272.825 1329.65 260.877 1321.78 265.163Z" fill="url(#paint7_linear_1415_9624)"/>
<path d="M1303.55 49.1657C1303.09 49.7321 1299.46 45.6779 1299.1 45.5418C1297.78 46.4606 1296.35 47.1981 1294.83 47.7408C1295.98 55.8974 1296.2 52.8226 1288.45 54.3577C1287.39 54.7124 1287.44 49.125 1287.18 48.7171C1285.58 48.5727 1284.01 48.2158 1282.5 47.6497C1282.07 47.9286 1279.74 52.9621 1278.93 52.1986C1272.57 47.4587 1271.47 50.3383 1275.99 43.4692C1274.86 42.3311 1273.88 41.0444 1273.08 39.6415C1272.58 39.5757 1267.56 41.9301 1267.43 40.826C1265.61 33.1436 1262.89 34.6038 1270.78 32.2615C1270.64 30.6585 1270.72 29.0432 1271.01 27.458C1263.36 24.3638 1265.94 26.0623 1268.47 18.6066C1268.68 17.5115 1273.5 20.3549 1273.98 20.3329C1274.91 19.011 1276 17.8306 1277.25 16.8051C1273.4 9.53767 1274.19 12.5127 1280.98 8.39594C1281.85 7.69441 1283.71 12.9693 1284.11 13.2681C1285.66 12.852 1287.26 12.6508 1288.87 12.6581C1290.57 4.59228 1289.36 7.43077 1297.13 8.62857C1298.24 8.65477 1296.29 13.8894 1296.4 14.3642C1297.86 15.0484 1299.22 15.923 1300.45 16.9654C1306.93 11.9064 1304.16 13.2465 1309.37 19.2033C1310.21 19.9436 1305.34 22.691 1305.12 23.1241C1305.81 24.5936 1306.29 26.1274 1306.55 27.7126C1314.78 28.0115 1311.79 27.2537 1311.96 35.1673C1312.13 36.271 1306.64 35.2456 1306.19 35.4368C1305.77 36.9974 1305.14 38.4854 1304.34 39.8678C1310.24 45.3109 1308.97 42.7329 1303.55 49.1624L1303.55 49.1657ZM1298.89 44.3505C1299.36 43.7907 1302.91 47.7642 1303.27 47.9068L1307.02 43.8384C1301.23 38.7527 1303.48 41.1759 1305.23 34.7369C1305.19 33.8405 1310.47 34.7281 1310.89 34.5699L1311.15 29.0354C1303.45 28.8511 1306.73 29.2695 1303.94 23.2063C1303.33 22.5448 1307.94 19.8232 1308.16 19.4391L1304.8 15.023C1304.35 15.1523 1300.54 18.8364 1300.05 18.0887C1294.95 13.7941 1294.48 17.048 1296.35 9.58021L1290.95 8.35157C1289.45 15.9227 1290.42 12.7477 1283.97 14.4372C1283.22 14.9255 1281.34 9.90183 1280.99 9.62214L1276.07 12.1581C1276.12 12.6273 1279.09 17.0283 1278.26 17.3803C1273.08 21.6872 1276.39 22.7053 1269.26 19.5367L1267.12 24.6494C1274.31 27.4619 1271.36 25.9471 1271.9 32.6007C1272.25 33.4316 1266.99 34.4028 1266.65 34.6937L1268.3 39.9907C1268.77 40.0277 1273.62 37.8643 1273.82 38.7393C1277.15 44.532 1278.69 41.6342 1274.38 47.992L1279.04 50.9905C1283.12 44.332 1280.97 47.0575 1287.68 47.6675C1288.56 47.4681 1288.62 52.8261 1288.84 53.2116L1294.33 52.515C1293.14 44.7469 1293.37 48.2504 1298.88 44.3572L1298.89 44.3505ZM1292.65 38.2558C1283.62 43.175 1275.36 29.449 1283.93 23.7557C1293.07 17.4949 1302.63 31.3426 1293.59 37.697C1293.28 37.9027 1292.96 38.0923 1292.65 38.2558ZM1285.37 24.1629C1276.33 28.9909 1284.46 42.5357 1292.97 36.7909C1300.44 31.8248 1293.24 19.8771 1285.37 24.1629Z" fill="url(#paint8_linear_1415_9624)"/>
<path d="M377.548 469.166C377.086 469.732 373.455 465.678 373.099 465.542C371.778 466.461 370.348 467.198 368.833 467.741C369.983 475.897 370.2 472.823 362.447 474.358C361.393 474.712 361.437 469.125 361.177 468.717C359.579 468.573 358.01 468.216 356.498 467.65C356.068 467.929 353.74 472.962 352.928 472.199C346.568 467.459 345.472 470.338 349.992 463.469C348.857 462.331 347.882 461.044 347.085 459.641C346.576 459.576 341.563 461.93 341.428 460.826C339.614 453.144 336.893 454.604 344.779 452.262C344.641 450.658 344.717 449.043 345.006 447.458C337.365 444.364 339.944 446.062 342.466 438.607C342.68 437.511 347.496 440.355 347.985 440.333C348.909 439.011 350.004 437.831 351.245 436.805C347.4 429.538 348.188 432.513 354.979 428.396C355.847 427.694 357.714 432.969 358.106 433.268C359.661 432.852 361.261 432.651 362.871 432.658C364.57 424.592 363.362 427.431 371.132 428.629C372.243 428.655 370.289 433.889 370.403 434.364C371.861 435.048 373.222 435.923 374.447 436.965C380.933 431.906 378.158 433.247 383.367 439.203C384.208 439.944 379.341 442.691 379.122 443.124C379.806 444.594 380.285 446.127 380.553 447.713C388.777 448.011 385.789 447.254 385.962 455.167C386.129 456.271 380.636 455.246 380.186 455.437C379.77 456.997 379.144 458.485 378.341 459.868C384.244 465.311 382.972 462.733 377.554 469.162L377.548 469.166ZM372.894 464.351C373.359 463.791 376.907 467.764 377.267 467.907L381.019 463.838C375.235 458.753 377.475 461.176 379.235 454.737C379.191 453.84 384.474 454.728 384.892 454.57L385.151 449.035C377.454 448.851 380.734 449.269 377.943 443.206C377.332 442.545 381.942 439.823 382.162 439.439L378.804 435.023C378.346 435.152 374.543 438.836 374.051 438.089C368.945 433.794 368.477 437.048 370.353 429.58L364.951 428.352C363.448 435.923 364.416 432.748 357.971 434.437C357.215 434.925 355.338 429.902 354.989 429.622L350.07 432.158C350.115 432.627 353.089 437.028 352.263 437.38C347.077 441.687 350.388 442.705 343.257 439.537L341.125 444.649C348.31 447.462 345.358 445.947 345.904 452.601C346.251 453.432 340.992 454.403 340.651 454.694L342.3 459.991C342.77 460.028 347.619 457.864 347.816 458.739C351.146 464.532 352.692 461.634 348.383 467.992L353.043 470.991C357.122 464.332 354.972 467.058 361.685 467.668C362.565 467.468 362.616 472.826 362.839 473.212L368.329 472.515C367.142 464.747 367.368 468.25 372.881 464.357L372.894 464.351ZM366.647 458.256C357.615 463.175 349.359 449.449 357.934 443.756C367.068 437.495 376.633 451.343 367.588 457.697C367.284 457.903 366.964 458.092 366.647 458.256ZM359.373 444.163C350.327 448.991 358.457 462.536 366.973 456.791C374.44 451.825 367.24 439.877 359.373 444.163Z" fill="url(#paint9_linear_1415_9624)"/>
<path d="M672.577 185.989C671.981 186.252 670.764 181.514 670.537 181.259C669.119 181.449 667.688 181.449 666.269 181.259C663.854 188.253 665.278 185.884 658.524 183.916C657.546 183.765 659.858 179.316 659.819 178.883C658.615 178.109 657.52 177.177 656.555 176.101C656.102 176.147 652.21 179.211 651.88 178.267C648.784 171.856 646.744 173.706 653.117 170.078C652.683 168.7 652.437 167.269 652.378 165.819C652.003 165.557 647.081 165.373 647.424 164.435C649.121 157.545 646.375 157.591 653.564 158.969C654.108 157.63 654.826 156.371 655.701 155.222C650.921 149.599 652.268 152.02 657.3 147.099C657.915 146.312 660.564 150.57 660.959 150.754C662.228 150.078 663.575 149.586 664.974 149.278C664.896 141.883 664.307 144.586 671.353 144.094C672.324 143.891 671.651 148.877 671.839 149.278C673.237 149.586 674.584 150.085 675.854 150.754C680.484 145.006 678.373 146.778 684.026 150.938C684.894 151.417 681.216 154.796 681.112 155.222C681.986 156.371 682.705 157.63 683.249 158.969C690.437 157.598 687.698 157.525 689.388 164.435C689.751 165.373 684.784 165.563 684.434 165.819C684.376 167.276 684.13 168.7 683.696 170.078C690.075 173.706 688.022 171.869 684.933 178.267C684.616 179.218 680.691 176.134 680.257 176.101C679.292 177.177 678.191 178.109 676.993 178.883C679.441 185.668 679.487 183.083 672.583 185.989H672.577ZM670.861 180.222C671.456 179.966 672.642 184.605 672.868 184.867L677.492 183.161C674.992 176.711 675.776 179.572 679.791 175.15C680.121 174.415 683.936 177.302 684.331 177.348L686.791 173.03C680.782 169.71 683.204 171.397 683.469 165.399C683.256 164.618 688.009 164.343 688.339 164.126L687.484 159.212C687.07 159.126 682.563 160.504 682.478 159.704C680.192 154.166 678.496 156.574 683.022 151.377L679.253 148.169C674.979 153.602 677.039 151.463 671.256 150.157C670.459 150.236 671.023 145.446 670.861 145.078H665.939C665.784 145.472 666.341 150.216 665.544 150.157C659.69 151.463 661.892 153.641 657.546 148.169L653.777 151.377C658.31 156.587 656.594 154.159 654.315 159.704C654.25 160.511 649.697 159.12 649.309 159.212L648.454 164.126C648.81 164.349 653.525 164.618 653.324 165.399C653.596 171.403 655.998 169.723 650.002 173.03L652.463 177.348C658.401 173.706 655.59 174.999 660.648 178.253C661.425 178.457 659.282 182.761 659.301 183.161L663.925 184.867C666.153 178.168 664.903 181.062 670.848 180.222H670.861ZM668.406 172.775C659.262 172.984 658.33 158.608 667.428 157.591C677.201 156.351 679.117 171.364 669.378 172.715C669.054 172.755 668.724 172.775 668.406 172.775ZM668.4 158.51C659.282 158.641 660.188 172.82 669.261 171.738C677.188 170.845 676.365 158.326 668.4 158.51Z" fill="url(#paint10_linear_1415_9624)"/>
<g clip-path="url(#clip1_1415_9624)">
<path d="M1103.66 299.95H1089.82V304.703H1103.66C1114.16 304.703 1122.72 313.269 1122.72 323.772V484.659C1122.72 495.162 1114.16 503.728 1103.66 503.728H1089.82V508.481H1103.66C1116.8 508.481 1127.47 497.802 1127.47 484.659V323.772C1127.47 310.629 1116.8 299.95 1103.66 299.95Z" fill="#424242"/>
<path d="M1260.32 519.57H1218.56L1227.24 171.686H1251.58L1260.32 519.57Z" fill="url(#paint11_linear_1415_9624)"/>
<path d="M1330.15 532.327L1334.73 531.623L1307.52 351.256H1312.97V339.756H1264.11V351.256H1269.57L1242.35 531.623L1246.93 532.327L1248.57 521.59H1328.39L1330.04 532.327H1330.15ZM1318.07 485.035L1289.04 497.768L1260.01 485.035H1318.13H1318.07ZM1258.83 480.869L1288.69 465.438L1318.54 480.869H1258.83ZM1323.35 487.206L1327.46 514.608L1294.14 499.997L1323.35 487.206ZM1293.15 463.091L1322.14 448.187L1321.94 477.994L1293.15 463.091ZM1312.91 448.187L1288.69 460.744L1264.47 448.187H1312.97H1312.91ZM1263.64 444.022L1288.57 429.47L1313.5 444.022H1263.64ZM1292.68 427.123L1312.56 415.564L1316.37 440.912L1292.68 427.123ZM1307.22 413.863L1288.51 424.717L1269.8 413.863H1307.16H1307.22ZM1268.22 409.697L1288.63 396.26L1309.04 409.697H1268.22ZM1292.38 393.737L1307.69 383.645L1311.09 406.059L1292.38 393.737ZM1288.63 391.273L1273.61 381.357H1303.64L1288.63 391.273ZM1269.45 383.586L1284.82 393.737L1266.05 406.117L1269.45 383.586ZM1264.64 415.623L1284.41 427.123L1260.83 440.853L1264.64 415.623ZM1284.17 463.091L1255.26 478.112L1259.42 450.3L1284.17 463.091ZM1283.94 499.997L1249.68 515.018L1253.91 486.854L1283.94 499.997ZM1289.04 502.227L1323.76 517.424H1254.32L1289.04 502.227ZM1302.82 351.315L1306.75 377.191H1270.45L1274.38 351.315H1302.88H1302.82Z" fill="url(#paint12_linear_1415_9624)"/>
<path d="M1022.08 526.728V260.168C1022.08 253.362 1027.59 247.846 1034.39 247.846C1041.2 247.846 1046.71 253.362 1046.71 260.168V526.728H1022.02H1022.08Z" fill="url(#paint13_linear_1415_9624)"/>
<path d="M1032.28 280.176V284.929C1018.44 288.919 1008.29 301.71 1008.29 316.848V511.473H1003.72V316.848C1003.72 299.128 1015.86 284.283 1032.34 280.117L1032.28 280.176Z" fill="url(#paint14_linear_1415_9624)"/>
<path d="M1008.29 417.3V430.795H1003.72V417.3C1003.72 399.58 1015.86 384.736 1032.34 380.57V385.322C1018.5 389.312 1008.35 402.103 1008.35 417.241L1008.29 417.3Z" fill="#424242"/>
<path d="M774.284 394.466V404.03H829.768V394.466H774.284Z" fill="url(#paint15_linear_1415_9624)"/>
<path d="M774.284 527.013V409.017H829.768V527.013H774.284Z" fill="url(#paint16_linear_1415_9624)"/>
<path d="M769.24 527.013V417.877L769.181 417.818C769.181 414.298 767.48 411.247 764.958 409.252V387.601C764.958 381.323 768.77 375.925 774.225 373.636V389.361H829.709V371.054C829.709 362.723 822.964 355.916 814.577 355.916H804.841V348.875C804.841 337.727 795.809 328.691 784.665 328.691H766.659C755.515 328.691 746.483 337.727 746.483 348.875V406.846H740.031C736.571 406.846 733.462 408.489 731.468 411.071C727.949 405.086 721.498 401.037 714.049 401.037H696.043C692.876 401.037 689.885 401.8 687.187 403.091C683.14 401.976 678.975 401.331 674.577 401.331C649.826 401.331 629.591 420.694 628.066 445.102H721.146C720.09 427.969 709.767 413.359 695.104 406.142H696.043H714.049C722.025 406.142 728.536 412.362 729.122 420.224V527.013H769.24Z" fill="url(#paint17_linear_1415_9624)"/>
<path d="M721.263 450.031V460.651H627.949V450.031H721.263Z" fill="url(#paint18_linear_1415_9624)"/>
<path d="M627.89 527.013V465.639H627.949H721.263V527.013H627.89Z" fill="url(#paint19_linear_1415_9624)"/>
<path d="M670.347 415.95C674.453 415.95 678.617 416.595 682.664 417.886C685.597 416.302 688.646 415.539 691.814 415.539H692.869L690.406 312.212H669.291L666.828 416.126C668.001 416.008 669.174 415.891 670.347 415.891V415.95Z" fill="url(#paint20_linear_1415_9624)"/>
<path d="M1152.41 448H1130.41L1134.34 189H1148.47L1152.41 448Z" fill="url(#paint21_linear_1415_9624)"/>
<path d="M1268.41 534.649V517.986H1245.54V292.263C1245.54 276.597 1232.87 263.923 1217.21 263.923H1216.39C1216.74 263.395 1216.92 262.808 1216.92 262.104V255.474C1216.92 253.655 1215.45 252.247 1213.69 252.247H1203.19C1201.37 252.247 1199.97 253.714 1199.97 255.474V262.104C1199.97 262.75 1200.14 263.395 1200.49 263.923H1199.79C1184.13 263.923 1171.46 276.597 1171.46 292.263V338.851C1161.79 341.902 1154.75 350.821 1154.75 361.5V431.44H1148.71V293.554C1148.71 277.888 1136.04 265.214 1120.38 265.214H1119.56C1119.91 264.686 1120.08 264.099 1120.08 263.395V256.765C1120.08 254.946 1118.62 253.538 1116.86 253.538H1106.36C1104.54 253.538 1103.13 255.005 1103.13 256.765V263.395C1103.13 264.041 1103.31 264.686 1103.66 265.214H1102.96C1089.35 265.214 1077.97 274.837 1075.22 287.628H1070.93C1057.8 287.628 1047.12 298.307 1047.12 311.45V364.961L1031.76 349.589L1012.99 368.365L998.735 354.107V301.886C998.735 288.743 988.06 278.064 974.922 278.064H971.11L968.06 133.547H932.283L928.47 358.859L919.145 349.53L910.582 358.155L907.532 193.103H871.755L867.59 401.399L829.76 439.537V517.986H797.913V534.649H1268.59H1268.41ZM1164.13 361.441C1164.13 356.16 1167.06 351.584 1171.35 349.119V431.382H1164.13V361.441ZM1056.45 311.391C1056.45 303.529 1062.84 297.075 1070.76 297.075H1074.39V327.703H1070.76C1065.36 327.703 1060.44 329.58 1056.45 332.573V311.391ZM1056.45 351.525C1056.45 343.662 1062.84 337.208 1070.76 337.208H1074.39V390.954H1072.99L1056.45 374.408V351.525ZM995.215 447.928H1050.17V459.604H995.215V447.928ZM974.688 287.511C982.547 287.511 988.998 293.906 988.998 301.827V354.459L975.215 368.247L972.752 365.783L971.11 287.511H974.688ZM919.262 447.928H974.218V459.604H919.262V447.928ZM843.309 447.928H898.265V459.604H843.309V447.928Z" fill="url(#paint22_linear_1415_9624)"/>
</g>
</g>
<defs>
<linearGradient id="paint0_linear_1415_9624" x1="865.649" y1="3.06329" x2="820.132" y2="101.313" gradientUnits="userSpaceOnUse">
<stop stop-color="#5ECAFB"/>
<stop offset="0.365" stop-color="#3B79FF"/>
<stop offset="0.77" stop-color="#9747FF"/>
</linearGradient>
<linearGradient id="paint1_linear_1415_9624" x1="785.959" y1="-20.2977" x2="745.641" y2="67.0705" gradientUnits="userSpaceOnUse">
<stop stop-color="#5ECAFB"/>
<stop offset="0.365" stop-color="#3B79FF"/>
<stop offset="0.77" stop-color="#9747FF"/>
</linearGradient>
<linearGradient id="paint2_linear_1415_9624" x1="809.925" y1="36.9639" x2="805.297" y2="55.3256" gradientUnits="userSpaceOnUse">
<stop stop-color="#5ECAFB"/>
<stop offset="0.365" stop-color="#3B79FF"/>
<stop offset="0.77" stop-color="#9747FF"/>
</linearGradient>
<linearGradient id="paint3_linear_1415_9624" x1="823.423" y1="13.249" x2="819.756" y2="28.3989" gradientUnits="userSpaceOnUse">
<stop stop-color="#5ECAFB"/>
<stop offset="0.365" stop-color="#3B79FF"/>
<stop offset="0.77" stop-color="#9747FF"/>
</linearGradient>
<linearGradient id="paint4_linear_1415_9624" x1="219" y1="400" x2="324.636" y2="424.923" gradientUnits="userSpaceOnUse">
<stop stop-color="#5ECAFB"/>
<stop offset="0.365" stop-color="#3B79FF"/>
<stop offset="0.77" stop-color="#9747FF"/>
</linearGradient>
<linearGradient id="paint5_linear_1415_9624" x1="-32" y1="-31" x2="73.6364" y2="-6.07707" gradientUnits="userSpaceOnUse">
<stop stop-color="#5ECAFB"/>
<stop offset="0.365" stop-color="#3B79FF"/>
<stop offset="0.77" stop-color="#9747FF"/>
</linearGradient>
<linearGradient id="paint6_linear_1415_9624" x1="1061.41" y1="1.78455" x2="1166.72" y2="-24.4716" gradientUnits="userSpaceOnUse">
<stop stop-color="#5ECAFB"/>
<stop offset="0.365" stop-color="#3B79FF"/>
<stop offset="0.77" stop-color="#9747FF"/>
</linearGradient>
<linearGradient id="paint7_linear_1415_9624" x1="1293.41" y1="261.642" x2="1349.29" y2="247.709" gradientUnits="userSpaceOnUse">
<stop stop-color="#5ECAFB"/>
<stop offset="0.365" stop-color="#3B79FF"/>
<stop offset="0.77" stop-color="#9747FF"/>
</linearGradient>
<linearGradient id="paint8_linear_1415_9624" x1="1257" y1="20.6416" x2="1312.88" y2="6.7094" gradientUnits="userSpaceOnUse">
<stop stop-color="#5ECAFB"/>
<stop offset="0.365" stop-color="#3B79FF"/>
<stop offset="0.77" stop-color="#9747FF"/>
</linearGradient>
<linearGradient id="paint9_linear_1415_9624" x1="331" y1="440.642" x2="386.882" y2="426.709" gradientUnits="userSpaceOnUse">
<stop stop-color="#5ECAFB"/>
<stop offset="0.365" stop-color="#3B79FF"/>
<stop offset="0.77" stop-color="#9747FF"/>
</linearGradient>
<linearGradient id="paint10_linear_1415_9624" x1="647.407" y1="144" x2="697.317" y2="155.643" gradientUnits="userSpaceOnUse">
<stop stop-color="#5ECAFB"/>
<stop offset="0.365" stop-color="#3B79FF"/>
<stop offset="0.77" stop-color="#9747FF"/>
</linearGradient>
<linearGradient id="paint11_linear_1415_9624" x1="1218.56" y1="171.686" x2="1270.84" y2="173.15" gradientUnits="userSpaceOnUse">
<stop stop-color="#5ECAFB"/>
<stop offset="0.365" stop-color="#3B79FF"/>
<stop offset="0.77" stop-color="#9747FF"/>
</linearGradient>
<linearGradient id="paint12_linear_1415_9624" x1="1242.35" y1="339.756" x2="1356.67" y2="352.548" gradientUnits="userSpaceOnUse">
<stop stop-color="#5ECAFB"/>
<stop offset="0.365" stop-color="#3B79FF"/>
<stop offset="0.77" stop-color="#9747FF"/>
</linearGradient>
<linearGradient id="paint13_linear_1415_9624" x1="1022.02" y1="247.846" x2="1052.95" y2="248.485" gradientUnits="userSpaceOnUse">
<stop stop-color="#5ECAFB"/>
<stop offset="0.365" stop-color="#3B79FF"/>
<stop offset="0.77" stop-color="#9747FF"/>
</linearGradient>
<linearGradient id="paint14_linear_1415_9624" x1="1003.72" y1="280.117" x2="1039.55" y2="281.152" gradientUnits="userSpaceOnUse">
<stop stop-color="#5ECAFB"/>
<stop offset="0.365" stop-color="#3B79FF"/>
<stop offset="0.77" stop-color="#9747FF"/>
</linearGradient>
<linearGradient id="paint15_linear_1415_9624" x1="627.89" y1="328.691" x2="867.339" y2="385.552" gradientUnits="userSpaceOnUse">
<stop stop-color="#5ECAFB"/>
<stop offset="0.426151" stop-color="#3B79FF"/>
<stop offset="0.874198" stop-color="#3841FF"/>
</linearGradient>
<linearGradient id="paint16_linear_1415_9624" x1="627.89" y1="328.691" x2="867.339" y2="385.552" gradientUnits="userSpaceOnUse">
<stop stop-color="#5ECAFB"/>
<stop offset="0.426151" stop-color="#3B79FF"/>
<stop offset="0.874198" stop-color="#3841FF"/>
</linearGradient>
<linearGradient id="paint17_linear_1415_9624" x1="627.89" y1="328.691" x2="867.339" y2="385.552" gradientUnits="userSpaceOnUse">
<stop stop-color="#5ECAFB"/>
<stop offset="0.426151" stop-color="#3B79FF"/>
<stop offset="0.874198" stop-color="#3841FF"/>
</linearGradient>
<linearGradient id="paint18_linear_1415_9624" x1="627.89" y1="328.691" x2="867.339" y2="385.552" gradientUnits="userSpaceOnUse">
<stop stop-color="#5ECAFB"/>
<stop offset="0.426151" stop-color="#3B79FF"/>
<stop offset="0.874198" stop-color="#3841FF"/>
</linearGradient>
<linearGradient id="paint19_linear_1415_9624" x1="627.89" y1="328.691" x2="867.339" y2="385.552" gradientUnits="userSpaceOnUse">
<stop stop-color="#5ECAFB"/>
<stop offset="0.426151" stop-color="#3B79FF"/>
<stop offset="0.874198" stop-color="#3841FF"/>
</linearGradient>
<linearGradient id="paint20_linear_1415_9624" x1="666.828" y1="312.212" x2="699.35" y2="314.082" gradientUnits="userSpaceOnUse">
<stop stop-color="#5ECAFB"/>
<stop offset="0.426151" stop-color="#3B79FF"/>
<stop offset="0.874198" stop-color="#3841FF"/>
</linearGradient>
<linearGradient id="paint21_linear_1415_9624" x1="1130.41" y1="189" x2="1157.96" y2="189.546" gradientUnits="userSpaceOnUse">
<stop stop-color="#5ECAFB"/>
<stop offset="0.365" stop-color="#3B79FF"/>
<stop offset="0.77" stop-color="#9747FF"/>
</linearGradient>
<linearGradient id="paint22_linear_1415_9624" x1="797.913" y1="133.547" x2="1346.55" y2="283.735" gradientUnits="userSpaceOnUse">
<stop stop-color="#5ECAFB"/>
<stop offset="0.365" stop-color="#3B79FF"/>
<stop offset="0.77" stop-color="#9747FF"/>
</linearGradient>
<clipPath id="clip0_1415_9624">
<rect width="1320" height="497" rx="14" fill="white"/>
</clipPath>
<clipPath id="clip1_1415_9624">
<rect width="781" height="428" fill="white" transform="translate(549.407 109)"/>
</clipPath>
</defs>
</svg>
