<svg width="196" height="73" viewBox="0 0 196 73" fill="none" xmlns="http://www.w3.org/2000/svg">
<g clip-path="url(#clip0_676_5247)">
<path fill-rule="evenodd" clip-rule="evenodd" d="M18.8274 0.249023V5.96402H12.7172V11.6894H6.55781V17.5394H0.398438V37.0279C0.398438 37.0279 11.2467 46.7998 12.8014 48.2052V68.9467H39.4289V48.316C40.9591 46.9071 51.7476 37.0036 51.7476 37.0036V17.5359H45.6268V11.724H39.4324V5.96402H33.2274V0.249023H18.8274Z" fill="white"/>
<path d="M22.4564 38.7448H17.2341V64.4086H22.4564V38.7448Z" fill="#CDCDCD"/>
<path d="M28.6402 33.4486H23.4214V64.4121H28.6402V33.4486Z" fill="#CDCDCD"/>
<path d="M34.8208 38.7448H29.6055V64.4086H34.8208V38.7448Z" fill="#CDCDCD"/>
<path fill-rule="evenodd" clip-rule="evenodd" d="M10.0815 39.7521L4.86621 35.176V22.0187H10.0815V39.7521Z" fill="#CDCDCD"/>
<path fill-rule="evenodd" clip-rule="evenodd" d="M16.2688 45.4741L11.05 40.4238V16.2034H16.2688V45.4741Z" fill="#CDCDCD"/>
<path d="M22.4564 10.4849H17.2341V37.9418H22.4564V10.4849Z" fill="#CDCDCD"/>
<path d="M28.6402 4.75952H23.4214V32.3168H28.6402V4.75952Z" fill="#CDCDCD"/>
<path fill-rule="evenodd" clip-rule="evenodd" d="M41.9802 39.7521L47.1955 35.176V22.0187H41.9802V39.7521Z" fill="#CDCDCD"/>
<path fill-rule="evenodd" clip-rule="evenodd" d="M35.7893 45.4741L41.0116 40.4238V16.2034H35.7893V45.4741Z" fill="#CDCDCD"/>
<path d="M34.8208 10.4849H29.6055V37.9418H34.8208V10.4849Z" fill="#CDCDCD"/>
<path fill-rule="evenodd" clip-rule="evenodd" d="M84.3204 63.5052C83.6641 64.1594 82.4427 64.4848 80.6528 64.4848H74.7847C73.0124 64.4848 71.784 64.1767 71.0996 63.5398C70.4082 62.9132 70.0608 61.9613 70.0608 60.6909V55.0936C70.0608 53.8163 70.4082 52.8713 71.0996 52.2378C71.784 51.6078 73.0124 51.2928 74.7847 51.2928H80.6528C82.4427 51.2928 83.6641 51.6182 84.3204 52.269C84.9837 52.9232 85.303 53.8648 85.303 55.0901V60.6875C85.303 61.9163 84.9837 62.8509 84.3204 63.5017V63.5052ZM81.2951 56.3917C81.2951 55.6682 81.1406 55.1317 80.8388 54.7994C80.5335 54.4671 79.8561 54.2975 78.7962 54.2975H76.5501C75.5709 54.2975 74.9181 54.4844 74.5882 54.8444C74.2618 55.2044 74.0968 55.7236 74.0968 56.3917V59.3928C74.0968 60.0644 74.2618 60.5732 74.5882 60.9402C74.9146 61.3036 75.5709 61.4905 76.5501 61.4905H78.7962C79.8526 61.4905 80.523 61.3175 80.8178 60.9886C81.1055 60.6528 81.2635 60.1336 81.2951 59.4171V56.3917Z" fill="#CDCDCD"/>
<path fill-rule="evenodd" clip-rule="evenodd" d="M101.893 63.5052C101.237 64.1594 100.015 64.4848 98.2324 64.4848H92.3643C90.592 64.4848 89.3636 64.1767 88.6722 63.5398C87.9808 62.9132 87.6404 61.9613 87.6404 60.6909V55.0936C87.6404 53.8163 87.9808 52.8713 88.6722 52.2378C89.3636 51.6078 90.592 51.2928 92.3643 51.2928H98.2324C100.015 51.2928 101.237 51.6182 101.893 52.269C102.553 52.9232 102.879 53.8648 102.879 55.0901V56.3882H98.8711C98.8711 55.6648 98.7167 55.1282 98.4114 54.7959C98.106 54.4636 97.4287 54.294 96.3688 54.294H94.1226C93.147 54.294 92.4942 54.4809 92.1608 54.8409C91.8344 55.2009 91.6694 55.7201 91.6694 56.3882V59.3894C91.6694 60.0609 91.8344 60.5698 92.1608 60.9367C92.4907 61.3002 93.147 61.4871 94.1226 61.4871H96.3688C97.4252 61.4871 98.1025 61.314 98.4114 60.9852C98.7132 60.6494 98.8711 60.1163 98.8711 59.3894H102.879V60.6875C102.879 61.9163 102.553 62.8509 101.893 63.5017V63.5052Z" fill="#CDCDCD"/>
<path fill-rule="evenodd" clip-rule="evenodd" d="M109.235 64.4848H105.245L105.22 60.6875V55.0936L105.245 51.2928H109.235V56.3398H116.43V51.2928H120.462V55.0936V60.6875V64.4848H116.43V59.3444H109.235V64.4848Z" fill="#CDCDCD"/>
<path fill-rule="evenodd" clip-rule="evenodd" d="M127.959 59.3444H126.815C126.829 60.0436 127.001 60.5767 127.327 60.9402C127.661 61.3036 128.306 61.4905 129.289 61.4905H138.042V64.4848H127.524C125.751 64.4848 124.516 64.1767 123.832 63.5432C123.147 62.9132 122.8 61.9613 122.8 60.6909V55.0936C122.8 53.8163 123.144 52.8713 123.832 52.2378C124.52 51.6078 125.751 51.2928 127.524 51.2928H138.042V54.2975H129.289C128.306 54.2975 127.661 54.4844 127.327 54.8444C127.001 55.2044 126.829 55.7028 126.815 56.3432H138.042V59.3444H127.959Z" fill="#CDCDCD"/>
<path fill-rule="evenodd" clip-rule="evenodd" d="M168.871 54.2974H163.367V51.2963H167.997H173.861H178.589V54.2974H172.857V64.4847H168.871V54.2974Z" fill="#CDCDCD"/>
<path fill-rule="evenodd" clip-rule="evenodd" d="M159.837 53.6606H153.642V51.2479H149.69V53.6606H143.345C143.345 53.6606 139.741 53.7679 139.741 57.8006C139.741 61.8333 143.443 61.861 143.443 61.861H149.687V64.4745H153.639V61.861H159.735C159.735 61.861 163.441 61.8333 163.441 57.8006C163.441 53.7679 159.833 53.6606 159.833 53.6606H159.837ZM157.717 59.2372H153.642V56.4472H157.682C157.682 56.4472 159.072 56.2706 159.072 57.9148C159.072 59.2891 157.713 59.2372 157.713 59.2372H157.717ZM144.233 57.9148C144.233 56.2706 145.626 56.4472 145.626 56.4472H149.676V59.2372H145.602C145.602 59.2372 144.237 59.2891 144.237 57.9148H144.233Z" fill="#CDCDCD"/>
<path fill-rule="evenodd" clip-rule="evenodd" d="M66.7406 52.269C66.0843 51.6182 64.863 51.2928 63.0731 51.2928H52.5056V64.4813H56.496V59.9328H63.0731C64.863 59.9328 66.0843 59.6109 66.7406 58.9567C67.3969 58.3025 67.7268 57.3609 67.7268 56.1355V55.0867C67.7268 53.8578 67.3969 52.9198 66.7406 52.2655V52.269ZM62.4027 56.9352H56.496V54.2975H62.4027C63.1433 54.2975 63.7399 54.8894 63.7399 55.6198C63.7399 56.3502 63.1433 56.9386 62.4027 56.9386V56.9352Z" fill="#CDCDCD"/>
<path fill-rule="evenodd" clip-rule="evenodd" d="M195.596 60.6875V59.6386C195.596 58.4132 195.266 57.4717 194.614 56.8175C193.95 56.1667 192.732 55.8448 190.942 55.8448H184.365V51.2928H180.375V64.4813H190.939C192.729 64.4813 193.947 64.1594 194.61 63.5052C195.266 62.8509 195.593 61.9094 195.593 60.6875H195.596ZM191.613 60.1613C191.613 60.8917 191.013 61.4836 190.272 61.4836H184.365V58.8425H190.272C191.009 58.8425 191.613 59.4344 191.613 60.1613Z" fill="#CDCDCD"/>
</g>
<defs>
<clipPath id="clip0_676_5247">
<rect width="195.486" height="72" fill="white" transform="translate(0.398438 0.249023)"/>
</clipPath>
</defs>
</svg>
