<svg width="317" height="73" viewBox="0 0 317 73" fill="none" xmlns="http://www.w3.org/2000/svg">
<path d="M78.2324 12.6812H91.0515V47.4786H104.785V58.4681H78.2324V12.6812Z" fill="#CDCDCD"/>
<path d="M109.94 39.9557V12.6803H122.759V39.6932C122.759 42.5076 123.284 48.783 130.083 48.783C136.889 48.783 137.413 42.5076 137.413 39.6932V12.6803H150.232V39.9557C150.232 44.8618 149.184 59.7726 130.083 59.7726C110.989 59.7726 109.94 44.8618 109.94 39.9557Z" fill="#CDCDCD"/>
<path d="M158.589 12.6812H171.408V31.9097L185.212 12.681H200.257L182.858 34.8522L200.711 58.4681H184.687L171.408 38.7795V58.4681H158.589V12.6812ZM258.897 12.6791H271.716V58.4658H258.897V12.6791ZM281.107 12.6812H293.925V47.4786H307.665V58.4681H281.107V12.6812Z" fill="#CDCDCD"/>
<path d="M237.992 35.6063C237.992 26.5689 232.433 22.0881 226.344 22.0881C220.255 22.0881 214.696 26.5689 214.696 35.6063C214.696 44.6436 220.255 49.1245 226.344 49.1245C232.433 49.1245 237.992 44.6436 237.992 35.6063ZM201.178 35.6063C201.178 23.0904 209.213 10.8425 226.344 10.8425C243.481 10.8425 251.51 23.0904 251.51 35.6063C251.51 48.1222 243.481 60.3701 226.344 60.3701C209.213 60.3701 201.178 48.1222 201.178 35.6063Z" fill="#CDCDCD"/>
<path d="M7.56995 6.17639H67.9122V66.6464H7.56995V6.17639Z" fill="#CDCDCD"/>
<path d="M61.2371 17.6524L54.4606 28.6124C53.7206 29.8419 53.8313 30.809 54.1751 31.7413L64.4651 58.0668H21.8481C18.0257 58.0668 15.0657 54.9962 15.0657 51.337L15.0249 16.2945C15.1298 11.7671 21.7257 11.6914 21.8481 16.2771V49.1228C21.8364 50.1658 22.7512 51.337 23.9573 51.3079H55.1714L47.0897 32.289C46.8799 31.5607 46.7342 30.8384 46.7342 30.11C46.7342 29.3059 47.0897 28.0182 47.6199 26.9694L55.0374 14.7564C55.5851 13.6609 56.6922 12.9207 58.0091 12.8683C59.8562 12.7867 61.4352 14.0571 61.5168 16.0207C61.5226 16.4111 61.4294 17.2678 61.2371 17.6524Z" fill="white"/>
<path d="M37.7313 39.7833V16.2781C37.7313 11.6924 44.4204 11.6574 44.4962 16.2781V40.0397C44.4962 45.4761 40.4349 49.0712 35.4588 49.0712C30.4886 49.0712 26.4156 45.3887 26.4156 40.0397V16.2781C26.4156 11.6924 33.1805 11.6924 33.1805 16.2781V39.7833C33.1805 42.9356 37.7313 43.1279 37.7313 39.7833Z" fill="white"/>
</svg>
