<svg width="204" height="72" viewBox="0 0 204 72" fill="none" xmlns="http://www.w3.org/2000/svg">
<g clip-path="url(#clip0_676_5236)">
<path d="M61.3058 35.2572H30.6146C30.2467 35.2572 29.949 35.5575 29.949 35.9267V39.9386C29.949 40.3052 30.248 40.6055 30.6159 40.6055H40.6223V55.9811C40.6223 56.3477 40.9226 56.6506 41.2892 56.6506H50.6299C50.9965 56.6506 51.2982 56.349 51.2982 55.9811V40.6055H61.3058C61.6724 40.6055 61.9728 40.3065 61.9728 39.9386V35.9267C61.9728 35.5588 61.6711 35.2572 61.3058 35.2572Z" fill="#CDCDCD"/>
<path d="M130.676 35.2572H100C99.6334 35.2572 99.3331 35.5575 99.3331 35.9267V39.9386C99.3331 40.3052 99.6334 40.6055 100 40.6055H110.004V55.9811C110.004 56.3477 110.304 56.6506 110.671 56.6506H120.004C120.37 56.6506 120.669 56.349 120.669 55.9811V40.6055H130.677C131.045 40.6055 131.345 40.3065 131.345 39.9386V35.9267C131.344 35.5588 131.044 35.2572 130.676 35.2572Z" fill="#CDCDCD"/>
<path d="M95.9972 35.2572H86.6577C86.2911 35.2572 85.9895 35.5575 85.9895 35.9267V51.3009H80.6528C77.7083 51.297 75.3149 48.905 75.3149 45.9539V35.9267C75.3149 35.5588 75.0172 35.2572 74.6493 35.2572H65.3085C64.9406 35.2572 64.6416 35.5575 64.6416 35.9267V45.9539C64.6416 51.86 69.4205 56.6506 75.3136 56.6506H95.9959C96.3638 56.6506 96.6641 56.349 96.6641 55.9811V35.9267C96.6654 35.5588 96.3638 35.2572 95.9972 35.2572Z" fill="#CDCDCD"/>
<path d="M166.705 35.2572H143.354C137.457 35.2572 132.678 40.0465 132.678 45.9539C132.678 51.86 137.457 56.6506 143.354 56.6506H153.361C153.727 56.6506 154.028 56.349 154.028 55.9811V51.9692C154.028 51.6025 153.728 51.3009 153.361 51.3009H148.69C145.74 51.3009 143.354 48.905 143.354 45.9539C143.354 43.0002 145.742 40.6055 148.69 40.6055H156.695V55.9811C156.695 56.3477 156.995 56.6506 157.363 56.6506H166.705C167.07 56.6506 167.373 56.349 167.373 55.9811V35.9267C167.373 35.5588 167.07 35.2572 166.705 35.2572Z" fill="#CDCDCD"/>
<path d="M202.732 35.2572H193.391C193.025 35.2572 192.723 35.5575 192.723 35.9267V43.2784H182.047V35.9267C182.047 35.5588 181.749 35.2572 181.38 35.2572H172.04C171.672 35.2572 171.372 35.5575 171.372 35.9267V55.9811C171.372 56.3477 171.671 56.6506 172.04 56.6506H181.38C181.748 56.6506 182.047 56.349 182.047 55.9811V48.6281H192.723V55.9811C192.723 56.3477 193.024 56.6506 193.391 56.6506H202.732C203.097 56.6506 203.4 56.349 203.4 55.9811V35.9267C203.398 35.5588 203.097 35.2572 202.732 35.2572Z" fill="#CDCDCD"/>
<path d="M5.67071 56.6492C6.45203 56.6492 7.16575 55.9069 6.97465 55.0501C6.29473 52.1277 5.93072 49.0843 5.93072 45.9538C5.93072 23.8025 23.853 5.84509 45.9614 5.84509C51.302 5.84509 56.3929 6.89942 61.0509 8.80137C61.5475 9.00028 61.9739 8.59987 61.9739 8.18386V3.88074C61.9739 3.58953 61.788 3.34252 61.528 3.25022C56.6698 1.47177 51.4294 0.498047 45.9601 0.498047C20.9045 0.498047 0.592773 20.8501 0.592773 45.9538C0.592773 49.2598 0.946383 52.4813 1.6172 55.5858C1.7472 56.1864 2.28152 56.6492 2.92114 56.6492" fill="#CDCDCD"/>
<path d="M14.9426 37.9521C14.8048 38.5059 14.1106 39.1975 13.1966 38.8621L10.6941 37.9495C10.0506 37.7129 9.68785 37.0304 9.84516 36.379C14.0703 20.3457 28.6333 8.51929 45.9614 8.51929C51.5516 8.51929 56.8505 9.75302 61.6139 11.9579C61.831 12.0684 61.974 12.2933 61.974 12.5546V17.0358C61.974 17.4869 61.5203 17.8535 60.9938 17.626C56.5086 15.2314 51.3956 13.8676 45.9614 13.8676C31.0318 13.8676 18.4904 24.1041 14.9426 37.9521Z" fill="#CDCDCD"/>
<path d="M28.0833 28.1576C28.5994 28.5893 29.3404 28.5672 29.8267 28.1265C34.0895 24.2523 39.7511 21.8902 45.9601 21.8902C51.601 21.8902 56.7855 23.8402 60.8845 27.1033C61.3148 27.4413 61.9726 27.1696 61.9726 26.5859V21.6757C61.9726 21.4313 61.84 21.2155 61.6437 21.0985C57.1066 18.2176 51.731 16.5444 45.9601 16.5444C38.2262 16.5444 31.193 19.5462 25.9486 24.4474C25.2427 25.1442 25.5638 26.0438 26.0202 26.426" fill="#CDCDCD"/>
<path d="M62.9841 70.0135H62.061V64.6717H65.7128V65.323H62.9841V70.0135ZM67.4484 64.6704V65.4049H67.4809C68.0269 64.5976 68.7601 64.4585 69.2424 64.4585C70.5555 64.4585 71.6462 65.3438 71.6462 67.3407C71.6462 69.4246 70.4814 70.2216 69.2645 70.2216C69.0552 70.2216 67.9853 70.1696 67.5121 69.2452V71.9558H66.5891V64.6704H67.4484ZM69.0968 69.5702C69.8417 69.5702 70.6712 69.0463 70.6712 67.342C70.6712 65.9756 70.0836 65.1124 69.0461 65.1124C68.5625 65.1124 67.4497 65.3451 67.4497 67.3602C67.4484 69.0138 68.3935 69.5702 69.0968 69.5702ZM72.8877 71.2642C73.1594 71.3071 73.266 71.3162 73.3492 71.3162C73.8953 71.3162 74.0318 70.8963 74.1891 70.4127L74.3152 70.0135L72.0063 64.6717H73.1074L74.8196 68.993L76.2366 64.6717H77.1596L75.0393 70.6454C74.8612 71.1589 74.661 72 73.6417 72C73.3479 72 73.0749 71.9896 72.8864 71.9467L72.8877 71.2642ZM78.9017 70.0135H77.9787V64.6717H82.5223V70.0135H81.5993V65.323H78.9017V70.0135ZM84.8858 70.0135H83.9627V64.6717H88.5064V70.0135H87.5833V65.323H84.8871L84.8858 70.0135ZM89.8233 66.2473C89.8129 65.5453 90.2107 64.4598 92.0905 64.4598C92.9512 64.4598 94.2421 64.6912 94.2109 66.2577L94.1576 68.7304C94.1472 69.149 94.1576 69.3804 94.714 69.3596V70.0123C94.5866 70.0435 94.493 70.0525 94.2941 70.0525C93.7806 70.0525 93.4452 69.9693 93.3399 69.2751C92.972 69.9485 92.2375 70.2216 91.5133 70.2216C90.4031 70.2216 89.6348 69.7366 89.6348 68.6147C89.6348 67.6982 90.1067 67.1093 92.2479 66.9208C93.0253 66.8584 93.2879 66.8792 93.2879 66.1849C93.2879 65.9431 93.2671 65.1124 92.0905 65.1124C91.7551 65.1124 90.6748 65.1345 90.706 66.2473H89.8233ZM93.2866 67.2783C93.0032 67.5006 92.6977 67.459 92.1101 67.5422C91.2923 67.6683 90.589 67.7307 90.589 68.5809C90.589 69.2036 91.0206 69.5702 91.6186 69.5702C92.3428 69.5702 93.1917 69.2231 93.2658 67.7307L93.2866 67.2783ZM101.42 64.6704H102.501L100.005 67.1522L102.638 70.0123H101.537L99.1445 67.3407V70.0123H98.2202V64.6704H99.1445V67.004L101.42 64.6704ZM105.387 64.4598C107.328 64.4598 108.011 65.9236 108.011 67.342C108.011 68.7616 107.33 70.2229 105.387 70.2229C103.448 70.2229 102.765 68.7616 102.765 67.342C102.765 65.9236 103.448 64.4598 105.387 64.4598ZM105.387 69.5702C105.796 69.5702 107.036 69.4662 107.036 67.3303C107.036 65.1956 105.797 65.0903 105.387 65.0903C104.98 65.0903 103.74 65.1956 103.74 67.3303C103.74 69.4662 104.979 69.5702 105.387 69.5702ZM110.126 65.7221H110.105L110.126 66.0081V70.0135H109.203V64.6717H110.473L112.288 69.0151L114.104 64.6717H115.373V70.0135H114.45V66.0081L114.482 65.7221H114.45L112.645 70.0135H111.932L110.126 65.7221ZM117.748 70.0135H116.825V64.6717H121.369V70.0135H120.444V65.323H117.748V70.0135ZM122.687 66.2473C122.676 65.5453 123.074 64.4598 124.953 64.4598C125.812 64.4598 127.103 64.6912 127.072 66.2577L127.019 68.7304C127.01 69.149 127.019 69.3804 127.578 69.3596V70.0123C127.45 70.0435 127.357 70.0525 127.158 70.0525C126.643 70.0525 126.309 69.9693 126.203 69.2751C125.836 69.9485 125.101 70.2216 124.378 70.2216C123.265 70.2216 122.5 69.7366 122.5 68.6147C122.5 67.6982 122.972 67.1093 125.113 66.9208C125.89 66.8584 126.151 66.8792 126.151 66.1849C126.151 65.9431 126.129 65.1124 124.955 65.1124C124.62 65.1124 123.538 65.1345 123.572 66.2473H122.687ZM126.149 67.2783C125.865 67.5006 125.563 67.459 124.974 67.5422C124.156 67.6683 123.453 67.7307 123.453 68.5809C123.453 69.2036 123.883 69.5702 124.481 69.5702C125.205 69.5702 126.055 69.2231 126.128 67.7307L126.149 67.2783ZM129.574 70.0135H128.65V64.6717H129.574V66.8701H132.208V64.6717H133.131V70.0135H132.208V67.5214H129.574V70.0135ZM138.287 64.6704H139.317V70.0123H138.393V65.7429L135.622 70.0123H134.582V64.6704H135.507V68.9293L138.287 64.6704ZM144.472 64.6704H145.499V70.0123H144.576V65.7429L141.804 70.0123H140.765V64.6704H141.689V68.9293L144.472 64.6704ZM144.911 62.6528C144.828 63.1052 144.544 63.8514 143.528 64.01C143.39 64.0308 143.242 64.0412 143.108 64.0412C142.056 64.0412 141.575 63.5251 141.374 62.9349C141.344 62.8413 141.323 62.7463 141.302 62.6514H142.089C142.077 62.7346 142.077 62.9479 142.277 63.1663C142.381 63.2833 142.51 63.3665 142.644 63.4185C142.792 63.4705 142.949 63.4822 143.107 63.4822C143.662 63.4822 144.156 63.1767 144.123 62.6501H144.911V62.6528Z" fill="#CDCDCD"/>
</g>
<defs>
<clipPath id="clip0_676_5236">
<rect width="202.806" height="71.502" fill="white" transform="translate(0.592773 0.498047)"/>
</clipPath>
</defs>
</svg>
